<?xml version="1.0" encoding="UTF-8"?>
<svg width="103px" height="90px" viewBox="0 0 103 90" version="1.1" xmlns="http://www.w3.org/2000/svg" xmlns:xlink="http://www.w3.org/1999/xlink">
    <title>ADD3FB99-0E0C-4F59-8BC8-26E910437E00</title>
    <g id="Website" stroke="none" stroke-width="1" fill="none" fill-rule="evenodd">
        <g id="Become-a-partner" transform="translate(-669.000000, -539.000000)" fill="#E94E1B" fill-rule="nonzero">
            <g id="speaker-(1)" transform="translate(669.000000, 539.000000)">
                <path d="M94.65625,34.25625 L90.4,32.8375 L90.4,3 C90.4,1.3429688 89.0570312,0 87.4,0 C85.7429688,0 84.4,1.3429688 84.4,3 L84.4,12.765625 L26.7609376,30 L9,30 C4.0375,30 0,34.0375 0,39 L0,51 C0,55.9625 4.0375,60 9,60 L24.2,60 L24.2,67.1710938 C24.2,75.14375 29.6023438,82.0625 37.3367188,83.9960938 C38.9296876,84.3945312 40.4953124,84.8507812 42.8960938,84.8507812 C46.7109376,84.8507812 50.4367188,83.5851562 53.5304688,81.1695312 C57.1171876,78.36875 59.409375,74.3703124 60.0296876,69.9476562 L84.4,77.234375 L84.4,87 C84.4,88.6570312 85.7429688,90 87.4,90 C89.0570312,90 90.4,88.6570312 90.4,87 L90.4,57.1625 L94.65625,55.74375 C99.2882812,54.1992188 102.4,49.8820312 102.4,45 C102.4,40.1179688 99.2882812,35.8007812 94.65625,34.25625 Z M6,51 L6,39 C6,37.3460938 7.3460938,36 9,36 L24.2,36 L24.2,54 L9,54 C7.3460938,54 6,52.6539062 6,51 Z M49.8375,76.440625 C47.065625,78.6046876 43.5179688,79.3570312 40.10625,78.5039062 L38.7921876,78.1757812 C33.7328124,76.9109376 30.2,72.3859376 30.2,67.1710938 L30.2,61.028125 L54.178125,68.1976562 C53.9820312,71.4453124 52.4257812,74.4195312 49.8375,76.440625 Z M30.2,54.765625 L30.2,35.234375 L84.4,19.028125 L84.4,70.971875 L30.2,54.765625 Z M92.759375,50.0515624 L90.4,50.8375 L90.4,39.1625 L92.759375,39.9484376 C94.9367188,40.6742188 96.4,42.7046876 96.4,45 C96.4,47.2953124 94.9367188,49.3257812 92.759375,50.0515624 Z" id="Shape"></path>
            </g>
        </g>
    </g>
</svg>