<?xml version="1.0" encoding="UTF-8"?>
<svg width="97px" height="103px" viewBox="0 0 97 103" version="1.1" xmlns="http://www.w3.org/2000/svg" xmlns:xlink="http://www.w3.org/1999/xlink">
    <title>234CFC12-2125-479B-B228-8A04C84EA563</title>
    <g id="Website" stroke="none" stroke-width="1" fill="none" fill-rule="evenodd">
        <g id="Become-a-partner" transform="translate(-1052.000000, -526.000000)" fill="#747473" fill-rule="nonzero">
            <g id="user-(5)" transform="translate(1052.000000, 526.000000)">
                <path d="M90.8484376,83.5914062 C87.4351562,80.1140624 82.9078124,78.1992188 78.1015624,78.1992188 C71.884375,78.1992188 66.3796876,81.4054688 63.1007812,86.3765624 C59.8242188,81.4070312 54.3195312,78.1992188 48.1007812,78.1992188 C41.884375,78.1992188 36.3789062,81.4054688 33.1007812,86.3765624 C29.8234376,81.4070312 24.31875,78.1992188 18.1,78.1992188 C8.1515624,78.1992188 0.1,86.4460938 0.1,96.4 L0.1,99.4 C0.1,101.057031 1.4429688,102.4 3.1,102.4 L93.1015624,102.4 C94.7585938,102.4 96.1015624,101.057031 96.1015624,99.4 L96.1015624,96.4 C96.1015624,91.5898438 94.2359376,87.040625 90.8484376,83.5914062 L90.8484376,83.5914062 Z M18.1007812,84.2 C24.7171876,84.2 30.1007812,89.6726562 30.1007812,96.4 L6.1,96.4 C6.1,89.6726562 11.4835938,84.2 18.1007812,84.2 Z M48.1007812,84.2 C54.7179688,84.2 60.1015624,89.6726562 60.1015624,96.4 L36.1007812,96.4 C36.1007812,89.6726562 41.484375,84.2 48.1007812,84.2 L48.1007812,84.2 Z M66.1015624,96.4 C66.1015624,89.6726562 71.484375,84.2 78.1015624,84.2 C84.71875,84.2 90.1015624,89.6726562 90.1015624,96.4 L66.1015624,96.4 Z" id="Shape"></path>
                <path d="M30.1007812,66.1992188 C30.1007812,62.4179688 28.340625,59.0414062 25.5992188,56.840625 C27.7046876,55.1546876 30.3429688,54.1992188 33.1007812,54.1992188 C35.8585938,54.1992188 38.496875,55.1546876 40.6023438,56.840625 C37.8609376,59.0414062 36.1007812,62.4179688 36.1007812,66.1992188 C36.1007812,72.8164062 41.484375,78.1992188 48.1007812,78.1992188 C54.7179688,78.1992188 60.1015624,72.8164062 60.1015624,66.1992188 C60.1015624,62.4179688 58.3414062,59.0414062 55.5992188,56.840625 C57.7054688,55.1546876 60.34375,54.1992188 63.1015624,54.1992188 C65.8585938,54.1992188 68.496875,55.1546876 70.603125,56.840625 C67.8609376,59.0414062 66.1015624,62.4179688 66.1015624,66.1992188 C66.1015624,72.8164062 71.484375,78.1992188 78.1015624,78.1992188 C84.71875,78.1992188 90.1015624,72.8164062 90.1015624,66.1992188 C90.1015624,59.5820312 84.71875,54.1992188 78.1015624,54.1992188 C77.5929688,54.1992188 77.09375,54.234375 76.6015624,54.2960938 C73.2039062,50.446875 68.2914062,48.1992188 63.1015624,48.1992188 C57.9109376,48.1992188 52.9984376,50.4476562 49.6007812,54.2960938 C49.109375,54.234375 48.609375,54.1992188 48.1007812,54.1992188 C47.5929688,54.1992188 47.0929688,54.234375 46.6015624,54.2960938 C43.203125,50.446875 38.2914062,48.1992188 33.1007812,48.1992188 C27.9101562,48.1992188 22.9976562,50.4476562 19.6,54.2960938 C19.1085938,54.234375 18.6085938,54.1992188 18.1007812,54.1992188 C11.4835938,54.1992188 6.1,59.5820312 6.1,66.1992188 C6.1,72.8164062 11.4835938,78.1992188 18.1007812,78.1992188 C24.7171876,78.1992188 30.1007812,72.8164062 30.1007812,66.1992188 L30.1007812,66.1992188 Z M84.1015624,66.1992188 C84.1015624,69.5078124 81.4101562,72.1992188 78.1015624,72.1992188 C74.7929688,72.1992188 72.1015624,69.5078124 72.1015624,66.1992188 C72.1015624,62.890625 74.7929688,60.1992188 78.1015624,60.1992188 C81.4101562,60.1992188 84.1015624,62.890625 84.1015624,66.1992188 Z M48.1007812,72.1992188 C44.7921876,72.1992188 42.1007812,69.5078124 42.1007812,66.1992188 C42.1007812,62.890625 44.79375,60.1992188 48.1007812,60.1992188 C51.4085938,60.1992188 54.1007812,62.890625 54.1007812,66.1992188 C54.1007812,69.5078124 51.409375,72.1992188 48.1007812,72.1992188 L48.1007812,72.1992188 Z M18.1007812,72.1992188 C14.7921876,72.1992188 12.1007812,69.5078124 12.1007812,66.1992188 C12.1007812,62.890625 14.7921876,60.1992188 18.1007812,60.1992188 C21.4085938,60.1992188 24.1007812,62.890625 24.1007812,66.1992188 C24.1007812,69.5078124 21.4085938,72.1992188 18.1007812,72.1992188 Z" id="Shape"></path>
                <path d="M45.1007812,36.1984376 C45.1007812,29.5820312 39.7179688,24.1984376 33.1007812,24.1984376 C26.4835938,24.1984376 21.1007812,29.5820312 21.1007812,36.1984376 C21.1007812,42.815625 26.4835938,48.1992188 33.1007812,48.1992188 C39.7179688,48.1992188 45.1007812,42.815625 45.1007812,36.1984376 Z M33.1007812,42.1992188 C29.7921876,42.1992188 27.1007812,39.5070312 27.1007812,36.1984376 C27.1007812,32.890625 29.7921876,30.1984376 33.1007812,30.1984376 C36.409375,30.1984376 39.1007812,32.890625 39.1007812,36.1984376 C39.1007812,39.5070312 36.409375,42.1992188 33.1007812,42.1992188 Z" id="Shape"></path>
                <path d="M75.1015624,36.1984376 C75.1015624,29.5820312 69.7179688,24.1984376 63.1015624,24.1984376 C56.484375,24.1984376 51.1007812,29.5820312 51.1007812,36.1984376 C51.1007812,42.815625 56.484375,48.1992188 63.1015624,48.1992188 C69.7179688,48.1992188 75.1015624,42.815625 75.1015624,36.1984376 Z M63.1015624,42.1992188 C59.7929688,42.1992188 57.1015624,39.5070312 57.1015624,36.1984376 C57.1015624,32.890625 59.7929688,30.1984376 63.1015624,30.1984376 C66.409375,30.1984376 69.1015624,32.890625 69.1015624,36.1984376 C69.1015624,39.5070312 66.409375,42.1992188 63.1015624,42.1992188 Z" id="Shape"></path>
                <path d="M44.221875,11.1195312 L45.1007812,10.240625 L45.1007812,20.9984376 C45.1007812,22.6554688 46.4445312,23.9984376 48.1007812,23.9984376 C49.7578124,23.9984376 51.1007812,22.6554688 51.1007812,20.9984376 L51.1007812,10.240625 L51.9796876,11.1195312 C53.1515624,12.2914062 55.0507812,12.2914062 56.2226562,11.1195312 C57.3945312,9.9484376 57.3945312,8.0484376 56.2226562,6.8773438 L50.2226562,0.8773438 C49.0476562,-0.296875 47.1453124,-0.2875 45.9789062,0.8773438 L39.9796876,6.8773438 C38.8078124,8.0484376 38.8078124,9.9484376 39.9796876,11.1195312 C41.1507812,12.2914062 43.0507812,12.2914062 44.221875,11.1195312 L44.221875,11.1195312 Z" id="Path"></path>
                <path d="M74.2226562,11.1195312 L75.1015625,10.240625 L75.1015625,20.9984376 C75.1015625,22.6554688 76.4445312,23.9984376 78.1015625,23.9984376 C79.7585938,23.9984376 81.1015625,22.6554688 81.1015625,20.9984376 L81.1015625,10.240625 L81.9804688,11.1195312 C83.1515624,12.2914062 85.0515624,12.2914062 86.2234376,11.1195312 C87.3945312,9.9484376 87.3945312,8.0484376 86.2234376,6.8773438 L80.2234376,0.8773438 C79.040625,-0.3046876 77.1375,-0.2796876 75.9796876,0.8773438 L69.9804688,6.8773438 C68.8085938,8.0484376 68.8085938,9.9484376 69.9804688,11.1195312 C71.1515624,12.2914062 73.0515624,12.2914062 74.2226562,11.1195312 Z" id="Path"></path>
                <path d="M14.221875,11.1195312 L15.1007812,10.240625 L15.1007812,20.9984376 C15.1007812,22.6554688 16.44375,23.9984376 18.1007812,23.9984376 C19.7570312,23.9984376 21.1007812,22.6554688 21.1007812,20.9984376 L21.1007812,10.240625 L21.9796876,11.1195312 C23.1507812,12.2914062 25.0507812,12.2914062 26.221875,11.1195312 C27.39375,9.9484376 27.39375,8.0484376 26.221875,6.8773438 L20.2226562,0.8773438 C19.0554688,-0.2890624 17.15,-0.2929688 15.9789062,0.8773438 L9.9789062,6.8773438 C8.8070312,8.0484376 8.8070312,9.9484376 9.9789062,11.1195312 C11.15,12.2914062 13.05,12.2914062 14.221875,11.1195312 Z" id="Path"></path>
            </g>
        </g>
    </g>
</svg>