<?xml version="1.0" encoding="UTF-8"?>
<svg width="103px" height="103px" viewBox="0 0 103 103" version="1.1" xmlns="http://www.w3.org/2000/svg" xmlns:xlink="http://www.w3.org/1999/xlink">
    <title>29D67B2D-AE1C-480E-8890-E3522A88E6C2</title>
    <g id="Website" stroke="none" stroke-width="1" fill="none" fill-rule="evenodd">
        <g id="Become-a-partner" transform="translate(-289.000000, -526.000000)" fill="#00CCCC" fill-rule="nonzero">
            <g id="graph" transform="translate(289.000000, 526.000000)">
                <path d="M27,72.4 L3,72.4 C1.3429688,72.4 0,73.7429688 0,75.4 L0,99.4 C0,101.057031 1.3429688,102.4 3,102.4 L27,102.4 C28.6570312,102.4 30,101.057031 30,99.4 C30,98.3453124 30,76.4523438 30,75.4 C30,73.7429688 28.6570312,72.4 27,72.4 Z M24,78.4 L24,84.4 L6,84.4 L6,78.4 L24,78.4 Z M24,96.4 L6,96.4 L6,90.4 L24,90.4 L24,96.4 Z" id="Shape"></path>
                <path d="M63.2,60.4 L39.2,60.4 C37.5429688,60.4 36.2,61.7429688 36.2,63.4 L36.2,99.4 C36.2,101.057031 37.5429688,102.4 39.2,102.4 L63.2,102.4 C64.8570312,102.4 66.2,101.057031 66.2,99.4 C66.2,98.2101562 66.2,65.2554688 66.2,63.4 C66.2,61.7429688 64.8570312,60.4 63.2,60.4 Z M42.2,78.4 L60.2,78.4 L60.2,84.4 L42.2,84.4 L42.2,78.4 Z M60.2,66.4 L60.2,72.4 L42.2,72.4 L42.2,66.4 L60.2,66.4 Z M60.2,96.4 L42.2,96.4 L42.2,90.4 L60.2,90.4 L60.2,96.4 Z" id="Shape"></path>
                <path d="M99.4,36.4 L75.4,36.4 C73.7429688,36.4 72.4,37.7429688 72.4,39.4 L72.4,99.4 C72.4,101.057031 73.7429688,102.4 75.4,102.4 L99.4,102.4 C101.057031,102.4 102.4,101.057031 102.4,99.4 C102.4,98.2101562 102.4,40.4523438 102.4,39.4 C102.4,37.7429688 101.057031,36.4 99.4,36.4 Z M78.4,72.4 L78.4,66.4 L96.4,66.4 L96.4,72.4 L78.4,72.4 Z M96.4,60.4 L78.4,60.4 L78.4,54.4 L96.4,54.4 L96.4,60.4 Z M78.4,78.4 L96.4,78.4 L96.4,84.4 L78.4,84.4 L78.4,78.4 Z M96.4,42.4 L96.4,48.4 L78.4,48.4 L78.4,42.4 L96.4,42.4 Z M96.4,96.4 L78.4,96.4 L78.4,90.4 L96.4,90.4 L96.4,96.4 Z" id="Shape"></path>
                <path d="M15.2,54.2 C15.9679688,54.2 16.7359376,53.9070312 17.3210938,53.3210938 L39.2,31.4429688 L49.0789062,41.3210938 C50.253125,42.4953124 52.1570312,42.4921876 53.3273438,41.315625 L84.2,10.2710938 L84.2,15 C84.2,16.6570312 85.5429688,18 87.2,18 C88.8570312,18 90.2,16.6570312 90.2,15 L90.2,3 C90.2,2.9984376 90.2,2.996875 90.2,2.9960938 C90.1976562,1.4179688 88.95,0.0515624 87.2851562,0.00390624 C87.25625,0.00390624 87.2289062,5.68434189e-15 87.2,5.68434189e-15 L75.2,5.68434189e-15 C73.5429688,5.68434189e-15 72.2,1.3429688 72.2,3 C72.2,4.6570312 73.5429688,6 75.2,6 L79.9859376,6 L51.1945312,34.9515624 L41.3210938,25.0789062 C40.15,23.9070312 38.2507812,23.9070312 37.0789062,25.0789062 L13.0789062,49.0789062 C11.9070312,50.25 11.9070312,52.1492188 13.0789062,53.3210938 C13.6640624,53.9070312 14.4320312,54.2 15.2,54.2 Z" id="Path"></path>
            </g>
        </g>
    </g>
</svg>