<?xml version="1.0" encoding="UTF-8"?>
<svg width="150px" height="45px" viewBox="0 0 150 45" version="1.1" xmlns="http://www.w3.org/2000/svg" xmlns:xlink="http://www.w3.org/1999/xlink">
    <title>ED79C1AC-728F-45E5-BC7C-BFD8297566A3</title>
    <g id="Website" stroke="none" stroke-width="1" fill="none" fill-rule="evenodd">
        <g id="Homepage" transform="translate(-165.000000, -2625.000000)" fill-rule="nonzero">
            <g id="download-(9)" transform="translate(165.000000, 2625.000000)">
                <path d="M150,40.5 C150,43.0384615 148.038462,45 145.730769,45 L4.26923077,45 C1.96153846,45 0,43.0384615 0,40.5 L0,4.5 C0,2.07692308 1.96153846,0 4.26923077,0 L145.615385,0 C148.038462,0 149.884615,2.07692308 149.884615,4.5 L150,40.5" id="Path" fill="#000000"></path>
                <path d="M32.8846154,22.2692308 C32.8846154,18.6923077 35.8846154,16.8461538 36,16.8461538 C34.2692308,14.3076923 31.6153846,14.0769231 30.6923077,13.9615385 C28.5,13.7307692 26.3076923,15.2307692 25.1538462,15.2307692 C24,15.2307692 22.2692308,13.9615385 20.4230769,13.9615385 C18,13.9615385 15.8076923,15.3461538 14.5384615,17.5384615 C12,21.9230769 13.8461538,28.5 16.3846154,32.0769231 C17.6538462,33.8076923 19.0384615,35.7692308 20.8846154,35.7692308 C22.7307692,35.6538462 23.4230769,34.6153846 25.6153846,34.6153846 C27.8076923,34.6153846 28.5,35.7692308 30.3461538,35.7692308 C32.3076923,35.7692308 33.5769231,34.0384615 34.7307692,32.1923077 C36.1153846,30.2307692 36.6923077,28.1538462 36.6923077,28.1538462 C36.6923077,28.0384615 33,26.6538462 32.8846154,22.2692308" id="Path" fill="#FFFFFF"></path>
                <path d="M29.3076923,11.5384615 C30.3461538,10.2692308 30.9230769,8.65384615 30.8076923,6.92307692 C29.4230769,7.03846154 27.5769231,7.96153846 26.5384615,9.11538462 C25.6153846,10.1538462 24.8076923,11.8846154 25.0384615,13.5 C26.6538462,13.7307692 28.2692308,12.8076923 29.3076923,11.5384615" id="Path" fill="#FFFFFF"></path>
                <path d="M59.4230769,35.4230769 L56.8846154,35.4230769 L55.5,31.0384615 L50.6538462,31.0384615 L49.2692308,35.4230769 L46.7307692,35.4230769 L51.5769231,20.4230769 L54.5769231,20.4230769 L59.4230769,35.4230769 Z M55.0384615,29.1923077 L53.7692308,25.2692308 C53.6538462,24.9230769 53.4230769,23.8846154 52.9615385,22.5 L52.9615385,22.5 C52.8461538,23.1923077 52.6153846,24.1153846 52.2692308,25.2692308 L51,29.1923077 L55.0384615,29.1923077 Z" id="Shape" fill="#FFFFFF"></path>
                <path d="M71.8846154,29.8846154 C71.8846154,31.7307692 71.4230769,33.2307692 70.3846154,34.2692308 C69.4615385,35.1923077 68.4230769,35.6538462 67.0384615,35.6538462 C65.6538462,35.6538462 64.6153846,35.1923077 63.9230769,34.1538462 L63.9230769,39.8076923 L61.5,39.8076923 L61.5,28.2692308 C61.5,27.1153846 61.5,25.9615385 61.3846154,24.6923077 L63.4615385,24.6923077 L63.5769231,26.4230769 L63.5769231,26.4230769 C64.3846154,25.1538462 65.5384615,24.4615385 67.2692308,24.4615385 C68.5384615,24.4615385 69.5769231,24.9230769 70.5,25.9615385 C71.4230769,27 71.8846154,28.2692308 71.8846154,29.8846154 M69.3461538,30 C69.3461538,28.9615385 69.1153846,28.0384615 68.6538462,27.3461538 C68.0769231,26.6538462 67.3846154,26.3076923 66.5769231,26.3076923 C66,26.3076923 65.4230769,26.5384615 64.9615385,26.8846154 C64.5,27.2307692 64.1538462,27.8076923 64.0384615,28.3846154 C63.9230769,28.7307692 63.9230769,28.9615385 63.9230769,29.0769231 L63.9230769,30.9230769 C63.9230769,31.7307692 64.1538462,32.4230769 64.6153846,32.8846154 C65.0769231,33.4615385 65.7692308,33.6923077 66.4615385,33.6923077 C67.3846154,33.6923077 68.0769231,33.3461538 68.5384615,32.6538462 C69.1153846,32.0769231 69.3461538,31.1538462 69.3461538,30" id="Shape" fill="#FFFFFF"></path>
                <path d="M84.2307692,29.8846154 C84.2307692,31.7307692 83.7692308,33.2307692 82.7307692,34.2692308 C81.9230769,35.1923077 80.7692308,35.7692308 79.5,35.7692308 C78.1153846,35.7692308 77.0769231,35.3076923 76.3846154,34.2692308 L76.3846154,39.9230769 L73.9615385,39.9230769 L73.9615385,28.2692308 C73.9615385,27.1153846 73.9615385,25.9615385 73.8461538,24.6923077 L75.9230769,24.6923077 L76.0384615,26.4230769 L76.0384615,26.4230769 C76.8461538,25.1538462 78,24.4615385 79.7307692,24.4615385 C81,24.4615385 82.0384615,24.9230769 82.9615385,25.9615385 C83.8846154,27 84.2307692,28.2692308 84.2307692,29.8846154 M81.8076923,30 C81.8076923,28.9615385 81.5769231,28.0384615 81.1153846,27.3461538 C80.6538462,26.6538462 79.8461538,26.3076923 79.0384615,26.3076923 C78.4615385,26.3076923 77.8846154,26.5384615 77.4230769,26.8846154 C76.9615385,27.2307692 76.6153846,27.8076923 76.5,28.3846154 C76.3846154,28.7307692 76.3846154,28.9615385 76.3846154,29.0769231 L76.3846154,30.9230769 C76.3846154,31.7307692 76.6153846,32.4230769 77.0769231,32.8846154 C77.5384615,33.4615385 78.2307692,33.6923077 78.9230769,33.6923077 C79.8461538,33.6923077 80.5384615,33.3461538 81,32.6538462 C81.5769231,32.0769231 81.8076923,31.1538462 81.8076923,30" id="Shape" fill="#FFFFFF"></path>
                <path d="M98.1923077,31.2692308 C98.1923077,32.5384615 97.7307692,33.5769231 96.8076923,34.3846154 C95.8846154,35.3076923 94.5,35.6538462 92.7692308,35.6538462 C91.1538462,35.6538462 89.8846154,35.3076923 88.8461538,34.7307692 L89.4230769,32.7692308 C90.4615385,33.3461538 91.6153846,33.6923077 92.8846154,33.6923077 C93.8076923,33.6923077 94.5,33.4615385 94.9615385,33.1153846 C95.4230769,32.6538462 95.7692308,32.1923077 95.7692308,31.5 C95.7692308,30.9230769 95.5384615,30.3461538 95.1923077,30 C94.7307692,29.5384615 94.0384615,29.1923077 93.1153846,28.8461538 C90.4615385,27.9230769 89.1923077,26.4230769 89.1923077,24.5769231 C89.1923077,23.3076923 89.6538462,22.3846154 90.5769231,21.5769231 C91.5,20.7692308 92.7692308,20.4230769 94.2692308,20.4230769 C95.6538462,20.4230769 96.8076923,20.6538462 97.6153846,21.1153846 L97.0384615,23.0769231 C96.2307692,22.6153846 95.1923077,22.3846154 94.1538462,22.3846154 C93.3461538,22.3846154 92.6538462,22.6153846 92.1923077,22.9615385 C91.8461538,23.3076923 91.6153846,23.7692308 91.6153846,24.3461538 C91.6153846,24.9230769 91.8461538,25.3846154 92.3076923,25.8461538 C92.6538462,26.1923077 93.4615385,26.5384615 94.5,27 C95.7692308,27.5769231 96.6923077,28.1538462 97.3846154,28.8461538 C97.8461538,29.3076923 98.1923077,30.2307692 98.1923077,31.2692308" id="Path" fill="#FFFFFF"></path>
                <path d="M106.153846,26.4230769 L103.5,26.4230769 L103.5,31.7307692 C103.5,33.1153846 103.961538,33.6923077 104.884615,33.6923077 C105.346154,33.6923077 105.692308,33.6923077 105.923077,33.5769231 L106.038462,35.4230769 C105.576923,35.6538462 104.884615,35.6538462 104.192308,35.6538462 C103.269231,35.6538462 102.461538,35.3076923 102,34.7307692 C101.423077,34.1538462 101.192308,33.2307692 101.192308,31.8461538 L101.192308,26.4230769 L99.5769231,26.4230769 L99.5769231,24.5769231 L101.192308,24.5769231 L101.192308,22.6153846 L103.5,21.9230769 L103.5,24.5769231 L106.153846,24.5769231 L106.153846,26.4230769 Z" id="Path" fill="#FFFFFF"></path>
                <path d="M118.038462,30 C118.038462,31.6153846 117.576923,33 116.653846,34.0384615 C115.615385,35.1923077 114.346154,35.6538462 112.730769,35.6538462 C111.115385,35.6538462 109.846154,35.0769231 108.923077,34.0384615 C108,33 107.538462,31.6153846 107.538462,30 C107.538462,28.2692308 108,27 109.038462,25.8461538 C109.961538,24.8076923 111.346154,24.2307692 112.961538,24.2307692 C114.576923,24.2307692 115.846154,24.8076923 116.769231,25.8461538 C117.576923,27 118.038462,28.3846154 118.038462,30 M115.615385,30 C115.615385,28.9615385 115.384615,28.1538462 114.923077,27.4615385 C114.461538,26.6538462 113.653846,26.1923077 112.730769,26.1923077 C111.807692,26.1923077 111,26.6538462 110.538462,27.4615385 C110.076923,28.1538462 109.846154,29.0769231 109.846154,30 C109.846154,31.0384615 110.076923,31.8461538 110.538462,32.5384615 C111.115385,33.3461538 111.807692,33.8076923 112.730769,33.8076923 C113.653846,33.8076923 114.346154,33.3461538 114.923077,32.5384615 C115.384615,31.8461538 115.615385,31.0384615 115.615385,30" id="Shape" fill="#FFFFFF"></path>
                <path d="M125.884615,26.7692308 C125.653846,26.7692308 125.423077,26.6538462 125.076923,26.6538462 C124.269231,26.6538462 123.576923,27 123.115385,27.5769231 C122.769231,28.1538462 122.538462,28.8461538 122.538462,29.7692308 L122.538462,35.4230769 L120.115385,35.4230769 L120.115385,28.0384615 C120.115385,26.7692308 120.115385,25.6153846 120,24.6923077 L122.076923,24.6923077 L122.192308,26.7692308 L122.307692,26.7692308 C122.538462,26.0769231 123,25.5 123.461538,25.0384615 C124.038462,24.6923077 124.615385,24.4615385 125.192308,24.4615385 C125.423077,24.4615385 125.653846,24.4615385 125.769231,24.4615385 L125.884615,26.7692308 Z" id="Path" fill="#FFFFFF"></path>
                <path d="M136.615385,29.5384615 C136.615385,30 136.615385,30.3461538 136.5,30.5769231 L129.346154,30.5769231 C129.346154,31.6153846 129.692308,32.4230769 130.384615,33 C130.961538,33.4615385 131.769231,33.8076923 132.692308,33.8076923 C133.730769,33.8076923 134.769231,33.6923077 135.576923,33.3461538 L135.923077,34.9615385 C134.884615,35.4230769 133.730769,35.6538462 132.346154,35.6538462 C130.615385,35.6538462 129.346154,35.1923077 128.423077,34.1538462 C127.5,33.1153846 127.038462,31.8461538 127.038462,30.2307692 C127.038462,28.6153846 127.5,27.2307692 128.423077,26.1923077 C129.346154,25.0384615 130.615385,24.4615385 132.230769,24.4615385 C133.846154,24.4615385 135,25.0384615 135.807692,26.1923077 C136.269231,27.1153846 136.615385,28.1538462 136.615385,29.5384615 M134.307692,28.9615385 C134.307692,28.2692308 134.192308,27.6923077 133.846154,27.1153846 C133.384615,26.4230769 132.807692,26.0769231 131.884615,26.0769231 C131.076923,26.0769231 130.5,26.4230769 129.923077,27 C129.576923,27.5769231 129.230769,28.1538462 129.230769,28.8461538 L134.307692,28.8461538 L134.307692,28.9615385 Z" id="Shape" fill="#FFFFFF"></path>
                <path d="M53.8846154,15.1153846 L52.6153846,15.1153846 L51.9230769,12.9230769 L49.6153846,12.9230769 L48.9230769,15.1153846 L47.6538462,15.1153846 L50.0769231,7.73076923 L51.5769231,7.73076923 L53.8846154,15.1153846 Z M51.8076923,12 L51.2307692,10.0384615 C51.1153846,9.80769231 51,9.34615385 50.8846154,8.65384615 L50.8846154,8.65384615 C50.7692308,9 50.6538462,9.46153846 50.5384615,10.0384615 L49.9615385,12 L51.8076923,12 Z" id="Shape" fill="#FFFFFF"></path>
                <path d="M59.8846154,9.80769231 L57.9230769,15.1153846 L56.7692308,15.1153846 L54.8076923,9.80769231 L56.0769231,9.80769231 L57,12.5769231 C57.1153846,13.0384615 57.2307692,13.5 57.3461538,13.9615385 L57.3461538,13.9615385 C57.4615385,13.6153846 57.5769231,13.1538462 57.6923077,12.5769231 L58.6153846,9.80769231 L59.8846154,9.80769231 Z" id="Path" fill="#FFFFFF"></path>
                <path d="M65.1923077,15.1153846 L64.1538462,15.1153846 L64.0384615,14.5384615 L64.0384615,14.5384615 C63.6923077,15 63.1153846,15.2307692 62.5384615,15.2307692 C62.0769231,15.2307692 61.6153846,15.1153846 61.2692308,14.7692308 C61.0384615,14.4230769 60.8076923,14.0769231 60.8076923,13.7307692 C60.8076923,13.0384615 61.0384615,12.5769231 61.6153846,12.2307692 C62.1923077,11.8846154 62.8846154,11.7692308 63.9230769,11.7692308 L63.9230769,11.5384615 C63.9230769,10.8461538 63.5769231,10.5 62.7692308,10.5 C62.1923077,10.5 61.7307692,10.6153846 61.3846154,10.8461538 L61.1538462,10.0384615 C61.6153846,9.69230769 62.3076923,9.57692308 63,9.57692308 C64.3846154,9.57692308 65.0769231,10.2692308 65.0769231,11.7692308 L65.0769231,13.8461538 C65.0769231,14.4230769 65.1923077,14.7692308 65.1923077,15.1153846 M63.9230769,13.2692308 L63.9230769,12.4615385 C62.6538462,12.4615385 61.9615385,12.8076923 61.9615385,13.5 C61.9615385,13.7307692 62.0769231,13.9615385 62.1923077,14.0769231 C62.3076923,14.1923077 62.5384615,14.3076923 62.7692308,14.3076923 C63,14.3076923 63.2307692,14.1923077 63.4615385,14.0769231 C63.6923077,13.9615385 63.8076923,13.7307692 63.9230769,13.5 L63.9230769,13.2692308 Z" id="Shape" fill="#FFFFFF"></path>
                <path d="M68.5384615,8.19230769 C68.5384615,8.42307692 68.4230769,8.53846154 68.3076923,8.65384615 C68.1923077,8.76923077 67.9615385,8.88461538 67.7307692,8.88461538 C67.5,8.88461538 67.3846154,8.76923077 67.2692308,8.65384615 C67.1538462,8.53846154 67.0384615,8.30769231 67.0384615,8.19230769 C67.0384615,7.96153846 67.1538462,7.84615385 67.2692308,7.73076923 C67.3846154,7.61538462 67.6153846,7.5 67.7307692,7.5 C67.9615385,7.5 68.0769231,7.61538462 68.1923077,7.73076923 C68.4230769,7.84615385 68.5384615,7.96153846 68.5384615,8.19230769 M68.3076923,15.1153846 L67.1538462,15.1153846 L67.1538462,9.80769231 L68.3076923,9.80769231 L68.3076923,15.1153846 Z" id="Shape" fill="#FFFFFF"></path>
                <rect id="Rectangle" fill="#FFFFFF" x="70.5" y="7.38461538" width="1.15384615" height="7.73076923"></rect>
                <path d="M77.7692308,15.1153846 L76.7307692,15.1153846 L76.6153846,14.5384615 L76.6153846,14.5384615 C76.1538462,15 75.6923077,15.2307692 75,15.2307692 C74.5384615,15.2307692 74.0769231,15.1153846 73.7307692,14.7692308 C73.5,14.4230769 73.2692308,14.0769231 73.2692308,13.7307692 C73.2692308,13.0384615 73.5,12.5769231 74.0769231,12.2307692 C74.6538462,11.8846154 75.3461538,11.7692308 76.3846154,11.7692308 L76.3846154,11.5384615 C76.3846154,10.8461538 76.0384615,10.5 75.2307692,10.5 C74.6538462,10.5 74.1923077,10.6153846 73.8461538,10.8461538 L73.6153846,10.0384615 C74.0769231,9.69230769 74.7692308,9.57692308 75.4615385,9.57692308 C76.8461538,9.57692308 77.5384615,10.2692308 77.5384615,11.7692308 L77.5384615,13.8461538 C77.6538462,14.4230769 77.6538462,14.7692308 77.7692308,15.1153846 M76.5,13.2692308 L76.5,12.4615385 C75.2307692,12.4615385 74.5384615,12.8076923 74.5384615,13.5 C74.5384615,13.7307692 74.6538462,13.9615385 74.7692308,14.0769231 C74.8846154,14.1923077 75.1153846,14.3076923 75.3461538,14.3076923 C75.5769231,14.3076923 75.8076923,14.1923077 76.0384615,14.0769231 C76.2692308,13.9615385 76.3846154,13.7307692 76.5,13.5 L76.5,13.2692308 Z" id="Shape" fill="#FFFFFF"></path>
                <path d="M84.8076923,12.3461538 C84.8076923,13.2692308 84.5769231,13.9615385 84.1153846,14.5384615 C83.6538462,15 83.1923077,15.2307692 82.5,15.2307692 C81.6923077,15.2307692 81.2307692,14.8846154 80.8846154,14.3076923 L80.8846154,14.3076923 L80.7692308,15.1153846 L79.6153846,15.1153846 C79.6153846,14.6538462 79.6153846,14.1923077 79.6153846,13.7307692 L79.6153846,7.38461538 L80.7692308,7.38461538 L80.7692308,10.6153846 C81.1153846,10.0384615 81.6923077,9.69230769 82.5,9.69230769 C83.1923077,9.69230769 83.6538462,9.92307692 84.1153846,10.3846154 C84.5769231,10.9615385 84.8076923,11.5384615 84.8076923,12.3461538 M83.5384615,12.4615385 C83.5384615,12 83.4230769,11.5384615 83.1923077,11.1923077 C82.9615385,10.8461538 82.6153846,10.6153846 82.1538462,10.6153846 C81.8076923,10.6153846 81.5769231,10.7307692 81.3461538,10.8461538 C81.1153846,11.0769231 81,11.3076923 80.8846154,11.6538462 C80.8846154,11.7692308 80.8846154,11.8846154 80.8846154,12 L80.8846154,12.9230769 C80.8846154,13.2692308 81,13.6153846 81.2307692,13.8461538 C81.4615385,14.0769231 81.8076923,14.1923077 82.1538462,14.1923077 C82.6153846,14.1923077 82.9615385,14.0769231 83.1923077,13.7307692 C83.4230769,13.5 83.5384615,13.0384615 83.5384615,12.4615385" id="Shape" fill="#FFFFFF"></path>
                <rect id="Rectangle" fill="#FFFFFF" x="86.5384615" y="7.38461538" width="1.15384615" height="7.73076923"></rect>
                <path d="M94.1538462,12.2307692 C94.1538462,12.4615385 94.1538462,12.5769231 94.1538462,12.8076923 L90.5769231,12.8076923 C90.5769231,13.3846154 90.8076923,13.7307692 91.0384615,13.9615385 C91.3846154,14.1923077 91.7307692,14.3076923 92.1923077,14.3076923 C92.7692308,14.3076923 93.2307692,14.1923077 93.5769231,14.0769231 L93.8076923,14.8846154 C93.3461538,15.1153846 92.7692308,15.2307692 92.0769231,15.2307692 C91.2692308,15.2307692 90.5769231,15 90.1153846,14.5384615 C89.6538462,14.0769231 89.4230769,13.3846154 89.4230769,12.5769231 C89.4230769,11.7692308 89.6538462,11.0769231 90.1153846,10.6153846 C90.5769231,10.0384615 91.1538462,9.80769231 91.9615385,9.80769231 C92.7692308,9.80769231 93.3461538,10.0384615 93.6923077,10.6153846 C94.0384615,10.9615385 94.1538462,11.5384615 94.1538462,12.2307692 M93,11.8846154 C93,11.5384615 92.8846154,11.1923077 92.7692308,10.9615385 C92.5384615,10.6153846 92.3076923,10.5 91.8461538,10.5 C91.5,10.5 91.1538462,10.6153846 90.9230769,10.9615385 C90.6923077,11.1923077 90.5769231,11.5384615 90.5769231,11.8846154 L93,11.8846154 Z" id="Shape" fill="#FFFFFF"></path>
                <path d="M103.961538,12.4615385 C103.961538,13.2692308 103.730769,13.9615385 103.269231,14.4230769 C102.807692,15 102.115385,15.2307692 101.307692,15.2307692 C100.5,15.2307692 99.9230769,15 99.4615385,14.4230769 C99,13.9615385 98.7692308,13.2692308 98.7692308,12.4615385 C98.7692308,11.6538462 99,10.9615385 99.4615385,10.3846154 C99.9230769,9.80769231 100.615385,9.57692308 101.423077,9.57692308 C102.230769,9.57692308 102.807692,9.80769231 103.269231,10.3846154 C103.730769,10.9615385 103.961538,11.6538462 103.961538,12.4615385 M102.692308,12.4615385 C102.692308,12 102.576923,11.5384615 102.346154,11.1923077 C102.115385,10.7307692 101.769231,10.6153846 101.307692,10.6153846 C100.846154,10.6153846 100.5,10.8461538 100.269231,11.1923077 C100.038462,11.5384615 99.9230769,12 99.9230769,12.4615385 C99.9230769,12.9230769 100.038462,13.3846154 100.269231,13.7307692 C100.5,14.1923077 100.846154,14.3076923 101.307692,14.3076923 C101.769231,14.3076923 102.115385,14.0769231 102.346154,13.6153846 C102.576923,13.3846154 102.692308,12.9230769 102.692308,12.4615385" id="Shape" fill="#FFFFFF"></path>
                <path d="M110.307692,15.1153846 L109.153846,15.1153846 L109.153846,12.1153846 C109.153846,11.1923077 108.807692,10.7307692 108.115385,10.7307692 C107.769231,10.7307692 107.538462,10.8461538 107.307692,11.0769231 C107.076923,11.3076923 106.961538,11.6538462 106.961538,12 L106.961538,15.1153846 L105.807692,15.1153846 L105.807692,11.3076923 C105.807692,10.8461538 105.807692,10.3846154 105.807692,9.80769231 L106.846154,9.80769231 L106.846154,10.6153846 L106.846154,10.6153846 C106.961538,10.3846154 107.192308,10.1538462 107.423077,10.0384615 C107.769231,9.80769231 108.115385,9.69230769 108.461538,9.69230769 C108.923077,9.69230769 109.384615,9.80769231 109.730769,10.1538462 C110.192308,10.5 110.307692,11.0769231 110.307692,11.8846154 L110.307692,15.1153846 Z" id="Path" fill="#FFFFFF"></path>
                <path d="M118.038462,10.7307692 L116.769231,10.7307692 L116.769231,13.2692308 C116.769231,13.9615385 117,14.3076923 117.461538,14.3076923 C117.692308,14.3076923 117.807692,14.3076923 118.038462,14.3076923 L118.038462,15.2307692 C117.807692,15.3461538 117.461538,15.3461538 117.115385,15.3461538 C116.653846,15.3461538 116.307692,15.2307692 116.076923,14.8846154 C115.846154,14.6538462 115.730769,14.0769231 115.730769,13.5 L115.730769,10.7307692 L114.923077,10.7307692 L114.923077,9.80769231 L115.730769,9.80769231 L115.730769,8.76923077 L116.884615,8.42307692 L116.884615,9.69230769 L118.153846,9.69230769 L118.153846,10.7307692 L118.038462,10.7307692 Z" id="Path" fill="#FFFFFF"></path>
                <path d="M124.269231,15.1153846 L123.115385,15.1153846 L123.115385,12.1153846 C123.115385,11.1923077 122.769231,10.7307692 122.076923,10.7307692 C121.5,10.7307692 121.153846,10.9615385 120.923077,11.5384615 C120.923077,11.6538462 120.923077,11.7692308 120.923077,12 L120.923077,15.2307692 L119.769231,15.2307692 L119.769231,7.38461538 L120.923077,7.38461538 L120.923077,10.6153846 L120.923077,10.6153846 C121.269231,10.0384615 121.846154,9.80769231 122.538462,9.80769231 C123,9.80769231 123.461538,9.92307692 123.807692,10.2692308 C124.153846,10.6153846 124.384615,11.3076923 124.384615,12 L124.384615,15.1153846 L124.269231,15.1153846 Z" id="Path" fill="#FFFFFF"></path>
                <path d="M130.384615,12.2307692 C130.384615,12.4615385 130.384615,12.5769231 130.384615,12.8076923 L126.807692,12.8076923 C126.807692,13.3846154 127.038462,13.7307692 127.269231,13.9615385 C127.615385,14.1923077 127.961538,14.3076923 128.423077,14.3076923 C129,14.3076923 129.461538,14.1923077 129.807692,14.0769231 L130.038462,14.8846154 C129.576923,15.1153846 128.884615,15.2307692 128.307692,15.2307692 C127.5,15.2307692 126.807692,15 126.346154,14.5384615 C125.884615,14.0769231 125.653846,13.3846154 125.653846,12.5769231 C125.653846,11.7692308 125.884615,11.0769231 126.346154,10.6153846 C126.807692,10.0384615 127.384615,9.80769231 128.192308,9.80769231 C129,9.80769231 129.576923,10.0384615 129.923077,10.6153846 C130.153846,10.9615385 130.384615,11.5384615 130.384615,12.2307692 M129.230769,11.8846154 C129.230769,11.5384615 129.115385,11.1923077 129,10.9615385 C128.769231,10.6153846 128.538462,10.5 128.076923,10.5 C127.730769,10.5 127.384615,10.6153846 127.153846,10.9615385 C126.923077,11.1923077 126.807692,11.5384615 126.807692,11.8846154 L129.230769,11.8846154 Z" id="Shape" fill="#FFFFFF"></path>
            </g>
        </g>
    </g>
</svg>