<?xml version="1.0" encoding="UTF-8"?>
<svg width="38px" height="24px" viewBox="0 0 38 24" version="1.1" xmlns="http://www.w3.org/2000/svg" xmlns:xlink="http://www.w3.org/1999/xlink">
    <title>39B261B4-7D4D-423F-975A-44BD2DA396E6</title>
    <g id="Website" stroke="none" stroke-width="1" fill="none" fill-rule="evenodd">
        <g id="About-us" transform="translate(-165.000000, -1262.000000)" fill-rule="nonzero">
            <g id="Group-6" transform="translate(165.000000, 1262.000000)">
                <g id="cash-color">
                    <rect id="Rectangle" fill="#26AF61" x="0.5" y="0.5" width="37" height="23" rx="4.5"></rect>
                    <path d="M33,1 C35.209139,1 37,2.790861 37,5 L37,19 C37,21.209139 35.209139,23 33,23 L5,23 C2.790861,23 1,21.209139 1,19 L1,5 C1,2.790861 2.790861,1 5,1 L33,1 M33,0 L5,0 C2.23857625,0 0,2.23857625 0,5 L0,19 C0,21.7614237 2.23857625,24 5,24 L33,24 C35.7614237,24 38,21.7614237 38,19 L38,5 C38,2.23857625 35.7614237,0 33,0 Z" id="Shape" fill="#25A559"></path>
                    <circle id="Oval" fill="#FFFFFF" cx="19" cy="12" r="6"></circle>
                </g>
            </g>
        </g>
    </g>
</svg>