<?xml version="1.0" encoding="UTF-8"?>
<svg width="38px" height="24px" viewBox="0 0 38 24" version="1.1" xmlns="http://www.w3.org/2000/svg" xmlns:xlink="http://www.w3.org/1999/xlink">
    <title>2671550A-FE84-4873-87B0-E0D934FF1818</title>
    <g id="Website" stroke="none" stroke-width="1" fill="none" fill-rule="evenodd">
        <g id="About-us" transform="translate(-291.000000, -1262.000000)" fill-rule="nonzero">
            <g id="Group-6" transform="translate(165.000000, 1262.000000)">
                <g id="visa-color" transform="translate(126.000000, 0.000000)">
                    <rect id="Rectangle" fill="#122A96" x="0" y="0" width="38" height="24" rx="5"></rect>
                    <path d="M15.76,8.56 L12.89,15.45 L11,15.45 L9.61,10 C9.58715894,9.73690328 9.42763129,9.50520837 9.19,9.39 C8.63566257,9.12450377 8.05149421,8.92642369 7.45,8.8 L7.45,8.6 L10.45,8.6 C10.8599803,8.60482669 11.2065747,8.90492666 11.27,9.31 L12.01,13.31 L13.85,8.62 L15.76,8.56 Z M23.09,13.2 C23.09,11.39 20.59,11.29 20.61,10.47 C20.61,10.23 20.85,9.96 21.36,9.9 C21.9597514,9.83927025 22.5647202,9.94297918 23.11,10.2 L23.42,8.74 C22.8880115,8.54537299 22.3264595,8.44388769 21.76,8.44 C20.01,8.44 18.76,9.37 18.76,10.72 C18.76,11.72 19.64,12.26 20.31,12.59 C20.98,12.92 21.23,13.15 21.23,13.45 C21.23,13.91 20.68,14.11 20.17,14.12 C19.5363329,14.1366908 18.9091941,13.9885207 18.35,13.69 L18,15.2 C18.6379417,15.4452557 19.3165784,15.5674103 20,15.56 C21.86,15.56 23.07,14.64 23.08,13.2 M27.7,15.45 L29.33,15.45 L27.91,8.55999955 L26.41,8.55999955 C26.0765329,8.55965207 25.7760667,8.76128069 25.65,9.07 L23,15.45 L24.86,15.45 L25.22,14.45 L27.49,14.45 L27.7,15.45 Z M25.7,13.01 L26.64,10.43 L27.2,13 L25.7,13.01 Z M18.26,8.56 L16.8,15.45 L15.06,15.45 L16.52,8.56 L18.26,8.56 Z" id="Shape" fill="#FFFFFF"></path>
                </g>
            </g>
        </g>
    </g>
</svg>