<?xml version="1.0" encoding="UTF-8"?>
<svg width="38px" height="24px" viewBox="0 0 38 24" version="1.1" xmlns="http://www.w3.org/2000/svg" xmlns:xlink="http://www.w3.org/1999/xlink">
    <title>A6C6E194-BD45-42F2-9F07-6B5C94D90746</title>
    <g id="Website" stroke="none" stroke-width="1" fill="none" fill-rule="evenodd">
        <g id="About-us" transform="translate(-354.000000, -1262.000000)" fill-rule="nonzero">
            <g id="Group-6" transform="translate(165.000000, 1262.000000)">
                <g id="mastercard-color" transform="translate(189.000000, 0.000000)">
                    <rect id="Rectangle" fill="#FFFFFF" x="0.5" y="0.5" width="37" height="23" rx="4.5"></rect>
                    <path d="M33,1 C35.209139,1 37,2.790861 37,5 L37,19 C37,21.209139 35.209139,23 33,23 L5,23 C2.790861,23 1,21.209139 1,19 L1,5 C1,2.790861 2.790861,1 5,1 L33,1 M33,0 L5,0 C2.23857625,0 0,2.23857625 0,5 L0,19 C0,21.7614237 2.23857625,24 5,24 L33,24 C35.7614237,24 38,21.7614237 38,19 L38,5 C38,2.23857625 35.7614237,0 33,0 Z" id="Shape" fill="#E0E0E0"></path>
                    <path d="M27.31,12 C27.3080636,13.9739564 26.0855,15.7409877 24.2389669,16.438715 C22.3924339,17.1364423 20.3068261,16.6194301 19,15.14 C20.5856339,13.3469336 20.5856339,10.6530664 19,8.86 C20.3068261,7.38056994 22.3924339,6.86355767 24.2389669,7.56128497 C26.0855,8.25901227 27.3080636,10.0260436 27.31,12 L27.31,12 Z" id="Path" fill="#F79E1B"></path>
                    <ellipse id="Oval" fill="#FF5F00" cx="19" cy="12" rx="1.19" ry="3.14"></ellipse>
                    <path d="M17.81,12 C17.8120536,13.1564733 18.2350616,14.2726455 19,15.14 C17.6937958,16.6226302 15.6061567,17.1417769 13.7576494,16.4436492 C11.9091421,15.7455214 10.6858872,13.9759458 10.6858872,12 C10.6858872,10.0240542 11.9091421,8.2544786 13.7576494,7.55635084 C15.6061567,6.85822307 17.6937958,7.37736976 19,8.86 C18.2350616,9.7273545 17.8120536,10.8435267 17.81,12 Z" id="Path" fill="#EB001B"></path>
                </g>
            </g>
        </g>
    </g>
</svg>