<?xml version="1.0" encoding="UTF-8"?>
<svg width="375px" height="282px" viewBox="0 0 375 282" version="1.1" xmlns="http://www.w3.org/2000/svg" xmlns:xlink="http://www.w3.org/1999/xlink">
    <title>78A4AC3E-2796-474D-B274-4D2450D054CD</title>
    <defs>
        <polygon id="path-1" points="0 0.0748173952 170.465646 0.0748173952 170.465646 18.0429479 0 18.0429479"></polygon>
        <polygon id="path-3" points="0.0767995213 0.280392189 82.1729708 0.280392189 82.1729708 18.2481452 0.0767995213 18.2481452"></polygon>
        <polygon id="path-5" points="0.0828717489 0.00629246385 125.003381 0.00629246385 125.003381 230.05833 0.0828717489 230.05833"></polygon>
        <path d="M2.13943771,0.29668967 C1.06657262,0.29668967 0.196639495,1.16630817 0.196639495,2.23917326 L0.196639495,2.23917326 L0.196639495,187.093198 C0.196639495,188.166063 1.06657262,189.035997 2.13943771,189.035997 L2.13943771,189.035997 L109.103458,189.035997 C110.176637,189.035997 111.04657,188.166063 111.04657,187.093198 L111.04657,187.093198 L111.04657,2.23917326 C111.04657,1.16630817 110.176637,0.29668967 109.103458,0.29668967 L109.103458,0.29668967 L2.13943771,0.29668967 Z" id="path-7"></path>
        <linearGradient x1="-8.65675539e-06%" y1="49.9999289%" x2="99.1630712%" y2="49.9999289%" id="linearGradient-9">
            <stop stop-color="#FFFFFF" offset="0%"></stop>
            <stop stop-color="#ECEEFC" offset="100%"></stop>
        </linearGradient>
        <path d="M2.4377005,7.34550767 C0.827773619,11.0338354 0.0125849277,16.0344564 0.0125849277,22.207678 L0.0125849277,22.207678 C0.0125849277,29.076217 1.0785283,37.0604097 2.89138714,43.9412189 L2.89138714,43.9412189 C3.05153034,44.5506441 3.21765139,45.1515743 3.3900649,45.7421221 L3.3900649,45.7421221 C4.34809252,49.0277321 5.44203736,51.8382611 6.56933226,53.9135156 L6.56933226,53.9135156 C6.65553901,54.0736588 6.74143114,54.2281388 6.82858177,54.3785287 L6.82858177,54.3785287 C8.48696062,57.2557578 10.2545137,58.6542579 12.2319205,58.6542579 L12.2319205,58.6542579 C14.6630139,58.6542579 16.2644459,56.0601897 17.2573967,54.1088966 L17.2573967,54.1088966 C17.3785267,53.8710415 17.4996566,53.6231184 17.6204719,53.3663859 L17.6204719,53.3663859 C16.8565668,52.0201133 15.6037372,50.9881492 14.1029846,50.5136974 L14.1029846,50.5136974 C13.1481032,52.7698603 12.4364256,53.7414168 12.0818452,54.1306056 L12.0818452,54.1306056 C11.6514407,53.7763399 10.8393982,52.8154807 9.84644743,50.7005836 L9.84644743,50.7005836 C9.77471334,50.5517668 9.70455237,50.3957137 9.63155979,50.2339974 L9.63155979,50.2339974 C8.4677686,47.6320636 7.39049879,44.2080194 6.50546375,40.3041748 L6.50546375,40.3041748 C6.46582123,40.1320759 6.42617871,39.9596624 6.38842392,39.7866197 L6.38842392,39.7866197 C4.37011614,30.6191291 3.83903219,21.1269474 4.96947332,14.3952695 L4.96947332,14.3952695 C6.07191299,7.82530804 8.51464746,4.4943923 12.2319205,4.4943923 L12.2319205,4.4943923 C13.3299554,4.4943923 16.6728268,4.4943923 18.4837979,10.9624159 L18.4837979,10.9624159 C19.9291769,16.1203485 19.9653585,24.1237333 18.639851,32.926261 L18.639851,32.926261 L23.0599923,32.926261 C23.6565178,28.7512112 23.9818382,24.6268158 23.9818382,20.926847 L23.9818382,20.926847 C23.9818382,15.0644731 23.2044043,10.3470129 21.6734479,6.90377671 L21.6734479,6.90377671 C19.1810029,1.29656218 15.1632648,0.11924219 12.2319205,0.11924219 L12.2319205,0.11924219 C9.20146989,0.11924219 5.04403902,1.37364486 2.4377005,7.34550767" id="path-10"></path>
    </defs>
    <g id="Website" stroke="none" stroke-width="1" fill="none" fill-rule="evenodd">
        <g id="Homepage" transform="translate(-991.000000, -159.000000)">
            <g id="Group-2" transform="translate(991.000000, 159.000000)">
                <g id="Group" transform="translate(0.426061, 0.303914)">
                    <g id="Group-3" transform="translate(0.000000, 260.822627)">
                        <mask id="mask-2" fill="white">
                            <use xlink:href="#path-1"></use>
                        </mask>
                        <g id="Clip-2"></g>
                        <path d="M170.465646,9.05888266 C170.465646,14.020805 132.305628,18.0429479 85.2329645,18.0429479 C38.1599863,18.0429479 -3.14623192e-05,14.020805 -3.14623192e-05,9.05888266 C-3.14623192e-05,4.09696029 38.1599863,0.0748173952 85.2329645,0.0748173952 C132.305628,0.0748173952 170.465646,4.09696029 170.465646,9.05888266" id="Fill-1" fill-opacity="0.15" fill="#1A003D" mask="url(#mask-2)"></path>
                    </g>
                    <g id="Group-6" transform="translate(290.082583, 261.451873)">
                        <mask id="mask-4" fill="white">
                            <use xlink:href="#path-3"></use>
                        </mask>
                        <g id="Clip-5"></g>
                        <path d="M82.1730022,9.26414283 C82.1730022,14.2260652 63.7952323,18.2482081 41.1250582,18.2482081 C18.4545694,18.2482081 0.0767995213,14.2260652 0.0767995213,9.26414283 C0.0767995213,4.30253508 18.4545694,0.280392189 41.1250582,0.280392189 C63.7952323,0.280392189 82.1730022,4.30253508 82.1730022,9.26414283" id="Fill-4" fill-opacity="0.15" fill="#1A003D" mask="url(#mask-4)"></path>
                    </g>
                    <path d="M331.207705,229.293576 C331.207705,234.255498 283.954447,238.277641 225.664523,238.277641 C167.374284,238.277641 120.121342,234.255498 120.121342,229.293576 C120.121342,224.331968 167.374284,220.309825 225.664523,220.309825 C283.954447,220.309825 331.207705,224.331968 331.207705,229.293576" id="Fill-7" fill-opacity="0.15" fill="#1A003D"></path>
                    <path d="M249.309494,84.6518869 C251.128331,73.5856454 258.6774,66.7221404 269.510191,64.3108683 C280.342667,61.8999108 276.99193,52.5515118 278.229029,43.2027983 C279.466127,33.8543994 292.028087,29.1800426 300.500261,29.4723276 C308.972434,29.7642979 311.940589,24.7979708 314.984569,18.0785633 C318.028863,11.3594704 330.006568,7.56165381 334.680924,13.6964914 C339.354967,19.8316437 332.602838,27.4272768 328.675712,30.0565828 C324.747956,32.6858888 322.702905,39.3439448 322.702905,45.947571 C322.702905,52.5515118 319.781628,61.6076258 308.972434,62.7761363 C298.162925,63.9449615 294.333646,73.2729099 294.792681,80.3047383 C295.252031,87.3365666 292.320372,99.293821 286.18522,101.631157 C280.050382,103.968178 267.780393,112.045814 267.196452,125.243313 C266.611882,138.440812 249.309494,144.538209 249.309494,144.538209 L249.309494,84.6518869 Z" id="Fill-9" fill="#00CCCC"></path>
                    <path d="M296.870422,95.7881321 C300.075173,87.7447902 308.972403,69.2034162 320.365852,70.3719268 C331.759617,71.5404373 341.692271,68.326876 344.905832,60.438958 C348.119393,52.5513545 360.097098,49.9220485 364.77114,55.4726309 C369.445497,61.0235279 364.186885,69.1738417 359.220558,74.154956 C354.254231,79.1360704 359.512843,93.7430814 352.793435,98.7097231 C346.074343,103.67605 335.907923,104.552276 329.889496,110.395143 C323.871384,116.23801 328.21633,128.560228 317.736546,134.552856 C307.257077,140.546113 291.736086,143.882063 289.10678,158.689803 C286.477474,173.497858 265.373494,184.725816 255.913718,180.718461 L246.454257,176.71142 L246.454257,125.24347 C246.454257,125.24347 250.474198,114.784766 255.913718,109.230408 C261.353239,103.67605 267.581834,102.34834 275.80514,102.464122 C284.028132,102.579588 293.566249,104.08097 296.870422,95.7881321" id="Fill-11" fill="#00CCCC"></path>
                    <path d="M250.491471,117.314462 L250.01167,117.159038 C250.064527,116.997007 255.34296,100.849287 262.184756,92.9619978 C264.594141,90.1851335 267.274416,88.051359 269.866911,85.9877455 C274.811843,82.052124 279.48211,78.3345364 282.201084,70.5683775 C286.504814,58.2766786 293.489135,49.6830607 302.400522,45.7172354 C311.306246,41.7536124 316.379545,29.9096223 316.429885,29.7906948 L316.894898,29.9863904 C316.843614,30.1075203 311.695435,42.1327334 302.605342,46.1781584 C293.824523,50.0857784 286.933646,58.577773 282.677109,70.7348132 C279.910312,78.638777 275.184672,82.4000973 270.181219,86.3825976 C267.606343,88.4320531 264.944631,90.5510403 262.56608,93.2923522 C255.790354,101.103502 250.543698,117.153375 250.491471,117.314462" id="Fill-13" fill="#484847"></path>
                    <path d="M247.989524,156.420206 L247.561951,156.153091 C247.684025,155.956451 259.947408,136.432194 271.138869,129.841153 C274.637165,127.781 279.214617,125.930072 284.060758,123.970284 C294.924383,119.577201 307.237791,114.597974 312.652456,105.284184 C320.751486,91.3548711 333.104222,82.9015752 341.222444,79.8950359 L341.398004,80.3679146 C333.358123,83.3455085 321.119595,91.7239241 313.088838,105.53777 C307.587022,115.001006 295.188981,120.014842 284.249532,124.438129 C279.421325,126.390366 274.860862,128.234687 271.395287,130.275648 C260.308281,136.804708 248.111598,156.224825 247.989524,156.420206" id="Fill-15" fill="#484847"></path>
                    <path d="M274.962642,197.747378 C274.962642,197.747378 323.863896,204.869818 323.887498,215.101679 C323.910775,225.333539 242.224841,235.596548 236.50153,216.518427 C230.777905,197.439991 274.962642,197.747378 274.962642,197.747378" id="Fill-17" fill="#00CCCC"></path>
                    <path d="M239.965122,213.850611 C250.954281,207.697525 302.654108,213.72193 303.175124,213.783282 L303.21225,213.468658 C302.69029,213.406992 250.88821,207.371576 239.810328,213.574057 L239.965122,213.850611 Z" id="Fill-19" fill="#484847"></path>
                    <path d="M243.305009,199.600729 C243.176544,215.752225 300.450865,208.872989 322.453094,195.142833 C344.455008,181.412677 346.287689,169.923267 345.634845,167.020239 C344.982002,164.117525 313.594563,159.385907 293.836542,165.060765 C274.496969,170.615753 243.41377,185.963386 243.305009,199.600729" id="Fill-21" fill="#00CCCC"></path>
                    <path d="M319.094995,135.727281 C315.739853,130.144293 280.469649,141.213995 266.483075,158.581195 C252.496501,175.948081 251.950315,185.274141 263.91984,184.11507 C275.889365,182.955683 285.345994,177.07978 296.747939,167.132024 C308.149569,157.184583 323.24456,142.632316 319.094995,135.727281" id="Fill-23" fill="#00CCCC"></path>
                    <path d="M248.379437,197.874297 C283.99258,180.565617 314.761784,180.327447 315.068856,180.327447 L315.068856,180.010621 C314.76084,180.010936 283.923363,180.247533 248.241002,197.589878 L248.379437,197.874297 Z" id="Fill-25" fill="#484847"></path>
                    <g id="Group-29" transform="translate(138.434205, 0.000000)">
                        <mask id="mask-6" fill="white">
                            <use xlink:href="#path-5"></use>
                        </mask>
                        <g id="Clip-28"></g>
                        <path d="M108.478113,230.05833 L16.6081403,230.05833 C7.48155074,230.05833 0.0828717489,222.659651 0.0828717489,213.533062 L0.0828717489,16.5314352 C0.0828717489,7.40484561 7.48155074,0.00616661457 16.6081403,0.00616661457 L108.478113,0.00616661457 C117.605017,0.00616661457 125.003381,7.40484561 125.003381,16.5314352 L125.003381,213.533062 C125.003381,222.659651 117.605017,230.05833 108.478113,230.05833" id="Fill-27" fill="#484847" mask="url(#mask-6)"></path>
                    </g>
                    <g id="Group-33" transform="translate(145.355915, 23.911363)">
                        <mask id="mask-8" fill="white">
                            <use xlink:href="#path-7"></use>
                        </mask>
                        <g id="Clip-32"></g>
                        <path d="M2.13943771,0.29668967 C1.06657262,0.29668967 0.196639495,1.16630817 0.196639495,2.23917326 L0.196639495,2.23917326 L0.196639495,187.093198 C0.196639495,188.166063 1.06657262,189.035997 2.13943771,189.035997 L2.13943771,189.035997 L109.103458,189.035997 C110.176637,189.035997 111.04657,188.166063 111.04657,187.093198 L111.04657,187.093198 L111.04657,2.23917326 C111.04657,1.16630817 110.176637,0.29668967 109.103458,0.29668967 L109.103458,0.29668967 L2.13943771,0.29668967 Z" id="Fill-31" fill="url(#linearGradient-9)" mask="url(#mask-8)"></path>
                    </g>
                    <g id="Group-74" transform="translate(122.388422, 11.011812)">
                        <path d="M99.9445877,5.86426168 L57.2332308,5.86426168 C55.6604295,5.86426168 54.3855763,4.58940851 54.3855763,3.01692179 C54.3855763,1.44443508 55.6604295,0.169267278 57.2332308,0.169267278 L99.9445877,0.169267278 C101.517389,0.169267278 102.792242,1.44443508 102.792242,3.01692179 C102.792242,4.58940851 101.517389,5.86426168 99.9445877,5.86426168" id="Fill-34" fill-opacity="0.2" fill="#1A003D"></path>
                        <path d="M117.897459,3.01682741 C117.897459,4.500905 116.69434,5.70433872 115.209948,5.70433872 C113.72587,5.70433872 112.522751,4.500905 112.522751,3.01682741 C112.522751,1.53274981 113.72587,0.329316096 115.209948,0.329316096 C116.69434,0.329316096 117.897459,1.53274981 117.897459,3.01682741" id="Fill-36" fill-opacity="0.2" fill="#1A003D"></path>
                        <path d="M11.4955134,57.2220617 L11.4955134,57.2220617 C5.31977479,57.2220617 0.313175926,52.2154628 0.313175926,46.0397242 L0.313175926,35.1389744 L22.6778509,35.1389744 L22.6778509,46.0397242 C22.6778509,52.2154628 17.6712521,57.2220617 11.4955134,57.2220617" id="Fill-38" fill="#E3F1F2"></path>
                        <path d="M33.8599053,57.2220617 L33.8599053,57.2220617 C27.6841666,57.2220617 22.6778824,52.2154628 22.6778824,46.0397242 L22.6778824,35.1389744 L45.0422428,35.1389744 L45.0422428,46.0397242 C45.0422428,52.2154628 40.0356439,57.2220617 33.8599053,57.2220617" id="Fill-40" fill="#E94E1B"></path>
                        <path d="M56.2245488,57.2220617 L56.2245488,57.2220617 C50.0484956,57.2220617 45.0422113,52.2154628 45.0422113,46.0397242 L45.0422113,35.1389744 L67.4065717,35.1389744 L67.4065717,46.0397242 C67.4065717,52.2154628 62.4002875,57.2220617 56.2245488,57.2220617" id="Fill-42" fill="#E3F1F2"></path>
                        <path d="M78.5889092,57.2220617 L78.5889092,57.2220617 C72.4131706,57.2220617 67.4065717,52.2154628 67.4065717,46.0397242 L67.4065717,35.1389744 L89.7712467,35.1389744 L89.7712467,46.0397242 C89.7712467,52.2154628 84.7646479,57.2220617 78.5889092,57.2220617" id="Fill-44" fill="#E94E1B"></path>
                        <path d="M100.953584,57.2220617 L100.953584,57.2220617 C94.777531,57.2220617 89.7712467,52.2154628 89.7712467,46.0397242 L89.7712467,35.1389744 L112.135607,35.1389744 L112.135607,46.0397242 C112.135607,52.2154628 107.129323,57.2220617 100.953584,57.2220617" id="Fill-46" fill="#E3F1F2"></path>
                        <path d="M123.317945,57.2220617 L123.317945,57.2220617 C117.142206,57.2220617 112.135607,52.2154628 112.135607,46.0397242 L112.135607,35.1389744 L134.500282,35.1389744 L134.500282,46.0397242 C134.500282,52.2154628 129.493683,57.2220617 123.317945,57.2220617" id="Fill-48" fill="#E94E1B"></path>
                        <path d="M145.682305,57.2220617 L145.682305,57.2220617 C139.506566,57.2220617 134.500282,52.2154628 134.500282,46.0397242 L134.500282,35.1389744 L156.864643,35.1389744 L156.864643,46.0397242 C156.864643,52.2154628 151.858358,57.2220617 145.682305,57.2220617" id="Fill-50" fill="#E3F1F2"></path>
                        <polygon id="Fill-52" fill="#FFFFFF" points="22.6778509 35.1388171 0.313175926 35.1388171 23.1642584 13.1960518 41.8264477 13.1960518"></polygon>
                        <polygon id="Fill-54" fill="#E94E1B" points="45.0422113 35.1388171 22.6778509 35.1388171 41.8264477 13.1960518 57.8080474 13.1960518"></polygon>
                        <polygon id="Fill-56" fill="#FFFFFF" points="67.4065717 35.1388171 45.0422113 35.1388171 57.8080474 13.1960518 73.789647 13.1960518"></polygon>
                        <polygon id="Fill-58" fill="#FFFFFF" points="134.500282 35.1388171 156.864643 35.1388171 134.013875 13.1960518 115.351371 13.1960518"></polygon>
                        <polygon id="Fill-60" fill="#E94E1B" points="112.135607 35.1388171 134.500282 35.1388171 115.351371 13.1960518 99.3697711 13.1960518"></polygon>
                        <polygon id="Fill-62" fill="#FFFFFF" points="89.7712467 35.1388171 112.135607 35.1388171 99.3697711 13.1960518 83.3881714 13.1960518"></polygon>
                        <polygon id="Fill-64" fill="#E94E1B" points="89.7712467 35.1388171 67.4065717 35.1388171 73.789647 13.1960518 83.3881714 13.1960518"></polygon>
                        <path d="M54.1432535,126.411792 L33.9230502,126.411792 C31.4510557,126.411792 29.4472206,124.407957 29.4472206,121.935648 L29.4472206,101.846957 C29.4472206,99.3749624 31.4510557,97.3708126 33.9230502,97.3708126 L54.1432535,97.3708126 C56.6152479,97.3708126 58.6193977,99.3749624 58.6193977,101.846957 L58.6193977,121.935648 C58.6193977,124.407957 56.6152479,126.411792 54.1432535,126.411792" id="Fill-66" fill="#ACE6E6"></path>
                        <path d="M123.254642,166.097354 L33.9230502,166.097354 C31.4510557,166.097354 29.4472206,164.093519 29.4472206,161.62121 L29.4472206,138.22583 C29.4472206,135.753835 31.4510557,133.749686 33.9230502,133.749686 L123.254642,133.749686 C125.726637,133.749686 127.730787,135.753835 127.730787,138.22583 L127.730787,161.62121 C127.730787,164.093519 125.726637,166.097354 123.254642,166.097354" id="Fill-68" fill="#ACE6E6"></path>
                        <path d="M127.730661,201.935516 L29.4470948,201.935516 L29.4470948,179.031891 C29.4470948,176.559897 31.4509299,174.556062 33.9232389,174.556062 L123.254517,174.556062 C125.726826,174.556062 127.730661,176.559897 127.730661,179.031891 L127.730661,201.935516 Z" id="Fill-70" fill="#ACE6E6"></path>
                        <path d="M237.471482,28.206976 L184.147256,28.206976 C183.553876,32.355912 182.691809,36.5529854 181.614224,40.4379526 C180.713143,43.6829762 179.715473,46.4988538 178.707735,48.6471009 C179.216796,49.5469233 179.508137,50.5867529 179.508137,51.6951704 C179.508137,55.1135514 176.737565,57.8841233 173.319184,57.8841233 C169.900488,57.8841233 167.129916,55.1135514 167.129916,51.6951704 C167.129916,50.805416 167.317746,49.9597089 167.656596,49.1939161 C168.295281,47.7488517 169.471971,46.5935554 170.933396,45.9812986 C171.666783,45.6751703 172.473162,45.505903 173.319184,45.505903 C173.971083,45.505903 174.599386,45.6065824 175.190248,45.7944125 C175.36801,45.3703004 175.556155,44.9021411 175.751536,44.3830128 C176.975105,41.1408208 178.125682,36.9075658 178.992155,32.4622547 C179.271855,31.0288314 179.516946,29.6086223 179.727114,28.206976 L178.281735,28.206976 C176.130657,28.206976 174.067358,29.0658973 172.551818,30.5915052 L167.592098,35.5848899 L163.978336,39.221934 L159.364072,43.8667162 C155.060656,48.1981336 155.060656,55.1906341 159.364072,59.5220516 L172.551818,72.7972626 C174.067358,74.3241289 176.130657,75.1817917 178.281735,75.1817917 L237.471482,75.1817917 C241.932839,75.1817917 245.549432,71.5648835 245.549432,67.1038413 L245.549432,36.2846118 C245.549432,31.8235696 241.932839,28.206976 237.471482,28.206976" id="Fill-72" fill="#EE724E"></path>
                    </g>
                    <g id="Group-77" transform="translate(283.475496, 6.292464)">
                        <mask id="mask-11" fill="white">
                            <use xlink:href="#path-10"></use>
                        </mask>
                        <g id="Clip-76"></g>
                        <path d="M2.4377005,7.34550767 C0.827773619,11.0338354 0.0125849277,16.0344564 0.0125849277,22.207678 L0.0125849277,22.207678 C0.0125849277,29.076217 1.0785283,37.0604097 2.89138714,43.9412189 L2.89138714,43.9412189 C3.05153034,44.5506441 3.21765139,45.1515743 3.3900649,45.7421221 L3.3900649,45.7421221 C4.34809252,49.0277321 5.44203736,51.8382611 6.56933226,53.9135156 L6.56933226,53.9135156 C6.65553901,54.0736588 6.74143114,54.2281388 6.82858177,54.3785287 L6.82858177,54.3785287 C8.48696062,57.2557578 10.2545137,58.6542579 12.2319205,58.6542579 L12.2319205,58.6542579 C14.6630139,58.6542579 16.2644459,56.0601897 17.2573967,54.1088966 L17.2573967,54.1088966 C17.3785267,53.8710415 17.4996566,53.6231184 17.6204719,53.3663859 L17.6204719,53.3663859 C16.8565668,52.0201133 15.6037372,50.9881492 14.1029846,50.5136974 L14.1029846,50.5136974 C13.1481032,52.7698603 12.4364256,53.7414168 12.0818452,54.1306056 L12.0818452,54.1306056 C11.6514407,53.7763399 10.8393982,52.8154807 9.84644743,50.7005836 L9.84644743,50.7005836 C9.77471334,50.5517668 9.70455237,50.3957137 9.63155979,50.2339974 L9.63155979,50.2339974 C8.4677686,47.6320636 7.39049879,44.2080194 6.50546375,40.3041748 L6.50546375,40.3041748 C6.46582123,40.1320759 6.42617871,39.9596624 6.38842392,39.7866197 L6.38842392,39.7866197 C4.37011614,30.6191291 3.83903219,21.1269474 4.96947332,14.3952695 L4.96947332,14.3952695 C6.07191299,7.82530804 8.51464746,4.4943923 12.2319205,4.4943923 L12.2319205,4.4943923 C13.3299554,4.4943923 16.6728268,4.4943923 18.4837979,10.9624159 L18.4837979,10.9624159 C19.9291769,16.1203485 19.9653585,24.1237333 18.639851,32.926261 L18.639851,32.926261 L23.0599923,32.926261 C23.6565178,28.7512112 23.9818382,24.6268158 23.9818382,20.926847 L23.9818382,20.926847 C23.9818382,15.0644731 23.2044043,10.3470129 21.6734479,6.90377671 L21.6734479,6.90377671 C19.1810029,1.29656218 15.1632648,0.11924219 12.2319205,0.11924219 L12.2319205,0.11924219 C9.20146989,0.11924219 5.04403902,1.37364486 2.4377005,7.34550767" id="Fill-75" fill="#F5D6CD" mask="url(#mask-11)"></path>
                    </g>
                    <path d="M306.535583,39.2187877 C305.942204,43.3677238 305.080136,47.5647972 304.002552,51.4497643 C303.101471,54.6947879 302.103801,57.5106655 301.096063,59.6589127 C300.331843,58.31264 299.079328,57.2803613 297.578575,56.8062242 C297.756652,56.3821121 297.944482,55.9139528 298.139863,55.3948246 C299.363433,52.1526326 300.51401,47.9193775 301.380482,43.4740664 C301.660497,42.0406431 301.905274,40.6204341 302.115442,39.2187877 L306.535583,39.2187877 Z" id="Fill-78" fill="#F2A48E"></path>
                    <path d="M343.710295,52.7428342 L332.357432,74.3835612 C332.038719,74.990784 331.409472,75.3711634 330.723908,75.3711634 L329.225044,75.3711634 C327.838185,75.3711634 326.947172,73.897783 327.591835,72.6694941 L338.944698,51.028767 C339.262782,50.4215443 339.892028,50.0411648 340.577907,50.0411648 L342.076772,50.0411648 C343.463945,50.0411648 344.354644,51.5145453 343.710295,52.7428342" id="Fill-80" fill="#F5D6CD"></path>
                    <path d="M326.727376,58.750155 C326.292881,59.343849 325.666467,59.6399094 324.844985,59.6399094 C323.293264,59.6399094 322.518032,58.4764329 322.518032,56.1494797 C322.518032,53.7775355 323.293264,52.5904622 324.844985,52.5904622 C325.666467,52.5904622 326.292881,52.8877811 326.727376,53.4802166 C327.160612,54.0735959 327.377702,54.9633503 327.377702,56.1494797 C327.377702,57.2906181 327.160612,58.1580342 326.727376,58.750155 M329.579121,51.3414081 C328.403374,50.2370807 326.865181,49.684917 324.965801,49.684917 C323.04188,49.684917 321.486383,50.2370807 320.29868,51.3414081 C319.110978,52.4457355 318.517284,54.0437067 318.517284,56.1331193 C318.517284,58.2234758 319.110978,59.8148399 320.29868,60.906897 C321.486383,61.999898 323.04188,62.5457692 324.965801,62.5457692 C326.865181,62.5457692 328.403374,61.999898 329.579121,60.906897 C330.755182,59.8148399 331.342898,58.2234758 331.342898,56.1331193 C331.342898,54.0437067 330.755182,52.4457355 329.579121,51.3414081" id="Fill-82" fill="#F5D6CD"></path>
                    <path d="M348.151265,71.913958 C347.71677,72.5076519 347.090355,72.8037123 346.268874,72.8037123 C344.717153,72.8037123 343.941921,71.6402358 343.941921,69.3132827 C343.941921,66.9413384 344.717153,65.7542651 346.268874,65.7542651 C347.090355,65.7542651 347.71677,66.051584 348.151265,66.6440195 C348.584501,67.2373988 348.801591,68.1271532 348.801591,69.3132827 C348.801591,70.454421 348.584501,71.3218371 348.151265,71.913958 M351.003009,64.505211 C349.827262,63.4008836 348.28907,62.8487199 346.389689,62.8487199 C344.465769,62.8487199 342.910272,63.4008836 341.722569,64.505211 C340.534866,65.6095384 339.941172,67.2075096 339.941172,69.2969222 C339.941172,71.3872787 340.534866,72.9786428 341.722569,74.0706999 C342.910272,75.1637009 344.465769,75.7095722 346.389689,75.7095722 C348.28907,75.7095722 349.827262,75.1637009 351.003009,74.0706999 C352.179071,72.9786428 352.766787,71.3872787 352.766787,69.2969222 C352.766787,67.2075096 352.179071,65.6095384 351.003009,64.505211" id="Fill-84" fill="#F5D6CD"></path>
                    <path d="M210.776742,137.423604 L190.556854,137.423604 C188.084859,137.423604 186.081024,135.419768 186.081024,132.947459 L186.081024,112.858769 C186.081024,110.386774 188.084859,108.382624 190.556854,108.382624 L210.776742,108.382624 C213.248737,108.382624 215.253201,110.386774 215.253201,112.858769 L215.253201,132.947459 C215.253201,135.419768 213.248737,137.423604 210.776742,137.423604" id="Fill-86" fill="#ACE6E6"></path>
                    <path d="M245.643064,137.423604 L225.423176,137.423604 C222.951181,137.423604 220.947031,135.419768 220.947031,132.947459 L220.947031,112.858769 C220.947031,110.386774 222.951181,108.382624 225.423176,108.382624 L245.643064,108.382624 C248.115059,108.382624 250.119208,110.386774 250.119208,112.858769 L250.119208,132.947459 C250.119208,135.419768 248.115059,137.423604 245.643064,137.423604" id="Fill-88" fill="#ACE6E6"></path>
                    <path d="M270.648875,99.87622 L162.865577,99.87622 C156.773842,99.87622 151.835517,94.9378944 151.835517,88.8461602 C151.835517,82.7544259 156.773842,77.8161003 162.865577,77.8161003 L270.648875,77.8161003 C276.740609,77.8161003 281.67925,82.7544259 281.67925,88.8461602 C281.67925,94.9378944 276.740609,99.87622 270.648875,99.87622" id="Fill-90" fill="#FFFFFF"></path>
                    <path d="M270.435938,95.936823 L270.435938,95.936823 C266.519823,95.936823 263.345275,92.762275 263.345275,88.8461602 C263.345275,84.9300453 266.519823,81.7554973 270.435938,81.7554973 C274.352053,81.7554973 277.526601,84.9300453 277.526601,88.8461602 C277.526601,92.762275 274.352053,95.936823 270.435938,95.936823" id="Fill-92" fill="#484847"></path>
                    <path d="M213.12166,93.8687419 L164.792392,93.8687419 C163.976574,93.8687419 163.314921,93.2074039 163.314921,92.391586 C163.314921,91.5754534 163.976574,90.9141155 164.792392,90.9141155 L213.12166,90.9141155 C213.937793,90.9141155 214.598816,91.5754534 214.598816,92.391586 C214.598816,93.2074039 213.937793,93.8687419 213.12166,93.8687419" id="Fill-94" fill="#F6E5E1"></path>
                    <path d="M267.462686,88.240542 C267.462686,86.9351703 268.524539,85.8730025 269.830226,85.8730025 C271.135912,85.8730025 272.19808,86.9351703 272.19808,88.240542 C272.19808,89.5459136 271.135912,90.6080815 269.830226,90.6080815 C268.524539,90.6080815 267.462686,89.5459136 267.462686,88.240542 M274.318325,92.030493 L272.617472,90.32964 C273.055428,89.7463286 273.318453,89.024583 273.318453,88.240542 C273.318453,86.3172504 271.754146,84.7523146 269.830226,84.7523146 C267.906619,84.7523146 266.341684,86.3172504 266.341684,88.240542 C266.341684,90.1638335 267.906619,91.7287693 269.830226,91.7287693 C270.614267,91.7287693 271.336327,91.4657443 271.919009,91.0274742 L273.620177,92.7286418 C273.716766,92.8249165 273.84293,92.8733685 273.969408,92.8733685 C274.095572,92.8733685 274.222051,92.8249165 274.318325,92.7286418 C274.511189,92.5357778 274.511189,92.223357 274.318325,92.030493" id="Fill-96" fill="#FFFFFF"></path>
                    <path d="M193.549266,140.271824 C194.740744,137.843248 196.941848,135.930339 199.512634,135.088722 C202.08342,134.247105 204.989595,134.488106 207.386394,135.741565 C211.133557,137.700724 213.255061,141.71563 215.151609,145.494884 C216.173505,147.530811 217.195402,149.567367 218.216983,151.603608 C219.014238,153.191826 219.833832,154.957176 219.397764,156.679738 C218.934639,158.510845 217.109195,159.984855 217.326914,161.860639 C217.48863,163.253475 218.740201,164.244853 219.966288,164.925383 C221.191745,165.605913 222.5613,166.198978 223.330239,167.371578 C224.549404,169.229428 223.798084,171.792978 224.667388,173.838344 C225.227102,175.154098 226.409142,176.131947 226.952181,177.454937 C227.886612,179.731551 226.551351,182.498032 224.414745,183.71877 C222.277825,184.939508 219.601325,184.855504 217.249831,184.129039 C214.898652,183.402259 212.778092,182.096573 210.613799,180.925546 C208.449191,179.754518 206.150869,178.689833 203.695864,178.518364 C200.91082,178.324241 198.073862,179.292337 195.35426,178.662776 C191.915113,177.867093 189.37107,174.264658 189.771271,170.757239 C189.960989,169.095399 190.719545,167.419087 190.255476,165.812306 C189.702998,163.898768 187.683117,162.893232 186.183308,161.582512 C184.252151,159.894873 183.020401,157.229385 183.594903,154.730019 C184.080996,152.615751 185.750387,150.884379 186.053998,148.736447 C186.264481,147.249852 185.791602,145.709772 186.126047,144.24583 C186.624095,142.06675 191.392839,139.683794 193.549266,140.271824" id="Fill-98" fill="#1D1D1B"></path>
                    <path d="M174.449751,153.457399 C174.072832,154.34149 173.695914,155.211109 173.31868,155.968407 C172.828812,154.106152 172.422004,149.843952 170.815224,148.430035 C168.750037,146.612772 163.958955,150.330045 163.876524,151.785806 C163.793778,153.241253 163.793778,156.194936 164.950333,159.168754 C166.106573,162.142258 168.336937,164.430198 168.336937,164.430198 L169.742359,164.059572 C170.923769,165.22588 173.789042,163.254451 173.789042,163.254451 C173.789042,163.254451 176.184583,160.242563 176.267014,158.425299 C176.34976,156.608036 176.514937,154.460418 177.010784,152.973194 C177.506315,151.486285 175.441128,151.132648 174.449751,153.457399" id="Fill-100" fill="#FFA1C0"></path>
                    <path d="M225.08656,211.31522 C225.08656,211.31522 224.816614,215.882919 228.694974,215.882919 C232.573334,215.882919 233.922438,214.675396 235.102904,214.675396 C236.283056,214.675396 237.463522,215.882919 239.402545,215.882919 C240.879071,215.882919 242.50001,215.591578 241.573445,214.839 C240.647194,214.086421 239.033492,214.24216 237.875364,213.547471 C236.71755,212.852469 234.960695,211.82837 233.49046,211.82837 C232.020226,211.82837 228.430376,209.338757 228.430376,209.338757 L225.08656,211.31522 Z" id="Fill-102" fill="#FFA1C0"></path>
                    <path d="M215.876784,170.639727 C215.876784,170.639727 217.873068,173.952709 221.564857,184.346286 C225.256331,194.740178 231.29804,207.605435 231.29804,207.605435 C231.29804,207.605435 229.74915,210.961521 223.587255,211.520921 C223.587255,211.520921 219.215251,198.543343 217.649371,194.963875 C216.082862,191.383778 211.193933,180.979503 211.193933,180.979503 L215.876784,170.639727 Z" id="Fill-104" fill="#E94E1B"></path>
                    <path d="M185.239407,170.639727 L177.262765,175.945218 L174.801468,162.743943 C174.801468,162.743943 170.1032,163.079961 167.417891,164.64584 C167.417891,164.64584 169.543485,180.6438 171.109994,182.769395 C172.675874,184.895304 176.591674,184.559286 179.948074,182.769395 C183.30416,180.979503 188.675092,177.8468 188.675092,177.8468 L185.239407,170.639727 Z" id="Fill-106" fill="#E94E1B"></path>
                    <path d="M204.02065,159.905948 L200.617685,159.644181 L197.214406,159.905948 C197.214406,159.905948 197.789852,162.259958 197.214406,166.393478 C197.214406,166.393478 198.056338,166.864154 200.617685,166.864154 C203.178718,166.864154 204.02065,166.393478 204.02065,166.393478 C203.445204,162.259958 204.02065,159.905948 204.02065,159.905948" id="Fill-108" fill="#FFA1C0"></path>
                    <path d="M203.923557,165.465623 L200.625677,165.465623 L197.327482,165.465623 C197.327482,165.465623 195.444147,166.74551 193.317924,167.29673 C193.317924,167.29673 194.15199,174.226935 200.625677,174.226935 C207.099049,174.226935 207.93343,167.29673 207.93343,167.29673 C205.806891,166.74551 203.923557,165.465623 203.923557,165.465623" id="Fill-110" fill="#FFA1C0"></path>
                    <path d="M193.752356,151.168421 C193.752356,151.168421 192.025703,149.91276 191.136264,151.168421 C190.246824,152.424082 190.736692,156.516386 192.895637,156.295835 C194.432256,156.138838 194.694023,155.772617 194.694023,155.772617 L193.752356,151.168421 Z" id="Fill-112" fill="#FFA1C0"></path>
                    <path d="M207.483015,151.168421 C207.483015,151.168421 209.209353,149.91276 210.098792,151.168421 C210.988547,152.424082 210.498364,156.516386 208.339419,156.295835 C206.8028,156.138838 206.541348,155.772617 206.541348,155.772617 L207.483015,151.168421 Z" id="Fill-114" fill="#FFA1C0"></path>
                    <path d="M200.617559,141.265153 C194.82692,141.265153 192.101654,147.332976 192.953339,152.834162 C193.805023,158.335978 197.211134,161.733908 200.617559,161.733908 C204.023985,161.733908 207.43041,158.335978 208.28178,152.834162 C209.133465,147.332976 206.408514,141.265153 200.617559,141.265153" id="Fill-116" fill="#FFA1C0"></path>
                    <path d="M189.778728,198.286925 C189.778728,198.286925 186.874755,208.443591 186.874755,212.965041 L214.238478,212.965041 C214.238478,212.965041 213.184491,204.256586 211.936695,198.286925 L189.778728,198.286925 Z" id="Fill-118" fill="#1D1D1B"></path>
                    <path d="M195.774376,166.351727 C195.774376,166.351727 195.963464,171.86424 200.625551,171.86424 C205.287637,171.86424 205.47767,166.351727 205.47767,166.351727 L208.530459,167.2182 L207.335205,187.771904 L211.194059,200.214622 C211.194059,200.214622 204.153421,202.340845 200.625551,202.340845 C197.097996,202.340845 191.034263,200.450904 191.034263,200.450904 L194.69396,186.74812 L191.427856,167.533137 L195.774376,166.351727 Z" id="Fill-120" fill="#B6BCF8"></path>
                    <path d="M206.813843,166.351727 C206.813843,166.351727 204.128849,182.277639 204.293082,189.71596 C204.457945,197.153653 210.206425,205.554092 210.206425,205.554092 C210.206425,205.554092 214.380531,203.979088 215.876879,201.703733 C215.876879,201.703733 212.891419,194.615902 212.84863,190.328217 C212.805527,186.040532 215.955534,171.689939 215.876879,170.639727 C215.797908,169.589515 209.406338,166.928117 206.813843,166.351727" id="Fill-122" fill="#E94E1B"></path>
                    <path d="M194.302348,166.351727 C194.302348,166.351727 196.987343,182.277639 196.823109,189.71596 C196.658247,197.153653 190.909452,205.554092 190.909452,205.554092 C190.909452,205.554092 186.735661,203.979088 185.239313,201.703733 C185.239313,201.703733 188.224772,194.615902 188.267561,190.328217 C188.310664,186.040532 185.160657,171.689939 185.239313,170.639727 C185.318283,169.589515 191.709539,166.928117 194.302348,166.351727" id="Fill-124" fill="#E94E1B"></path>
                    <path d="M203.253441,147.608019 C204.52389,149.120413 203.808122,151.88658 205.47531,152.944972 C206.974804,153.896078 209.315915,152.622484 210.583218,153.866189 C211.210576,154.481277 211.262174,155.453148 211.543133,156.285327 C211.823777,157.11782 212.696856,157.952515 213.481212,157.557034 C214.08403,153.742228 213.128834,149.704039 210.879907,146.564099 C208.171002,142.78107 201.021504,138.149502 196.413848,141.297622 C194.9842,142.274841 193.451985,144.465248 195.026674,145.967259 C197.197259,148.03748 201.147983,145.102045 203.253441,147.608019" id="Fill-126" fill="#1D1D1B"></path>
                    <path d="M195.594946,148.327594 C194.76969,149.544242 193.819528,150.850557 192.481435,151.117358 C191.316385,151.34955 190.116413,150.655176 189.420781,149.570041 C189.304056,149.387559 189.201174,149.193752 189.115282,148.991449 C188.519385,147.5876 188.650898,145.887062 189.227917,144.473145 C192.118989,137.387516 198.714435,143.726544 195.594946,148.327594" id="Fill-128" fill="#1D1D1B"></path>
                    <path d="M363.448276,253.439993 L337.758977,253.439993 C336.285597,253.439993 335.126211,252.182759 335.245453,250.714413 L337.534651,222.534557 C337.56454,222.162673 337.875388,221.876051 338.248531,221.876051 L362.958093,221.876051 C363.331551,221.876051 363.642084,222.162673 363.672602,222.534557 L365.961171,250.714413 C366.080728,252.182759 364.921342,253.439993 363.448276,253.439993" id="Fill-130" fill="#EE724E"></path>
                    <path d="M357.8505,227.761015 L357.8505,227.761015 C357.378565,227.761015 356.995983,227.378118 356.995983,226.906183 L356.995983,218.295261 C356.995983,214.775886 354.185769,211.855554 350.666709,211.821575 C347.11304,211.787281 344.210955,214.667971 344.210955,218.213459 L344.210955,226.906183 C344.210955,227.378118 343.828373,227.761015 343.356439,227.761015 C342.884504,227.761015 342.501922,227.378118 342.501922,226.906183 L342.501922,218.31697 C342.501922,213.856557 346.063457,210.155645 350.523555,210.112227 C355.027386,210.068809 358.705331,213.719696 358.705331,218.213459 L358.705331,226.906183 C358.705331,227.378118 358.322435,227.761015 357.8505,227.761015" id="Fill-132" fill="#D2EEED"></path>
                    <path d="M348.930146,125.93863 L295.319927,125.93863 C289.158032,125.93863 284.163074,120.943672 284.163074,114.782092 C284.163074,108.620511 289.158032,103.625239 295.319927,103.625239 L348.930146,103.625239 C355.091726,103.625239 360.086684,108.620511 360.086684,114.782092 C360.086684,120.943672 355.091726,125.93863 348.930146,125.93863" id="Fill-134" fill="#F6F7FF"></path>
                    <path d="M284.787538,176.557946 L244.93705,176.557946 C240.064795,176.557946 236.115016,172.608167 236.115016,167.735912 L236.115016,128.144044 C236.115016,123.271789 240.064795,119.322324 244.93705,119.322324 L284.787538,119.322324 C289.659478,119.322324 293.609258,123.271789 293.609258,128.144044 L293.609258,167.735912 C293.609258,172.608167 289.659478,176.557946 284.787538,176.557946" id="Fill-136" fill="#FFFFFF"></path>
                    <path d="M280.498972,150.337596 L249.225427,150.337596 C248.325605,150.337596 247.596623,149.608614 247.596623,148.708791 L247.596623,127.567686 C247.596623,126.668178 248.325605,125.938567 249.225427,125.938567 L280.498972,125.938567 C281.39848,125.938567 282.128091,126.668178 282.128091,127.567686 L282.128091,148.708791 C282.128091,149.608614 281.39848,150.337596 280.498972,150.337596" id="Fill-138" fill="#ACE6E6"></path>
                    <path d="M249.864993,147.109656 L249.864993,129.16701 C249.864993,128.636555 250.294454,128.207095 250.824594,128.207095 L278.89968,128.207095 C279.430134,128.207095 279.859595,128.636555 279.859595,129.16701 L279.859595,147.109656 C279.859595,147.639796 279.430134,148.069571 278.89968,148.069571 L250.824594,148.069571 C250.294454,148.069571 249.864993,147.639796 249.864993,147.109656" id="Fill-140" fill="#1D1D1B"></path>
                    <path d="M283.291536,150.337596 L246.433115,150.337596 C245.771147,150.337596 245.234715,150.874028 245.234715,151.535995 L245.234715,151.847158 C245.234715,152.50881 245.771147,153.045243 246.433115,153.045243 L283.291536,153.045243 C283.953189,153.045243 284.489621,152.50881 284.489621,151.847158 L284.489621,151.535995 C284.489621,150.874028 283.953189,150.337596 283.291536,150.337596" id="Fill-142" fill="#1EB09C"></path>
                    <path d="M283.291536,150.337596 L246.433115,150.337596 C245.771147,150.337596 245.234715,150.874028 245.234715,151.535995 L245.234715,151.847158 C245.234715,152.50881 245.771147,153.045243 246.433115,153.045243 L283.291536,153.045243 C283.953189,153.045243 284.489621,152.50881 284.489621,151.847158 L284.489621,151.535995 C284.489621,150.874028 283.953189,150.337596 283.291536,150.337596" id="Fill-144" fill="#00CCCC"></path>
                    <path d="M269.78794,150.337596 L259.936459,150.337596 L259.936459,150.463445 C259.936459,150.999248 260.370639,151.432799 260.906128,151.432799 L268.818586,151.432799 C269.35376,151.432799 269.78794,150.999248 269.78794,150.463445 L269.78794,150.337596 Z" id="Fill-146" fill="#1D1D1B"></path>
                    <path d="M265.294429,127.063471 C265.294429,127.30227 265.100936,127.495763 264.862137,127.495763 C264.623652,127.495763 264.430159,127.30227 264.430159,127.063471 C264.430159,126.824986 264.623652,126.631493 264.862137,126.631493 C265.100936,126.631493 265.294429,126.824986 265.294429,127.063471" id="Fill-148" fill="#263555"></path>
                    <path d="M280.534588,161.882505 L263.755733,161.882505 C262.649203,161.882505 261.752212,160.985514 261.752212,159.878984 C261.752212,158.772455 262.649203,157.875779 263.755733,157.875779 L280.534588,157.875779 C281.641117,157.875779 282.538108,158.772455 282.538108,159.878984 C282.538108,160.985514 281.641117,161.882505 280.534588,161.882505" id="Fill-150" fill="#F6E5E1"></path>
                    <path d="M279.339082,168.879788 L250.385568,168.879788 C249.279039,168.879788 248.381733,167.982482 248.381733,166.876267 C248.381733,165.769737 249.279039,164.872747 250.385568,164.872747 L279.339082,164.872747 C280.445612,164.872747 281.342288,165.769737 281.342288,166.876267 C281.342288,167.982482 280.445612,168.879788 279.339082,168.879788" id="Fill-152" fill="#F6E5E1"></path>
                    <path d="M296.471007,118.452675 L299.590811,120.092805 C299.824576,120.215823 300.097984,120.017296 300.053307,119.756788 L299.457411,116.283033 L301.981633,113.82268 C302.170721,113.63831 302.066266,113.31708 301.804814,113.279011 L298.316902,112.772153 L296.757,109.611448 C296.63996,109.374537 296.302369,109.374537 296.18533,109.611448 L294.625428,112.772153 L291.137515,113.279011 C290.876063,113.31708 290.771608,113.63831 290.960697,113.82268 L293.484919,116.283033 L292.888708,119.756788 C292.844346,120.017296 293.117753,120.215823 293.351518,120.092805 L296.471007,118.452675 Z" id="Fill-154" fill="#F1937A"></path>
                    <path d="M309.298038,118.452675 L312.417841,120.092805 C312.651606,120.215823 312.924699,120.017296 312.880337,119.756788 L312.284441,116.283033 L314.808663,113.82268 C314.997437,113.63831 314.892982,113.31708 314.631845,113.279011 L311.143617,112.772153 L309.583715,109.611448 C309.46699,109.374537 309.129085,109.374537 309.01236,109.611448 L307.452458,112.772153 L303.964545,113.279011 C303.703093,113.31708 303.598638,113.63831 303.787727,113.82268 L306.311634,116.283033 L305.715738,119.756788 C305.671376,120.017296 305.944469,120.215823 306.178234,120.092805 L309.298038,118.452675 Z" id="Fill-156" fill="#F1937A"></path>
                    <path d="M322.125099,118.452675 L325.244903,120.092805 C325.478668,120.215823 325.751761,120.017296 325.707399,119.756788 L325.111503,116.283033 L327.63541,113.82268 C327.824498,113.63831 327.720044,113.31708 327.458592,113.279011 L323.970679,112.772153 L322.410777,109.611448 C322.293737,109.374537 321.956147,109.374537 321.839421,109.611448 L320.27952,112.772153 L316.791292,113.279011 C316.52984,113.31708 316.4257,113.63831 316.614474,113.82268 L319.138696,116.283033 L318.5428,119.756788 C318.498123,120.017296 318.771531,120.215823 319.005296,120.092805 L322.125099,118.452675 Z" id="Fill-158" fill="#F1937A"></path>
                    <path d="M334.951846,118.452675 L338.07165,120.092805 C338.305415,120.215823 338.578823,120.017296 338.534146,119.756788 L337.93825,116.283033 L340.462472,113.82268 C340.651246,113.63831 340.547105,113.31708 340.285653,113.279011 L336.797741,112.772153 L335.237839,109.611448 C335.120799,109.374537 334.783208,109.374537 334.666169,109.611448 L333.106267,112.772153 L329.618354,113.279011 C329.356902,113.31708 329.252447,113.63831 329.441536,113.82268 L331.965758,116.283033 L331.369547,119.756788 C331.325185,120.017296 331.598278,120.215823 331.832043,120.092805 L334.951846,118.452675 Z" id="Fill-160" fill="#F1937A"></path>
                    <path d="M347.778877,118.452675 L350.89868,120.092805 C351.132445,120.215823 351.405538,120.017296 351.361176,119.756788 L350.76528,116.283033 L353.289187,113.82268 C353.478276,113.63831 353.373821,113.31708 353.112684,113.279011 L349.624456,112.772153 L348.064555,109.611448 C347.947829,109.374537 347.609924,109.374537 347.493199,109.611448 L345.933297,112.772153 L342.44507,113.279011 C342.183932,113.31708 342.079478,113.63831 342.268566,113.82268 L344.792473,116.283033 L344.196577,119.756788 C344.152215,120.017296 344.425308,120.215823 344.659073,120.092805 L347.778877,118.452675 Z" id="Fill-162" fill="#BFE9EA"></path>
                    <path d="M340.285685,113.279074 L336.797772,112.772216 L335.23787,109.611511 C335.17935,109.493213 335.065457,109.433749 334.951878,109.433749 L334.951878,118.452737 L338.071681,120.092868 C338.305446,120.215571 338.578854,120.017044 338.534178,119.756851 L337.938281,116.282781 L340.462503,113.822743 C340.651592,113.638373 340.547137,113.317143 340.285685,113.279074" id="Fill-164" fill="#BFE9EA"></path>
                    <path d="M298.825773,123.53365 L298.825773,130.057991 C298.825773,131.422198 300.580427,131.977508 301.365097,130.861854 L306.520513,123.53365 L298.825773,123.53365 Z" id="Fill-166" fill="#F6F7FF"></path>
                    <path d="M308.378457,262.509699 C308.378457,262.509699 303.27401,265.657189 300.296731,266.848038 C297.319452,268.039202 296.553659,268.719732 296.553659,269.485524 C296.553659,270.676373 304.645138,270.506162 307.574909,270.250688 C310.50531,269.995843 315.864601,270.506162 316.119446,269.740369 C316.37492,268.974891 316.800291,265.827401 316.119446,263.275492 L308.378457,262.509699 Z" id="Fill-168" fill="#1D1D1B"></path>
                    <path d="M336.584867,262.509699 C336.584867,262.509699 341.688999,265.657189 344.666593,266.848038 C347.643557,268.039202 348.40935,268.719732 348.40935,269.485524 C348.40935,270.676373 340.317871,270.506162 337.3881,270.250688 C334.458014,269.995843 329.098722,270.506162 328.843563,269.740369 C328.588404,268.974891 328.162718,265.827401 328.843563,263.275492 L336.584867,262.509699 Z" id="Fill-170" fill="#1D1D1B"></path>
                    <path d="M309.831733,197.811907 C309.831733,197.811907 308.577016,213.248894 308.211109,226.050597 C307.844887,238.8523 307.574941,262.703884 307.574941,262.703884 C307.574941,262.703884 311.617849,265.53392 317.007973,264.186389 C317.007973,264.186389 318.624822,240.738781 319.298745,235.618288 C319.972353,230.497481 322.784141,218.234728 322.784141,218.234728 C322.784141,218.234728 328.731463,213.383553 323.341653,200.582164 L309.831733,197.811907 Z" id="Fill-172" fill="#2880FF"></path>
                    <path d="M335.199801,199.63883 C335.199801,199.63883 337.625546,206.107168 336.008383,215.270254 C336.008383,215.270254 336.042362,230.63236 336.564322,236.696093 C337.086596,242.760455 337.357487,262.434473 337.357487,262.434473 C337.357487,262.434473 334.256561,264.994876 328.192828,263.377713 C328.192828,263.377713 326.108449,243.83804 325.600647,236.426776 C325.093475,229.015197 322.784141,216.483126 322.784141,216.483126 L323.341653,200.58207 L335.199801,199.63883 Z" id="Fill-174" fill="#2880FF"></path>
                    <path d="M314.69672,142.719058 C314.69672,142.719058 313.199114,139.954779 311.529094,141.682375 C309.859074,143.410285 311.068485,148.420659 314.293688,148.305507 L314.69672,142.719058 Z" id="Fill-176" fill="#FFA1C0"></path>
                    <path d="M318.209802,153.488767 L325.745028,152.489524 C325.745028,152.489524 325.397369,155.880218 326.701482,160.140216 C326.701482,160.140216 322.528635,162.48762 317.573005,160.922684 C317.573005,160.922684 318.150968,156.92225 318.209802,153.488767" id="Fill-178" fill="#FFA1C0"></path>
                    <path d="M313.199176,146.00171 C313.199176,146.00171 314.005556,153.661527 316.021346,154.755786 C318.037137,155.850046 323.853576,154.986405 327.136355,152.510006 C330.419133,150.032977 331.571283,143.410474 331.11036,138.514937 C330.649752,133.619715 324.545118,132.467565 321.607796,132.467565 C318.670474,132.467565 311.932503,132.583031 313.199176,146.00171" id="Fill-180" fill="#FFA1C0"></path>
                    <path d="M351.717204,211.084758 C351.097082,207.984462 349.34117,205.219238 349.34117,205.219238 C349.34117,205.219238 347.869048,189.817489 346.963247,186.759981 C346.057133,183.702158 343.905425,177.360298 343.905425,177.360298 L337.903043,180.741554 C337.903043,180.741554 340.847602,188.005574 341.300659,190.61034 C341.753402,193.215105 344.811539,205.78556 344.811539,205.78556 C344.811539,205.78556 343.430658,207.364339 343.261706,208.999121 C343.092753,210.633589 343.756923,211.535928 343.622264,213.05776 C343.48729,214.579593 344.050466,215.932473 344.811539,214.86181 C345.240056,214.258677 345.427572,213.084189 345.589603,212.001885 C345.852942,213.153721 346.138935,214.47797 346.249367,215.24565 C346.474952,216.813418 349.067762,216.721862 350.529501,216.158057 C351.990611,215.594567 352.337326,214.185055 351.717204,211.084758" id="Fill-182" fill="#FFA1C0"></path>
                    <path d="M313.100857,141.187409 C313.100857,141.187409 314.095381,145.777447 315.834303,148.307647 C317.572911,150.837532 318.88898,153.310785 319.398669,154.228226 C319.908359,155.145667 320.094301,155.619175 324.180312,155.619175 C328.266324,155.619175 327.918665,155.445189 329.39645,152.489618 C330.87455,149.533419 333.309104,145.882217 333.221954,142.404686 C333.221954,142.404686 335.829865,142.317536 335.829865,141.187409 C335.829865,140.057283 333.39594,139.883296 333.39594,139.883296 C333.39594,139.883296 336.351511,138.405196 335.829865,137.101398 C335.308535,135.797285 332.700308,137.101398 332.700308,137.101398 C332.700308,137.101398 331.83069,131.276464 322.876199,131.276464 C318.529365,131.276464 317.224937,131.798109 317.224937,131.798109 C317.224937,131.798109 316.68882,128.92906 314.696626,129.189883 C312.704431,129.450706 314.008545,132.467628 314.008545,132.467628 C314.008545,132.467628 310.531014,130.529234 310.270192,132.467628 C310.009369,134.406021 312.269622,135.971271 312.269622,135.971271 C312.269622,135.971271 311.370429,138.955158 311.880433,141.38279 L313.100857,141.187409 Z" id="Fill-184" fill="#1D1D1B"></path>
                    <path d="M297.775592,173.227377 L290.828712,162.792269 C290.828712,162.792269 290.91429,162.602552 291.014655,162.251747 L291.014969,162.252376 C291.014969,162.252376 293.399184,160.295105 293.399184,158.559958 C293.399184,156.825126 293.622881,155.369994 293.846893,154.474576 C294.07059,153.579473 293.588902,152.627738 292.430774,153.579473 C291.390629,154.433675 291.804673,156.956009 291.13956,157.948645 C291.070972,157.585885 290.979731,157.262137 290.86804,156.974886 C290.86804,156.974886 288.977784,148.878059 287.634972,149.382085 C286.649887,149.751453 287.471683,153.308268 287.980114,155.18059 C287.444311,155.22684 286.859112,155.377545 286.235528,155.619175 C283.717284,156.59608 282.59817,157.608538 283.717284,160.239102 C284.836714,162.869352 287.136295,163.871741 287.136295,163.871741 C287.136295,163.871741 291.227655,176.299043 293.423095,179.093212 C295.61885,181.887065 296.815992,182.186587 301.705865,177.795705 L297.775592,173.227377 Z" id="Fill-186" fill="#FFA1C0"></path>
                    <path d="M308.210983,162.252407 C301.973893,166.330553 297.775561,173.227408 297.775561,173.227408 C297.775561,173.227408 299.454705,179.0794 305.691795,180.741554 L311.569271,176.405732 L308.210983,162.252407 Z" id="Fill-188" fill="#3338CA"></path>
                    <path d="M337.357613,163.331785 C342.155302,167.170188 345.394033,177.725167 345.394033,177.725167 C345.394033,177.725167 344.501447,180.963898 335.891783,183.122842 L337.357613,163.331785 Z" id="Fill-190" fill="#3338CA"></path>
                    <path d="M308.210983,162.252407 C308.210983,162.252407 312.141885,158.893805 323.070636,158.893805 C333.999073,158.893805 337.357676,163.33188 337.357676,163.33188 L336.398075,200.994793 C336.398075,200.994793 323.084165,204.953067 308.210983,200.394806 L308.210983,162.252407 Z" id="Fill-192" fill="#3338CA"></path>
                    <path d="M149.559816,152.815568 L76.9781329,152.815568 C72.7398438,152.815568 69.3041586,149.379883 69.3041586,145.141908 L69.3041586,106.73554 C69.3041586,102.497251 72.7398438,99.0615662 76.9781329,99.0615662 L149.559816,99.0615662 C153.798105,99.0615662 157.23379,102.497251 157.23379,106.73554 L157.23379,145.141908 C157.23379,149.379883 153.798105,152.815568 149.559816,152.815568" id="Fill-194" fill="#00CCCC"></path>
                    <polygon id="Fill-196" fill="#1A003D" points="69.3039383 120.434297 157.23357 120.434297 157.23357 110.151467 69.3039383 110.151467"></polygon>
                    <path d="M118.385062,133.512932 L80.3735464,133.512932 C78.0815164,133.512932 76.2236665,131.655082 76.2236665,129.363052 C76.2236665,127.070707 78.0815164,125.212857 80.3735464,125.212857 L118.385062,125.212857 C120.677092,125.212857 122.534942,127.070707 122.534942,129.363052 C122.534942,131.655082 120.677092,133.512932 118.385062,133.512932" id="Fill-198" fill="#FFFFFF"></path>
                    <path d="M144.082163,133.512932 L131.775048,133.512932 C129.483332,133.512932 127.624853,131.655082 127.624853,129.363052 C127.624853,127.070707 129.483332,125.212857 131.775048,125.212857 L144.082163,125.212857 C146.374193,125.212857 148.232043,127.070707 148.232043,129.363052 C148.232043,131.655082 146.374193,133.512932 144.082163,133.512932" id="Fill-200" fill="#FFFFFF"></path>
                    <path d="M146.891654,140.858345 L108.942433,140.858345 C108.20181,140.858345 107.601824,140.258358 107.601824,139.517735 C107.601824,138.777742 108.20181,138.177441 108.942433,138.177441 L146.891654,138.177441 C147.632277,138.177441 148.232263,138.777742 148.232263,139.517735 C148.232263,140.258358 147.632277,140.858345 146.891654,140.858345" id="Fill-202" fill="#F6E5E1"></path>
                    <path d="M146.891654,146.101257 L129.048429,146.101257 C128.30812,146.101257 127.707819,145.501271 127.707819,144.760648 C127.707819,144.020654 128.30812,143.420353 129.048429,143.420353 L146.891654,143.420353 C147.632277,143.420353 148.232263,144.020654 148.232263,144.760648 C148.232263,145.501271 147.632277,146.101257 146.891654,146.101257" id="Fill-204" fill="#F6E5E1"></path>
                    <path d="M122.636156,146.101257 L113.299398,146.101257 C112.55909,146.101257 111.958789,145.501271 111.958789,144.760648 C111.958789,144.020654 112.55909,143.420353 113.299398,143.420353 L122.636156,143.420353 C123.376465,143.420353 123.976451,144.020654 123.976451,144.760648 C123.976451,145.501271 123.376465,146.101257 122.636156,146.101257" id="Fill-206" fill="#F6E5E1"></path>
                    <path d="M105.081472,146.101257 L78.789041,146.101257 C78.0487327,146.101257 77.4484316,145.501271 77.4484316,144.760648 C77.4484316,144.020654 78.0487327,143.420353 78.789041,143.420353 L105.081472,143.420353 C105.822095,143.420353 106.422081,144.020654 106.422081,144.760648 C106.422081,145.501271 105.822095,146.101257 105.081472,146.101257" id="Fill-208" fill="#F6E5E1"></path>
                    <path d="M48.9988182,257.984505 C48.9988182,257.984505 50.3935428,261.375514 50.860129,264.679372 C51.2131362,267.179683 50.5694172,269.629653 51.0463859,270.522554 C52.153545,272.595606 57.0575767,270.189683 59.5887202,270.522554 C62.1195492,270.855425 69.2813169,270.69717 69.4971484,268.799048 C69.7126653,266.900926 66.0743627,267.058867 63.2270228,265.951394 C60.3793683,264.844235 56.5330998,263.702467 56.5330998,263.702467 L56.0029597,259.08663 L48.9988182,257.984505 Z" id="Fill-210" fill="#FFA1C0"></path>
                    <path d="M44.5642987,139.295674 C50.3574555,140.307817 52.7495357,144.633257 51.8663884,149.688937 C50.9829264,154.744932 50.6274022,159.888392 46.4372506,158.398651 C42.2470989,156.90891 35.7872555,153.500912 36.9463273,146.865508 C38.1057138,140.229791 41.6087284,138.779063 44.5642987,139.295674" id="Fill-212" fill="#FFA1C0"></path>
                    <path d="M44.4712017,155.299078 C44.4712017,155.299078 43.2658802,158.358788 42.8641064,161.139113 C42.8641064,161.139113 42.1728793,162.695554 40.0573529,162.326187 C37.9418266,161.956504 36.8815464,160.345948 36.8815464,160.345948 C36.8815464,160.345948 38.9407552,155.975517 39.4922897,153.909072 L44.4712017,155.299078 Z" id="Fill-214" fill="#FFA1C0"></path>
                    <path d="M34.4055563,158.660071 C41.0315207,157.122508 43.9760792,160.067381 46.9209523,167.613303 C49.8658253,175.159226 50.7860982,177.387388 50.7860982,180.966541 C50.7860982,184.546009 49.1296071,194.484641 49.4977162,197.981363 C49.8658253,201.478715 54.0990804,214.178165 54.4671895,223.01247 C54.8352987,231.847089 56.0664192,256.509772 56.0028653,259.086536 C55.9396261,261.6633 26.4594329,261.078101 20.9698875,259.862397 C19.1293418,259.454645 17.6569053,239.501242 18.0250144,234.293914 C18.3931235,229.086271 24.2828697,216.754614 24.2828697,210.865498 C24.2828697,204.975751 27.7795919,195.339787 29.6204522,190.311164 C31.4606832,185.282227 31.2766286,166.538865 31.2766286,162.382693 C31.2766286,158.226835 34.4055563,158.660071 34.4055563,158.660071" id="Fill-216" fill="#00CCCC"></path>
                    <path d="M33.3288213,232.11197 C33.3288213,232.11197 27.3176306,238.267888 25.2609388,242.697468 C23.2045616,247.127048 23.679328,261.047865 23.0463062,265.002364 C22.4135989,268.957178 21.1481844,272.279284 23.8372689,272.279284 C26.5266679,272.279284 42.1876666,273.386443 41.2384484,271.17181 C40.2892302,268.957178 29.2157523,267.375252 28.4251043,265.002364 C27.6338269,262.629476 33.3288213,244.279393 33.3288213,244.279393 L33.3288213,232.11197 Z" id="Fill-218" fill="#FFA1C0"></path>
                    <path d="M36.8816723,160.345948 C33.8024551,161.465063 34.9486274,168.114939 38.2273157,175.00676 C41.5063186,181.898581 42.0619431,185.566458 46.9530753,185.566458 L62.8484682,185.566458 L63.7375934,181.112967 C63.7375934,181.112967 48.7316402,179.675453 47.2862612,179.230576 C45.8415115,178.786013 42.4866844,158.308763 36.8816723,160.345948" id="Fill-220" fill="#FFA1C0"></path>
                    <path d="M63.7375619,181.112904 C68.3754224,181.47063 71.6644932,185.579295 72.2638504,188.390138 C72.8632076,191.200667 68.8567959,192.74295 68.8055123,190.571735 C68.7542287,188.400835 68.6755729,185.359058 66.4738398,185.566395 C64.2721067,185.773732 64.5272661,186.86044 62.8484368,185.566395 C61.1696074,184.272664 63.7375619,181.112904 63.7375619,181.112904" id="Fill-222" fill="#FFA1C0"></path>
                    <path d="M59.733793,183.477203 C59.733793,183.477203 60.7100688,187.83379 62.8230781,189.053584 C64.9360875,190.273378 65.9765464,192.538665 67.0170053,191.928611 C68.0574642,191.318871 65.9070147,189.876009 65.9891313,188.463036 C66.071248,187.049434 64.1794187,183.477203 64.1794187,183.477203 L59.733793,183.477203 Z" id="Fill-224" fill="#FFA1C0"></path>
                    <path d="M41.9050406,149.721249 C41.9050406,149.721249 44.2854796,150.323123 45.486711,149.061799 C46.6879423,147.800474 47.4776465,144.914121 47.4776465,144.914121 C47.4776465,144.914121 51.6784954,147.773417 54.2143583,146.826715 C56.7502213,145.880014 56.4359127,141.738315 54.2382697,140.21019 C54.2382697,140.21019 55.2261865,135.887267 50.7091413,134.607694 C46.1917815,133.328122 36.2792632,129.71436 34.1071047,137.468878 C34.1071047,137.468878 30.1343577,140.251405 30.9495464,144.315078 C31.2553601,145.840057 31.2223247,148.368054 29.097045,149.304688 C26.9717653,150.241006 23.4895159,152.394602 24.0542645,156.179834 C24.6190131,159.965695 25.9936018,161.922022 24.4198566,163.445112 C22.8457968,164.968518 22.3194322,167.982608 24.5425597,169.760229 C26.7656872,171.538479 30.9624459,171.112165 33.8720812,168.611225 C36.7817165,166.110286 38.5955192,160.322163 39.4132249,153.773596 C39.569278,152.523598 41.9050406,149.721249 41.9050406,149.721249" id="Fill-226" fill="#E94E1B"></path>
                    <path d="M41.9050406,149.721249 C41.9050406,149.721249 41.6404424,147.533044 39.783851,147.785372 C37.9272595,148.037385 37.0441122,153.897242 41.1508888,154.038194 L41.9050406,149.721249 Z" id="Fill-228" fill="#FFA1C0"></path>
                    <path d="M36.9867564,268.876194 C36.9867564,268.876194 35.7461972,270.000342 34.4810973,270.345484 C33.2159975,270.690626 22.3061236,269.066541 22.3061236,269.066541 C22.0220189,270.992035 22.1635993,272.279158 23.8373947,272.279158 C26.5264791,272.279158 42.1874778,273.386632 41.2382596,271.171999 C40.88305,270.342967 39.1092045,269.602659 36.9867564,268.876194" id="Fill-230" fill="#1D1D1B"></path>
                    <path d="M63.2270858,265.951488 C62.6261555,269.257863 55.9073772,268.331927 50.9105317,268.134658 C50.8513825,269.202804 50.8026159,270.066445 51.0464489,270.522334 C51.6344796,271.62383 53.2944316,271.461169 55.1006833,271.116342 C55.2067113,271.096206 55.3136832,271.075127 55.4206551,271.054047 C55.6349135,271.011258 55.8501158,270.966896 56.065318,270.922849 C56.2805203,270.878802 56.4954079,270.834755 56.7087225,270.792595 C56.922037,270.750436 57.1334638,270.710164 57.3417443,270.673667 C57.6541652,270.618608 57.959035,270.572044 58.2519492,270.539638 C58.7396152,270.485208 59.1929872,270.470421 59.5887832,270.522334 C59.8256944,270.553796 60.1038213,270.580539 60.4130959,270.602248 C60.5159777,270.609484 60.622635,270.615777 60.7321239,270.622069 C61.1707086,270.645666 61.6590038,270.659509 62.1743566,270.660768 C62.9473857,270.662656 63.7814518,270.635913 64.6001014,270.572673 C64.8731943,270.551908 65.1443995,270.527053 65.4108853,270.497478 C65.5446002,270.482691 65.6767419,270.467275 65.8073106,270.44997 C66.3305289,270.382326 66.8295213,270.296749 67.2825787,270.190721 C67.3958431,270.163978 67.5062758,270.136291 67.6132477,270.107031 C67.8275061,270.048511 68.0285503,269.984957 68.2138634,269.916055 C68.9551156,269.639501 69.4430962,269.273909 69.4972114,268.799142 C69.7127283,266.900706 66.0744257,267.058962 63.2270858,265.951488" id="Fill-232" fill="#1D1D1B"></path>
                    <path d="M49.8603509,190.847503 C42.5645537,190.397591 30.2335269,187.754127 30.2335269,187.754127 L30.2328977,187.754442 C30.058911,188.791755 29.8562937,189.665463 29.6203263,190.31107 C29.4073264,190.892808 29.1716736,191.538415 28.9221774,192.230586 C34.7471112,192.772682 44.8156826,194.255816 49.5045121,194.966549 C49.5768754,193.725361 49.7083879,192.308298 49.8603509,190.847503" id="Fill-234" fill="#E94E1B"></path>
                    <path d="M150.813683,199.497186 L134.172948,199.858688 C132.807169,199.888578 131.675469,198.805015 131.64558,197.438921 L131.328125,182.825303 C131.298551,181.459209 132.382113,180.32751 133.748207,180.297935 L150.388628,179.936433 C151.754721,179.906544 152.886421,180.990106 152.91631,182.356515 L153.23345,196.970133 C153.26334,198.336227 152.179777,199.467612 150.813683,199.497186" id="Fill-236" fill="#F4C5B8"></path>
                    <path d="M152.43566,184.130706 L131.885417,184.577157 C131.252395,184.591 130.728233,184.089176 130.71439,183.456154 L130.67223,181.511154 C130.658387,180.878132 131.160211,180.35397 131.793233,180.340441 L152.34379,179.89399 C152.976498,179.880147 153.50066,180.381971 153.514503,181.014993 L153.556663,182.959994 C153.570192,183.593015 153.068682,184.117178 152.43566,184.130706" id="Fill-238" fill="#EB6137"></path>
                    <polygon id="Fill-240" fill="#00CCCC" points="143.852331 199.648646 141.134301 199.70748 140.709245 180.146727 143.427275 180.087578"></polygon>
                    <polygon id="Fill-242" fill="#00CCCC" points="153.067361 189.317396 153.126195 192.03574 131.538325 192.504843 131.47949 189.786499"></polygon>
                    <path d="M146.300508,242.851885 L104.420386,238.214024 C103.062157,238.06332 102.08305,236.840694 102.233755,235.482151 L106.384893,197.996056 C106.535283,196.637828 107.758223,195.65872 109.116137,195.80911 L150.996889,200.447285 C152.354802,200.597361 153.33391,201.820616 153.18352,203.178529 L149.032381,240.664939 C148.881677,242.023167 147.658736,243.002589 146.300508,242.851885" id="Fill-244" fill="#1D1D1B"></path>
                    <path d="M152.659326,209.928896 L105.419598,204.697341 C104.790666,204.627495 104.336665,204.061173 104.406511,203.431927 L105.17136,196.525319 C105.240892,195.896072 105.807528,195.4427 106.436774,195.512546 L153.676188,200.744101 C154.305435,200.813633 154.759121,201.379954 154.689275,202.009201 L153.924426,208.915809 C153.854894,209.544741 153.288258,209.998428 152.659326,209.928896" id="Fill-246" fill="#484847"></path>
                    <path d="M95.1810038,176.865491 C94.5866805,176.865491 93.9520856,177.021544 93.5386707,177.564898 C92.9723489,178.308667 92.9559885,179.557721 93.4965112,180.746997 C93.939186,181.719183 94.9978931,182.732584 97.5334414,182.036637 L102.130401,180.775942 C100.192007,178.846987 98.1022801,177.282366 95.8077332,176.917718 C95.6129814,176.88657 95.3996669,176.865491 95.1810038,176.865491 M96.0267109,185.747303 C93.4512054,185.747303 91.3636806,184.48944 90.3191316,182.192376 C89.2365132,179.812881 89.4064097,177.229195 90.7611771,175.449686 C91.999534,173.823399 94.0382923,173.102912 96.3554921,173.469762 C100.522991,174.132044 103.782802,177.25877 106.684886,180.538716 C106.914246,180.797966 107.06149,181.119511 107.107425,181.462765 C107.11592,181.524745 107.293053,182.980507 105.718678,183.41217 L98.4565458,185.40342 C97.6127264,185.634668 96.798167,185.747303 96.0267109,185.747303" id="Fill-248" fill="#E94E1B"></path>
                    <path d="M112.838287,171.983923 C112.196455,171.983923 111.600244,172.348886 111.171728,172.70441 C109.384039,174.188488 108.38511,176.600074 107.701748,179.247943 L112.298393,177.987248 C114.833941,177.292245 115.228479,175.88116 115.112698,174.819622 C114.971117,173.520543 114.319847,172.454599 113.453375,172.103794 C113.246353,172.01979 113.040275,171.983923 112.838287,171.983923 M105.377627,183.440927 C104.943761,183.440927 104.519335,183.27921 104.192756,182.977172 C103.750081,182.568476 103.549981,181.959681 103.663245,181.367245 C104.486299,177.065717 105.695711,172.71322 108.941678,170.018472 C110.747301,168.519607 112.869434,168.101158 114.763466,168.86758 C116.836833,169.70731 118.300145,171.843286 118.583306,174.441759 C118.938516,177.701885 116.883712,180.350383 113.221812,181.354031 L105.839179,183.378946 C105.686901,183.420791 105.531478,183.440927 105.377627,183.440927" id="Fill-250" fill="#E94E1B"></path>
                    <path d="M130.568436,210.68289 L98.4963771,219.477867 C97.1787352,219.839369 95.8173606,219.063823 95.4558586,217.745866 L87.6097854,189.133404 C87.248598,187.815447 88.0238295,186.454073 89.3417861,186.092885 L121.41353,177.297909 C122.731487,176.936407 124.092862,177.711953 124.454049,179.029909 L132.300437,207.642372 C132.661624,208.960014 131.886393,210.321703 130.568436,210.68289" id="Fill-252" fill="#00CCCC"></path>
                    <path d="M125.748,183.884294 L88.9732679,193.968911 C88.3628989,194.13629 87.7323941,193.776991 87.5650145,193.166622 L86.1882234,188.145865 C86.0205293,187.535496 86.379829,186.904991 86.9901979,186.737297 L123.76493,176.653309 C124.375613,176.485615 125.006118,176.844914 125.173498,177.455283 L126.550289,182.475725 C126.717354,183.086409 126.358054,183.716914 125.748,183.884294" id="Fill-254" fill="#F6E5E1"></path>
                    <polygon id="Fill-256" fill="#E94E1B" points="116.852218 214.444242 112.213099 215.716578 103.057879 182.331597 107.696998 181.05926"></polygon>
                    <polygon id="Fill-258" fill="#E94E1B" points="128.215495 192.746285 129.487517 197.385404 92.6432531 207.488584 91.3712315 202.84978"></polygon>
                    <path d="M98.5493596,240.094621 L151.362323,240.094621 L163.107522,202.026788 L86.8041613,202.026788 L98.5493596,240.094621 Z M152.972565,244.45876 L96.9391182,244.45876 C95.9820344,244.45876 95.1363273,243.834862 94.8544249,242.919623 L81.7626392,200.487966 C81.5581341,199.825999 81.6805226,199.10677 82.0917351,198.549258 C82.5029476,197.99206 83.1545322,197.662965 83.8473325,197.662965 L166.064351,197.662965 C166.757151,197.662965 167.408735,197.99206 167.820263,198.549258 C168.231475,199.10677 168.353549,199.825999 168.149358,200.487966 L155.057573,242.919623 C154.775356,243.834862 153.929649,244.45876 152.972565,244.45876 L152.972565,244.45876 Z" id="Fill-260" fill="#E94E1B"></path>
                    <path d="M153.054147,244.466783 L96.9392125,244.466783 C95.7338911,244.466783 94.7573007,243.489878 94.7573007,242.284871 C94.7573007,241.079864 95.7338911,240.102959 96.9392125,240.102959 L153.054147,240.102959 C154.258839,240.102959 155.236058,241.079864 155.236058,242.284871 C155.236058,243.489878 154.258839,244.466783 153.054147,244.466783" id="Fill-262" fill="#FF4673"></path>
                    <path d="M160.546111,216.129175 L88.1635851,216.129175 C86.9582637,216.129175 85.9816733,215.15227 85.9816733,213.947263 C85.9816733,212.742256 86.9582637,211.765351 88.1635851,211.765351 L160.546111,211.765351 C161.751118,211.765351 162.728338,212.742256 162.728338,213.947263 C162.728338,215.15227 161.751118,216.129175 160.546111,216.129175" id="Fill-264" fill="#E94E1B"></path>
                    <path d="M156.978347,231.475676 L92.9050196,231.475676 C91.6996981,231.475676 90.7227931,230.498771 90.7227931,229.29345 C90.7227931,228.088758 91.6996981,227.111853 92.9050196,227.111853 L156.978347,227.111853 C158.183354,227.111853 159.160574,228.088758 159.160574,229.29345 C159.160574,230.498771 158.183354,231.475676 156.978347,231.475676" id="Fill-266" fill="#E94E1B"></path>
                    <path d="M107.469431,262.858427 C107.469431,266.472504 104.539659,269.40259 100.925268,269.40259 C97.3111915,269.40259 94.3811057,266.472504 94.3811057,262.858427 C94.3811057,259.244351 97.3111915,256.314265 100.925268,256.314265 C104.539659,256.314265 107.469431,259.244351 107.469431,262.858427" id="Fill-268" fill="#1D1D1B"></path>
                    <path d="M70.6714166,188.390107 C70.6714166,190.92597 68.6156686,192.981718 66.0798057,192.981718 C63.5439428,192.981718 61.4881948,190.92597 61.4881948,188.390107 C61.4881948,185.853929 63.5439428,183.798181 66.0798057,183.798181 C68.6156686,183.798181 70.6714166,185.853929 70.6714166,188.390107" id="Fill-270" fill="#F5D6CD"></path>
                    <path d="M152.456237,254.862247 L89.7700826,254.862247 C85.7007463,254.862247 82.390281,251.552097 82.390281,247.48276 C82.390281,243.471315 85.6076178,240.197346 89.5970399,240.105161 L74.294397,190.57183 L66.0795855,190.57183 C64.8745787,190.57183 63.8976736,189.594925 63.8976736,188.390232 C63.8976736,187.185226 64.8745787,186.208006 66.0795855,186.208006 L75.9040093,186.208006 C76.8607784,186.208006 77.7061709,186.831589 77.9887026,187.745884 L94.5529844,241.362081 C94.6838676,241.64241 94.7568602,241.955146 94.7568602,242.284871 C94.7568602,243.489878 93.7802698,244.466783 92.575263,244.466783 L89.7700826,244.466783 C88.1069844,244.466783 86.7541047,245.819977 86.7541047,247.48276 C86.7541047,249.145544 88.1069844,250.498424 89.7700826,250.498424 L152.456237,250.498424 C153.661244,250.498424 154.638463,251.475329 154.638463,252.680336 C154.638463,253.885342 153.661244,254.862247 152.456237,254.862247" id="Fill-272" fill="#00CCCC"></path>
                    <path d="M99.233319,264.202309 L94.3812001,253.207172 L107.469525,253.207172 L102.617406,264.202309 C101.840916,265.962626 100.010124,265.962626 99.233319,264.202309" id="Fill-274" fill="#00CCCC"></path>
                    <path d="M150.490471,262.858427 C150.490471,266.472504 147.560385,269.40259 143.946309,269.40259 C140.331917,269.40259 137.401832,266.472504 137.401832,262.858427 C137.401832,259.244351 140.331917,256.314265 143.946309,256.314265 C147.560385,256.314265 150.490471,259.244351 150.490471,262.858427" id="Fill-276" fill="#1D1D1B"></path>
                    <path d="M142.254328,264.202309 L137.401895,253.207172 L150.490534,253.207172 L145.638415,264.202309 C144.86161,265.962626 143.030818,265.962626 142.254328,264.202309" id="Fill-278" fill="#00CCCC"></path>
                    <path d="M76.6948776,15.9569647 L112.941986,15.9569647 L122.063857,15.9569647 C117.02611,15.9569647 112.942301,20.0404591 112.941986,25.077891 L112.941986,79.3463016 C112.941986,79.6096412 112.852319,79.8651153 112.6884,80.0708788 L109.632465,83.9061356 C109.401846,84.1955889 108.962003,84.1962181 108.730755,83.9073941 L105.850065,80.3147118 C105.618817,80.026517 105.180547,80.026517 104.949299,80.3147118 L102.06735,83.9092818 C101.836417,84.1974766 101.397518,84.1974766 101.166584,83.9092818 L98.2846357,80.3147118 C98.0533876,80.026517 97.6151175,80.026517 97.3838695,80.3147118 L94.5019211,83.9092818 C94.2709876,84.1974766 93.8324029,84.1974766 93.6014695,83.9092818 L90.719521,80.3147118 C90.488273,80.026517 90.0496883,80.026517 89.8184402,80.3147118 L86.9364918,83.9092818 C86.7055583,84.1974766 86.2669736,84.1974766 86.0360402,83.9092818 L83.1537771,80.3147118 C82.9228437,80.026517 82.484259,80.026517 82.2533255,80.3147118 L79.3710625,83.9092818 C79.1401291,84.1974766 78.7015443,84.1974766 78.4706109,83.9092818 L75.5883478,80.3147118 C75.3574144,80.026517 74.9188297,80.026517 74.6878963,80.3147118 L71.8056332,83.9092818 C71.5746998,84.1974766 71.1364297,84.1974766 70.9051816,83.9092818 L67.8284814,80.0718227 C67.6629896,79.8654299 67.5726928,79.609012 67.5726928,79.3444139 L67.5726928,25.077891 C67.573322,20.0404591 71.657131,15.9569647 76.6948776,15.9569647" id="Fill-280" fill="#F6E5E1"></path>
                    <path d="M112.941829,25.0788664 C112.941829,20.0408052 117.025638,15.9569962 122.063699,15.9569962 C127.10176,15.9569962 131.185569,20.0408052 131.185569,25.0788664 L131.185569,36.2215614 C131.185569,36.5129024 131.091812,36.7960633 130.917511,37.0295137 L128.248877,40.6036332 C127.954075,40.9987999 127.363842,41.0057216 127.059601,40.6174766 L124.555515,37.4221635 C124.255679,37.0395817 123.676458,37.0395817 123.376622,37.4221635 L120.858063,40.6360394 C120.558227,41.0186212 119.979006,41.0186212 119.67917,40.6360394 L117.166275,37.4290852 C116.864866,37.044301 116.28124,37.0471326 115.983291,37.4344338 L112.941829,41.3879888 L112.941829,25.0788664 Z" id="Fill-282" fill="#F3B5A3"></path>
                    <path d="M82.8541615,28.672461 L105.801833,28.672461 C106.654147,28.672461 107.345689,27.9812339 107.345689,27.128605 C107.345689,26.2759762 106.654147,25.584749 105.801833,25.584749 L82.8541615,25.584749 C82.0015326,25.584749 81.3103055,26.2759762 81.3103055,27.128605 C81.3103055,27.9812339 82.0015326,28.672461 82.8541615,28.672461" id="Fill-286" fill="#CBCBCA"></path>
                    <path d="M92.3942603,37.3739003 L105.801613,37.3739003 C106.654242,37.3739003 107.345469,36.6826731 107.345469,35.8300443 C107.345469,34.9774154 106.654242,34.2861882 105.801613,34.2861882 L92.3942603,34.2861882 C91.5416314,34.2861882 90.8504043,34.9774154 90.8504043,35.8300443 C90.8504043,36.6826731 91.5416314,37.3739003 92.3942603,37.3739003" id="Fill-288" fill="#CBCBCA"></path>
                    <path d="M72.6106281,37.3739003 L76.2410651,37.3739003 C77.093694,37.3739003 77.7846065,36.6826731 77.7846065,35.8300443 C77.7846065,34.9774154 77.093694,34.2861882 76.2410651,34.2861882 L72.6106281,34.2861882 C71.7579992,34.2861882 71.0667721,34.9774154 71.0667721,35.8300443 C71.0667721,36.6826731 71.7579992,37.3739003 72.6106281,37.3739003" id="Fill-290" fill="#CBCBCA"></path>
                    <path d="M72.6106281,50.0411648 L76.2410651,50.0411648 C77.093694,50.0411648 77.7846065,49.3499377 77.7846065,48.4973088 C77.7846065,47.64468 77.093694,46.9534528 76.2410651,46.9534528 L72.6106281,46.9534528 C71.7579992,46.9534528 71.0667721,47.64468 71.0667721,48.4973088 C71.0667721,49.3499377 71.7579992,50.0411648 72.6106281,50.0411648" id="Fill-292" fill="#CBCBCA"></path>
                    <path d="M72.6106281,56.5119886 L79.2721449,56.5119886 C80.1247738,56.5119886 80.816001,55.8207614 80.816001,54.9681326 C80.816001,54.1155037 80.1247738,53.4242766 79.2721449,53.4242766 L72.6106281,53.4242766 C71.7579992,53.4242766 71.0667721,54.1155037 71.0667721,54.9681326 C71.0667721,55.8207614 71.7579992,56.5119886 72.6106281,56.5119886" id="Fill-294" fill="#CBCBCA"></path>
                    <path d="M96.3620678,43.7075483 L105.801707,43.7075483 C106.654336,43.7075483 107.345563,43.0163211 107.345563,42.1636923 C107.345563,41.3110634 106.654336,40.6198363 105.801707,40.6198363 L96.3620678,40.6198363 C95.5094389,40.6198363 94.8182117,41.3110634 94.8182117,42.1636923 C94.8182117,43.0163211 95.5094389,43.7075483 96.3620678,43.7075483" id="Fill-296" fill="#CBCBCA"></path>
                    <path d="M89.3951776,50.0411648 L105.801519,50.0411648 C106.654147,50.0411648 107.345689,49.3499377 107.345689,48.4973088 C107.345689,47.64468 106.654147,46.9534528 105.801519,46.9534528 L89.3951776,46.9534528 C88.5425488,46.9534528 87.8516362,47.64468 87.8516362,48.4973088 C87.8516362,49.3499377 88.5425488,50.0411648 89.3951776,50.0411648" id="Fill-298" fill="#CBCBCA"></path>
                    <path d="M92.3942603,56.5119886 L105.801613,56.5119886 C106.654242,56.5119886 107.345469,55.8207614 107.345469,54.9681326 C107.345469,54.1155037 106.654242,53.4242766 105.801613,53.4242766 L92.3942603,53.4242766 C91.5416314,53.4242766 90.8504043,54.1155037 90.8504043,54.9681326 C90.8504043,55.8207614 91.5416314,56.5119886 92.3942603,56.5119886" id="Fill-300" fill="#CBCBCA"></path>
                    <path d="M92.3942603,69.2831103 L105.801613,69.2831103 C106.654242,69.2831103 107.345469,68.5918831 107.345469,67.7392543 C107.345469,66.8866254 106.654242,66.1953983 105.801613,66.1953983 L92.3942603,66.1953983 C91.5416314,66.1953983 90.8504043,66.8866254 90.8504043,67.7392543 C90.8504043,68.5918831 91.5416314,69.2831103 92.3942603,69.2831103" id="Fill-302" fill="#E94E1B"></path>
                    <path d="M72.6106281,43.7075483 L80.2981312,43.7075483 C81.1510747,43.7075483 81.8419872,43.0163211 81.8419872,42.1636923 C81.8419872,41.3110634 81.1510747,40.6198363 80.2981312,40.6198363 L72.6106281,40.6198363 C71.7579992,40.6198363 71.0667721,41.3110634 71.0667721,42.1636923 C71.0667721,43.0163211 71.7579992,43.7075483 72.6106281,43.7075483" id="Fill-304" fill="#CBCBCA"></path>
                    <path d="M77.6720972,119.174074 C77.6720972,125.68174 72.3964956,130.957342 65.8888294,130.957342 C59.3814779,130.957342 54.1058763,125.68174 54.1058763,119.174074 C54.1058763,112.666408 59.3814779,107.390806 65.8888294,107.390806 C72.3964956,107.390806 77.6720972,112.666408 77.6720972,119.174074" id="Fill-306" fill="#EE724E"></path>
                    <path d="M62.838243,113.449285 C64.9912095,113.426947 65.8668058,114.879876 65.8668058,114.879876 C65.8668058,114.879876 66.7134568,113.471623 68.8664233,113.449285 C71.0193898,113.426947 72.6456771,115.229423 72.663296,116.908567 C72.6806003,118.588025 72.4317333,119.790515 69.3326949,122.428945 C67.3691316,124.100538 65.9709461,124.899052 65.9709461,124.899052 C65.9709461,124.899052 64.5560856,124.129798 62.5582283,122.499421 C59.4050747,119.925489 59.1316671,118.728347 59.1140482,117.048889 C59.096744,115.369745 60.6852765,113.471623 62.838243,113.449285" id="Fill-308" fill="#FFFFFF"></path>
                    <path d="M134.538383,79.8950359 C134.538383,87.7348167 128.182995,94.0905198 120.342899,94.0905198 C112.503118,94.0905198 106.147415,87.7348167 106.147415,79.8950359 C106.147415,72.0552552 112.503118,65.6995521 120.342899,65.6995521 C128.182995,65.6995521 134.538383,72.0552552 134.538383,79.8950359" id="Fill-310" fill="#00CCCC"></path>
                    <path d="M116.63991,74.280239 C116.63991,75.349014 115.773438,76.2151716 114.704977,76.2151716 C113.636202,76.2151716 112.76973,75.349014 112.76973,74.280239 C112.76973,73.2117786 113.636202,72.3453064 114.704977,72.3453064 C115.773438,72.3453064 116.63991,73.2117786 116.63991,74.280239" id="Fill-312" fill="#FFFFFF"></path>
                    <path d="M120.342868,85.436274 L120.342868,85.436274 C117.135284,85.436274 114.534924,82.8359133 114.534924,79.6283299 L114.534924,77.410551 L126.150812,77.410551 L126.150812,79.6283299 C126.150812,82.8359133 123.550451,85.436274 120.342868,85.436274" id="Fill-314" fill="#F3B5A3"></path>
                    <path d="M127.348771,76.3386298 C127.24526,76.3386298 127.140491,76.3153476 127.041384,76.2662664 L124.293151,74.8979702 C124.058756,74.7815596 123.910254,74.5421313 123.910568,74.2800502 C123.910568,74.0182837 124.059071,73.7788555 124.293465,73.6621303 L127.038553,72.2976095 C127.379604,72.1283422 127.793963,72.267091 127.963545,72.6084572 C128.133127,72.9498234 127.994063,73.3638675 127.652697,73.533764 L126.150057,74.2806795 L127.656787,75.0304265 C127.997839,75.2003231 128.136902,75.6146818 127.967006,75.956048 C127.84619,76.1983078 127.602357,76.3386298 127.348771,76.3386298" id="Fill-316" fill="#FFFFFF"></path>
                    <path d="M279.324956,246.708473 C279.362396,248.95677 277.569988,250.809586 275.32169,250.847026 C273.073393,250.884466 271.220262,249.092058 271.183137,246.843761 C271.145697,244.595463 272.93779,242.742647 275.186402,242.704893 C277.4347,242.667767 279.287516,244.460175 279.324956,246.708473" id="Fill-318" fill="#E94E1B"></path>
                    <path d="M274.205281,3.83550841 C274.229822,5.32336149 273.044007,6.54944807 271.556154,6.5743033 C270.068301,6.59884391 268.8419,5.4130291 268.817359,3.92517602 C268.792504,2.43732295 269.978633,1.21092174 271.466486,1.18638113 C272.95434,1.1615259 274.180426,2.34765534 274.205281,3.83550841" id="Fill-320" fill="#E94E1B"></path>
                    <path d="M202.759388,264.903164 L200.752722,264.936514 L200.719686,262.930161 C200.705843,262.095781 200.018076,261.430667 199.183696,261.444511 C198.349315,261.458669 197.684202,262.14612 197.698045,262.980501 L197.73171,264.986853 L195.725043,265.020203 C194.890662,265.034047 194.225549,265.721813 194.239392,266.555879 C194.25355,267.39026 194.940687,268.055373 195.775383,268.04153 L197.781735,268.00818 L197.815085,270.014532 C197.828928,270.848913 198.516695,271.514026 199.350761,271.500183 C200.185141,271.486339 200.850569,270.798573 200.836411,269.964507 L200.803061,267.95784 L202.809413,267.924805 C203.644109,267.910961 204.308908,267.223195 204.295064,266.388814 C204.281221,265.554434 203.593454,264.88932 202.759388,264.903164" id="Fill-322" fill="#E94E1B"></path>
                    <path d="M52.6742778,86.5889275 L50.5625269,86.6241653 L50.5272891,84.5120998 C50.5128165,83.6339865 49.7891831,82.9339499 48.9107552,82.9484226 C48.0326418,82.9632099 47.3326052,83.6868432 47.3470779,84.5649565 L47.3823157,86.677022 L45.2702502,86.7119452 C44.3921369,86.7264179 43.6921003,87.4503658 43.7068876,88.3284792 C43.7213602,89.2065925 44.4449936,89.9066291 45.3231069,89.8921564 L47.4351724,89.8569186 L47.4700956,91.9689841 C47.4848829,92.8470974 48.2085162,93.5471341 49.0866295,93.5326614 C49.9650575,93.5178741 50.6650941,92.7942408 50.6503068,91.9161274 L50.6153836,89.8040619 L52.7271345,89.7691388 C53.6052478,89.7546661 54.3055991,89.0307181 54.2908118,88.1526048 C54.2763391,87.2744915 53.5527058,86.5744549 52.6742778,86.5889275" id="Fill-324" fill="#E94E1B"></path>
                </g>
            </g>
        </g>
    </g>
</svg>