<?xml version="1.0" encoding="UTF-8"?>
<svg width="200px" height="29px" viewBox="0 0 200 29" version="1.1" xmlns="http://www.w3.org/2000/svg" xmlns:xlink="http://www.w3.org/1999/xlink">
    <title>4C7CEFF5-7DE0-4592-B232-498F779CCF9C</title>
    <g id="Website" stroke="none" stroke-width="1" fill="none" fill-rule="evenodd">
        <g id="Homepage" transform="translate(-165.000000, -2794.000000)" fill="#9F9F9E">
            <g id="Group-21" transform="translate(0.000000, 2734.000000)">
                <path d="M275.575939,60.0000514 C276.696915,60.0000514 277.723702,60.1015391 278.655637,60.3038597 C279.588236,60.5055256 280.442565,60.7877269 281.218625,61.1491541 L285.681301,61.1491541 L285.681301,62.4580181 L282.431135,62.4580181 L283.595225,62.7775407 C284.112599,63.3098601 284.505935,63.8814651 284.775234,64.4930104 C285.045197,65.1052104 285.179847,65.740327 285.179847,66.4003245 C285.179847,67.3687137 284.945039,68.225139 284.47675,68.9702552 C284.007797,69.7147166 283.363734,70.3478689 282.54456,70.8690574 C281.724722,71.3909007 280.757632,71.7896491 279.641963,72.0659576 C278.526957,72.3429208 277.327049,72.4915512 276.044892,72.5131583 C275.495017,72.5347653 274.990909,72.5904199 274.53257,72.6807767 C274.074893,72.7711335 273.683547,72.8935735 273.36052,73.0480967 C273.03683,73.2019652 272.786767,73.3833335 272.609002,73.5902375 C272.431238,73.7977962 272.341693,74.0184501 272.341693,74.252854 C272.341693,74.4440437 272.396083,74.6280311 272.503538,74.8035067 C272.611656,74.9789822 272.78942,75.1335054 273.03683,75.2664216 C273.285568,75.3993377 273.608594,75.5132659 274.0079,75.6095155 C274.406543,75.7051104 274.896721,75.7745149 275.479098,75.8170742 C276.082037,75.8596336 276.753295,75.904812 277.49221,75.9526094 C278.229799,76.0004068 278.976674,76.0907636 279.730845,76.2236798 C280.485679,76.3572507 281.221278,76.5510595 281.938304,76.8064157 C282.654667,77.0617718 283.290771,77.4179609 283.845952,77.8756378 C284.401134,78.3333146 284.845544,78.9101576 285.179847,79.6074764 C285.51415,80.3041404 285.681301,81.1579466 285.681301,82.1688952 C285.681301,83.0096062 285.489608,83.8372221 285.106884,84.6510881 C284.72416,85.464954 284.107292,86.1937012 283.255616,86.8373297 C282.40394,87.4816129 281.299547,88.0028014 279.941111,88.4015499 C278.583337,88.8009531 276.933713,89 274.993563,89 C274.519304,89 273.988665,88.9626787 273.400982,88.8886909 C272.813299,88.8140483 272.209696,88.6830964 271.590175,88.4971448 C270.96999,88.3111931 270.358429,88.0669679 269.754826,87.7631595 C269.151224,87.4600059 268.601349,87.0795907 268.105865,86.6219139 C267.61038,86.1648918 267.192502,85.6266796 266.852893,85.0098962 C266.513284,84.3924581 266.300365,83.6748418 266.214136,82.8557378 C266.127907,82.0255029 266.178981,81.2836605 266.368021,80.6289011 C266.556398,79.9741417 266.821055,79.4162866 267.16,78.952717 C267.499609,78.4904568 267.876363,78.133613 268.291589,77.8834949 C268.706814,77.6340316 269.097497,77.5037344 269.464301,77.4926035 C269.22684,78.2481959 269.086884,79.0090263 269.04377,79.77444 C269.000655,80.5411633 269.04377,81.2803867 269.173113,81.9934196 C269.302456,82.7064526 269.523335,83.3743072 269.836412,83.9963287 C270.148163,84.6190048 270.550122,85.1591814 271.0403,85.6162034 C271.531141,86.0738802 272.104895,86.4353074 272.762888,86.7017945 C273.419554,86.9676268 274.163112,87.100543 274.993563,87.100543 C275.963969,87.100543 276.804369,86.9381626 277.516089,86.6140567 C278.227146,86.2892961 278.811512,85.8826905 279.270515,85.3929305 C279.728192,84.9038252 280.067801,84.3688868 280.288679,83.7894247 C280.509558,83.2093079 280.620329,82.6691313 280.620329,82.1688952 C280.620329,81.4774692 280.515528,80.8921143 280.305262,80.4134852 C280.094996,79.9348561 279.809114,79.5354529 279.448279,79.2159303 C279.086781,78.8970624 278.669566,78.6443253 278.195307,78.4583736 C277.720385,78.272422 277.219594,78.1178987 276.690945,77.9954587 C276.162959,77.8730187 275.62436,77.7695667 275.074485,77.684448 C274.525274,77.5993293 273.996624,77.5037344 273.490527,77.3970086 C272.864373,77.2693306 272.33904,77.0774861 271.913865,76.8227847 C271.488027,76.5674285 271.151071,76.2852272 270.902997,75.9768355 C270.654923,75.6684438 270.491088,75.3436832 270.410166,75.0025535 C270.329243,74.6620786 270.320621,74.3379727 270.386287,74.0289263 C270.471853,73.5502972 270.646964,73.1594058 270.910957,72.8562522 C271.17495,72.5530986 271.506599,72.3213138 271.905905,72.1622072 C271.03234,71.9703627 270.229085,71.7045304 269.49614,71.3640555 C268.763194,71.0235806 268.13306,70.6137012 267.604411,70.1350721 C267.076425,69.6557882 266.667169,69.1077546 266.375981,68.4909713 C266.084793,67.8741879 265.93953,67.1873453 265.93953,66.4324077 C265.93953,65.5700896 266.171021,64.7509856 266.634667,63.9744409 C267.098314,63.1978963 267.749673,62.5143275 268.590736,61.9230797 C269.4318,61.3324867 270.444657,60.8649885 271.630636,60.5186208 C272.816615,60.1729078 274.131274,60.0000514 275.575939,60.0000514 Z M303.15837,60.463621 C304.375524,60.8505838 305.451395,61.4470696 306.386647,62.2537332 C307.321235,63.0610516 308.044231,64.0333693 308.555635,65.1713411 C309.145971,66.4841337 309.411954,67.7648431 309.353584,69.0121598 C309.295213,70.2601312 308.974176,71.4341148 308.38981,72.5341106 C307.805443,73.6347611 306.986269,74.6332692 305.933613,75.5309444 C304.880294,76.4286195 303.649875,77.1855214 302.241027,77.8029595 C300.822231,78.4243261 299.414047,78.8322413 298.014485,79.0253953 C296.616251,79.2192041 295.302919,79.1779542 294.075152,78.900991 C292.848049,78.623373 291.744982,78.0969464 290.76529,77.3210566 C289.785597,76.5451667 288.998261,75.4955873 288.403945,74.1729734 C287.892541,73.0356563 287.646457,71.8453037 287.665693,70.6025703 C287.684929,69.3604918 287.962188,68.1537702 288.496807,66.9824056 C289.031426,65.811041 289.819425,64.7175928 290.860805,63.7027158 C291.902184,62.6878387 293.191638,61.8438538 294.728502,61.1701064 C296.245467,60.5055256 297.72595,60.1257652 299.168626,60.0288608 C300.610638,59.9326111 301.941216,60.077313 303.15837,60.463621 Z M321.383508,60.0277477 C322.828173,59.9845336 324.152118,60.1776876 325.354016,60.6078645 C326.555914,61.0380414 327.609233,61.6738128 328.51331,62.5138691 C329.417386,63.3545802 330.103901,64.3524335 330.57219,65.5080839 C331.113442,66.8418288 331.331004,68.13105 331.226203,69.3757476 C331.121402,70.6211 330.756587,71.7826432 330.131759,72.8603772 C329.506268,73.9387659 328.650613,74.9065003 327.564792,75.7655446 C326.478971,76.6239342 325.220693,77.3363125 323.789957,77.9013698 C322.349271,78.4710105 320.926495,78.8271996 319.520964,78.9699372 C318.116096,79.1120199 316.805417,79.0229727 315.588927,78.7014858 C314.373099,78.3799989 313.289932,77.8136321 312.340088,77.0023852 C311.841287,76.5767915 311.39953,76.0759006 311.012826,75.5029861 C312.051553,73.8143616 312.679034,71.8664524 312.757303,69.7758056 C312.825623,67.9496817 312.465451,66.2021288 311.768324,64.6163016 C312.120536,64.195946 312.511219,63.7893404 312.944353,63.3971396 C314.022878,62.4208933 315.342843,61.6240511 316.904249,61.0072677 C318.445093,60.3983415 319.938179,60.0716166 321.383508,60.0277477 Z M253.592115,60.0005424 L254.026745,60.0046347 C254.89434,60.030825 255.739383,60.1565389 256.56121,60.3817761 C257.383701,60.6076681 258.151138,60.934393 258.862858,61.3599866 C259.575241,61.786235 260.219305,62.3178996 260.797038,62.9543258 C261.374772,63.5920614 261.852347,64.328011 262.230428,65.163484 C262.26094,65.231579 262.294768,65.3127691 262.331249,65.4077092 C262.368394,65.5019946 262.406202,65.598899 262.445337,65.6977677 C262.484471,65.7972911 262.520289,65.8889574 262.552791,65.9740761 C262.585293,66.0591949 262.605192,66.1227065 262.613151,66.1659206 L262.613151,66.1659206 L246.830613,73.1227393 L248.065012,72.875895 C248.386712,73.5614281 248.82648,74.2004733 249.384314,74.7936853 C249.941485,75.3868973 250.574273,75.8655264 251.282013,76.2295726 C251.989753,76.5936189 252.749894,76.8064157 253.562435,76.8673083 C254.374977,76.9288557 255.21007,76.7704039 256.066389,76.3926077 C257.168129,75.907431 258.177007,75.3312427 259.091696,74.6660072 C260.006386,74.0007716 260.758567,73.1711915 261.34824,72.1766119 L261.34824,72.1766119 L262.345179,72.6984552 C262.082512,73.1875605 261.74025,73.6707729 261.318392,74.1474377 C260.897197,74.6247573 260.425591,75.0771961 259.905564,75.504754 C259.384211,75.9323119 258.830357,76.3251675 258.242674,76.6833209 C257.654991,77.0414743 257.065981,77.3505207 256.475645,77.611115 C254.999141,78.2612911 253.557129,78.6757538 252.150271,78.8531936 C250.743414,79.0306334 249.433398,78.9612289 248.222214,78.6443253 C247.010367,78.3280765 245.924546,77.7669477 244.963426,76.9609389 C244.376406,76.4685598 243.867656,75.872074 243.419265,75.1937433 C244.172773,73.6367254 244.595958,71.9075058 244.595958,70.0840009 C244.595958,68.3115672 244.195989,66.627526 243.482279,65.1052104 C243.917403,64.5113436 244.424827,63.9449767 245.024449,63.4139669 C246.068482,62.4874823 247.329414,61.6984972 248.805254,61.0476664 C249.641674,60.6790369 250.504626,60.4066569 251.393447,60.2305267 C252.281605,60.0550511 253.159149,59.9797538 254.026745,60.0046347 Z M210.543907,60.0047001 C211.410839,60.0308905 212.255882,60.1566043 213.078373,60.3818416 C213.900864,60.6077336 214.667637,60.9344585 215.380021,61.3600521 C216.091741,61.7863005 216.736467,62.3179651 217.314201,62.9543912 C217.891271,63.5921269 218.36951,64.3280765 218.746927,65.1635495 C218.778102,65.2309897 218.81193,65.3128346 218.848412,65.4077747 C218.884893,65.5020601 218.922701,65.5989645 218.962499,65.6978331 C219.001634,65.7973566 219.037452,65.8890229 219.069954,65.9741416 C219.102455,66.0592603 219.121691,66.122772 219.130314,66.1659861 L203.347775,73.1228048 L204.581511,72.8759605 C204.903875,73.5614936 205.342979,74.2005387 205.901477,74.7937507 C206.458648,75.3869628 207.091435,75.8655919 207.799175,76.2296381 C208.506252,76.5936843 209.266393,76.8064811 210.079598,76.8673738 C210.892139,76.9289212 211.726569,76.7704694 212.582888,76.3926732 C213.685291,75.9074965 214.694169,75.3313082 215.608859,74.6660727 C216.523548,74.0008371 217.275729,73.1712569 217.864739,72.1766774 L218.862341,72.6985207 C218.599674,73.1876259 218.257412,73.6708384 217.835554,74.1475032 C217.414359,74.6248228 216.942753,75.0772616 216.422064,75.5048195 C215.901374,75.9323773 215.346856,76.325233 214.759836,76.6833864 C214.17149,77.0415398 213.583143,77.3505862 212.992807,77.6111804 C211.516303,78.2613565 210.074291,78.6758192 208.667434,78.853259 C207.259913,79.0306988 205.950561,78.9612943 204.739377,78.6443908 C203.527529,78.328142 202.441045,77.7670132 201.480588,76.9610044 C200.520131,76.1549955 199.745398,75.1008329 199.156388,73.7991712 C198.576001,72.5164975 198.294099,71.2541214 198.310682,70.0113881 C198.327264,68.7699643 198.608503,67.5907426 199.154398,66.4763421 C199.700957,65.3612868 200.496252,64.3405169 201.540948,63.4140323 C202.585644,62.4875478 203.845913,61.6985627 205.322416,61.0477319 C206.158837,60.6791023 207.021789,60.4067224 207.909946,60.2305921 C208.798104,60.0551166 209.676312,59.9798193 210.543907,60.0047001 Z M231.853482,60.0005424 L232.288112,60.0046347 C233.155707,60.030825 234.00075,60.1565389 234.823241,60.3817761 C235.645068,60.6076681 236.412505,60.934393 237.124225,61.3599866 C237.836609,61.786235 238.480672,62.3178996 239.058405,62.9543258 C239.636139,63.5920614 240.113714,64.328011 240.491795,65.163484 C240.522307,65.231579 240.556135,65.3127691 240.59328,65.4077092 C240.629761,65.5019946 240.667569,65.598899 240.706704,65.6977677 C240.745838,65.7972911 240.781657,65.8889574 240.814158,65.9740761 C240.84666,66.0591949 240.866559,66.1227065 240.874518,66.1659206 L240.874518,66.1659206 L225.09198,73.1227393 L226.326379,72.875895 C226.648079,73.5614281 227.087847,74.2004733 227.645681,74.7936853 C228.202852,75.3868973 228.83564,75.8655264 229.54338,76.2295726 C230.25112,76.5936189 231.011261,76.8064157 231.823802,76.8673083 C232.636344,76.9288557 233.471437,76.7704039 234.327756,76.3926077 C235.429496,75.907431 236.438374,75.3312427 237.353727,74.6660072 C238.268416,74.0007716 239.019934,73.1711915 239.609607,72.1766119 L239.609607,72.1766119 L240.607209,72.6984552 C240.343879,73.1875605 240.001617,73.6707729 239.580422,74.1474377 C239.158564,74.6247573 238.686958,75.0771961 238.166931,75.504754 C237.645578,75.9323119 237.091724,76.3251675 236.504041,76.6833209 C235.916358,77.0414743 235.327348,77.3505207 234.737012,77.611115 C233.260508,78.2612911 231.819159,78.6757538 230.411638,78.8531936 C229.004781,79.0306334 227.695429,78.9612289 226.483581,78.6443253 C225.271734,78.3280765 224.185913,77.7669477 223.224793,76.9609389 C222.638436,76.4685598 222.129023,75.872074 221.680632,75.1937433 C222.43414,73.6367254 222.857325,71.9075058 222.857325,70.0840009 C222.857325,68.3115672 222.457356,66.627526 221.743646,65.1052104 C222.17877,64.5113436 222.686194,63.9449767 223.285816,63.4139669 C224.329849,62.4874823 225.590781,61.6984972 227.066621,61.0476664 C227.903705,60.6790369 228.765993,60.4066569 229.654814,60.2305267 C230.542972,60.0550511 231.420516,59.9797538 232.288112,60.0046347 Z M182.922342,61.0860353 C183.628755,61.1973444 184.285421,61.4049031 184.894993,61.7080567 C185.503902,62.0112103 186.034541,62.4001374 186.487574,62.8735285 C186.939944,63.3469195 187.263634,63.8818579 187.457981,64.477689 L191.305779,75.7611578 L191.224856,77.3888896 L196.754781,61.0140118 L198.145056,61.0140118 L192.227765,78.5700756 C191.516045,78.6977537 190.810294,78.7082298 190.109187,78.6028136 C189.408743,78.4960878 188.759374,78.2911481 188.161078,77.9879945 C187.562782,77.6848409 187.040102,77.2932948 186.593039,76.8146656 C186.145312,76.3360365 185.824938,75.7991338 185.630592,75.202648 L181.556609,63.0411469 L176.30129,78.5700756 C175.590233,78.6977537 174.88382,78.7082298 174.183376,78.6028136 C173.482932,78.4960878 172.836216,78.2911481 172.243226,77.9879945 C171.650237,77.6848409 171.13021,77.2932948 170.683147,76.8146656 C170.23542,76.3360365 169.90974,75.7991338 169.70478,75.202648 L165,61.1416898 C165.689168,60.9924047 166.384305,60.9766905 167.085412,61.0938924 C167.785856,61.2110943 168.437879,61.4284745 169.042145,61.7486518 C169.645747,62.0668649 170.173733,62.4721609 170.626766,62.9612662 C171.079136,63.4510263 171.402826,63.987929 171.59651,64.5732839 L175.363385,75.7611578 L175.299045,77.3888896 L180.796468,61.1096066 C181.507525,60.9825833 182.215928,60.9740714 182.922342,61.0860353 Z M361.784326,71.2334965 C362.270524,71.2334965 362.711618,71.3173057 363.107608,71.4849241 C363.503597,71.6531973 363.84188,71.8790893 364.121792,72.1639096 C364.401041,72.4487299 364.617276,72.7800382 364.770499,73.1584891 C364.923057,73.5369401 365,73.9383076 365,74.3632464 L365,78.3972191 C364.711465,78.3972191 364.440839,78.3500764 364.189449,78.2544816 C363.937395,78.1588867 363.71718,78.0285896 363.527476,77.8655545 C363.338436,77.7018646 363.18853,77.5093654 363.079086,77.2887114 C362.968978,77.0674028 362.911934,76.8316894 362.907955,76.5809165 L362.907955,74.3121752 C362.907955,74.0528905 362.882749,73.7936058 362.833665,73.534321 C362.783918,73.2756911 362.706312,73.0425967 362.600847,72.8363475 C362.495383,72.6307531 362.361396,72.4637894 362.197561,72.3361113 C362.033726,72.2084332 361.836063,72.1449216 361.603245,72.1449216 C361.280219,72.1449216 361.016889,72.2110523 360.812593,72.3426589 C360.608297,72.4742656 360.447778,72.6451578 360.331701,72.8559903 C360.21496,73.0661681 360.135364,73.303191 360.09225,73.5664042 C360.049136,73.8296175 360.02791,74.0908665 360.02791,74.3501512 L360.02791,78.3972191 C359.739375,78.3972191 359.469412,78.3500764 359.217358,78.2544816 C358.965305,78.1588867 358.74509,78.0285896 358.555386,77.8655545 C358.366346,77.7018646 358.217103,77.5093654 358.106996,77.2887114 C357.997551,77.0674028 357.940508,76.8316894 357.935865,76.5809165 L357.935865,76.3766316 C357.935865,76.266632 357.937191,76.1337159 357.939181,75.9791926 C357.941171,75.8240147 357.942498,75.657051 357.942498,75.4783017 C357.942498,75.2995524 357.943161,75.1312792 357.945151,74.9715179 C357.947804,74.8124114 357.949131,74.6722929 357.949131,74.5511624 L357.949131,74.3121752 C357.949131,74.0528905 357.923925,73.7936058 357.874178,73.534321 C357.825094,73.2756911 357.746824,73.0425967 357.638707,72.8363475 C357.531252,72.6307531 357.395939,72.4637894 357.232104,72.3361113 C357.068269,72.2084332 356.872596,72.1449216 356.644421,72.1449216 C356.322058,72.1449216 356.056738,72.2110523 355.850452,72.3426589 C355.643503,72.4742656 355.481658,72.6451578 355.362927,72.8559903 C355.244197,73.0661681 355.163938,73.303191 355.120823,73.5664042 C355.077709,73.8296175 355.05582,74.0908665 355.05582,74.3501512 L355.05582,78.3972191 C354.767948,78.3972191 354.497985,78.3500764 354.245932,78.2544816 C353.993878,78.1588867 353.773663,78.0285896 353.583959,77.8655545 C353.394919,77.7018646 353.245013,77.5093654 353.134906,77.2887114 C353.025461,77.0674028 352.968418,76.8316894 352.964438,76.5809165 L352.964438,71.3867102 C353.342518,71.3867102 353.688097,71.4672456 354.000511,71.6289712 C354.312262,71.790042 354.562989,72.0048031 354.752692,72.2719449 C354.98551,71.9576604 355.272719,71.7062328 355.614981,71.5170073 C355.95658,71.3284366 356.355886,71.2334965 356.812236,71.2334965 C357.113374,71.2334965 357.399256,71.2662345 357.667892,71.3323652 C357.937191,71.3984959 358.185928,71.4908169 358.41344,71.6093284 C358.641615,71.7284946 358.847238,71.8731964 359.030308,72.0427791 C359.213379,72.2130166 359.373897,72.399623 359.5112,72.6039079 C359.618654,72.399623 359.749324,72.2143261 359.901883,72.0460529 C360.055105,71.8784345 360.2269,71.7337327 360.418593,71.6126022 C360.609623,71.4914717 360.819889,71.3984959 361.048064,71.3323652 C361.276239,71.2662345 361.52166,71.2334965 361.784326,71.2334965 Z M347.334222,71.1250683 C347.996858,71.1250683 348.599134,71.2226275 349.141713,71.4184006 C349.684291,71.6141736 350.145947,71.8793512 350.526681,72.2152427 C350.907415,72.5504796 351.202583,72.9407162 351.411522,73.384643 C351.619798,73.8285699 351.724599,74.2993419 351.724599,74.7963043 C351.724599,75.3698735 351.611175,75.8799311 351.38499,76.3258223 C351.159468,76.7723682 350.849708,77.1495096 350.455708,77.4572465 C350.061708,77.7656382 349.599389,77.9993873 349.067423,78.1584938 C348.53612,78.3176004 347.962367,78.397481 347.346825,78.397481 C346.726641,78.397481 346.145591,78.3208742 345.603675,78.1683152 C345.061096,78.0151015 344.588164,77.7898643 344.186205,77.4926035 C343.783582,77.1953428 343.467189,76.8267132 343.237024,76.3867149 C343.006859,75.9467166 342.891445,75.4379685 342.891445,74.8604707 C342.891445,74.3628536 342.99691,73.8894625 343.207839,73.4389881 C343.418768,72.9885136 343.717916,72.5923842 344.105282,72.249945 C344.492649,71.9081606 344.959612,71.6351259 345.506833,71.430841 C346.052729,71.2272108 346.662301,71.1250683 347.334222,71.1250683 Z M332.095523,76.0328829 C332.263337,76.0328829 332.419213,76.0636566 332.563812,76.125204 C332.707748,76.1867514 332.835101,76.2705606 332.944546,76.3766316 C333.054653,76.4833574 333.140882,76.6077617 333.202569,76.7498445 C333.265582,76.8919272 333.296757,77.0464505 333.296757,77.2121046 C333.296757,77.3738302 333.265582,77.5263891 333.202569,77.6710909 C333.140882,77.8157928 333.054653,77.9421613 332.944546,78.0501966 C332.835101,78.1588867 332.707748,78.2433507 332.563812,78.304898 C332.419213,78.3664454 332.263337,78.3972191 332.095523,78.3972191 C331.931688,78.3972191 331.777139,78.3664454 331.63055,78.304898 C331.484624,78.2433507 331.355944,78.1588867 331.2465,78.0501966 C331.137056,77.9421613 331.050827,77.8157928 330.988477,77.6710909 C330.926126,77.5263891 330.894288,77.3738302 330.894288,77.2121046 C330.894288,77.0464505 330.926126,76.8919272 330.988477,76.7498445 C331.050827,76.6077617 331.137056,76.4833574 331.2465,76.3766316 C331.355944,76.2705606 331.484624,76.1867514 331.63055,76.125204 C331.777139,76.0636566 331.931688,76.0328829 332.095523,76.0328829 Z M338.965643,71.1252648 C339.253515,71.1252648 339.542713,71.1475266 339.831248,71.1920502 C340.11912,71.2365739 340.397043,71.3000855 340.663689,71.38324 C340.930335,71.4663944 341.182389,71.5652631 341.419186,71.679846 C341.655984,71.7944289 341.868903,71.9240712 342.058607,72.0687731 L341.781348,72.4701406 C341.470924,72.2449033 341.102793,72.079904 340.676955,71.976452 C340.250453,71.8716905 339.802727,71.8199645 339.333774,71.8199645 C338.855535,71.8199645 338.434341,71.8972261 338.068199,72.0524041 C337.702058,72.2075821 337.396941,72.4190693 337.15152,72.6868659 C336.905436,72.9546625 336.721039,73.2676375 336.596339,73.6271004 C336.470975,73.9859086 336.408625,74.3715619 336.408625,74.7840603 C336.408625,75.195904 336.473628,75.579593 336.602308,75.9338178 C336.731652,76.2886974 336.919365,76.5970891 337.167439,76.8583381 C337.41485,77.1195871 337.720631,77.3258363 338.084119,77.476431 C338.44827,77.6270256 338.864822,77.7029777 339.333774,77.7029777 C339.802727,77.7029777 340.250453,77.6519065 340.676955,77.549764 C341.102793,77.4476215 341.470924,77.2819674 341.781348,77.0528016 L342.058607,77.4607167 C341.868903,77.6054186 341.655984,77.7344062 341.419186,77.8496438 C341.182389,77.9642267 340.930335,78.0617859 340.663689,78.142976 C340.397043,78.2235114 340.11912,78.2857136 339.831248,78.330892 C339.542713,78.3754156 339.253515,78.3976774 338.965643,78.3976774 C338.31561,78.3976774 337.708691,78.317142 337.144887,78.1554165 C336.581083,77.9936909 336.090242,77.7579775 335.673026,77.4476215 C335.255148,77.1379204 334.926152,76.7588147 334.684711,76.3103045 C334.443933,75.8617943 334.323213,75.3530462 334.323213,74.7840603 C334.323213,74.2098363 334.443933,73.6958502 334.684711,73.2414472 C334.926152,72.7863894 335.255148,72.4033551 335.673026,72.0910349 C336.090242,71.7780599 336.581083,71.5397275 337.144887,71.3740733 C337.708691,71.2077645 338.31561,71.1252648 338.965643,71.1252648 Z M347.320957,71.9854222 C346.911701,71.9854222 346.560152,72.0705409 346.264984,72.2407784 C345.969816,72.410361 345.728375,72.6316697 345.538672,72.9033949 C345.348968,73.17512 345.208349,73.4815474 345.11615,73.8213676 C345.023288,74.1611877 344.976857,74.4990435 344.976857,74.8349351 C344.976857,75.2258265 345.035891,75.5865989 345.154622,75.9179072 C345.272689,76.2498702 345.43785,76.5353453 345.648779,76.775642 C345.859045,77.0152839 346.106456,77.2025451 346.391011,77.336116 C346.674903,77.4703417 346.985327,77.5371272 347.320957,77.5371272 C347.652606,77.5410557 347.95905,77.4736155 348.240952,77.3328422 C348.522854,77.1927237 348.767612,76.9982602 348.973898,76.7501064 C349.180184,76.5012978 349.342029,76.2092751 349.458106,75.8733835 C349.574184,75.5381467 349.632554,75.1747552 349.632554,74.7838639 C349.632554,74.4479723 349.588113,74.1133903 349.499894,73.779463 C349.411675,73.4461904 349.273709,73.1463106 349.086659,72.8811331 C348.899608,72.6153007 348.659494,72.3998849 348.366979,72.2342308 C348.073801,72.0685766 347.725569,71.9854222 347.320957,71.9854222 Z M295.584158,63.1533726 C294.648243,63.563252 293.930553,64.1106309 293.430425,64.7948544 C292.930298,65.4797328 292.603955,66.2281228 292.450069,67.0406792 C292.296184,67.8525809 292.288224,68.6946014 292.426191,69.5654314 C292.563493,70.4362615 292.806261,71.2560202 293.151176,72.024053 C293.553799,72.9184543 294.06056,73.6858324 294.672785,74.3255323 C295.284346,74.965887 295.955605,75.4549923 296.685234,75.7928481 C297.414863,76.1313587 298.173677,76.3107628 298.961677,76.3323699 C299.749676,76.3533222 300.527726,76.1961799 301.296489,75.8596336 C302.059283,75.5368372 302.691407,75.0739223 303.192198,74.4702341 C303.693652,73.866546 304.052497,73.1764295 304.270059,72.4005397 C304.486958,71.623995 304.556604,70.7937601 304.476345,69.9091801 C304.397413,69.0246002 304.156635,68.1347822 303.754013,67.2397261 C303.409097,66.4716933 302.96336,65.7501484 302.418128,65.0744367 C301.872896,64.4000345 301.249395,63.8526557 300.547625,63.4316454 C299.845854,63.0119446 299.074437,62.7592075 298.234701,62.6727792 C297.393638,62.5870057 296.510786,62.7474218 295.584158,63.1533726 Z M320.351414,62.6363091 C319.514331,62.519762 318.626173,62.64744 317.684952,63.0193434 C316.733781,63.3951753 315.996192,63.915709 315.471523,64.5822541 C314.945527,65.2481444 314.591325,65.984094 314.407591,66.7907575 C314.223194,67.5967664 314.184059,68.4374774 314.289524,69.3128907 C314.394988,70.1883041 314.605917,71.01592 314.922311,71.7957384 C315.291105,72.7045444 315.768681,73.4902557 316.356364,74.1515627 C316.944047,74.8135245 317.59607,75.3268558 318.313096,75.6909021 C319.029459,76.0549483 319.78164,76.262507 320.568313,76.3129235 C321.354322,76.3626852 322.138342,76.2336976 322.919045,75.9253059 C323.693115,75.6306642 324.341822,75.1906659 324.865165,74.6059657 C325.388508,74.0206108 325.773221,73.3442444 326.019305,72.5768664 C326.265389,71.8088336 326.364884,70.9818725 326.319116,70.0946735 C326.272685,69.2074745 326.065073,68.3091446 325.696278,67.4009933 C325.379885,66.6205201 324.962006,65.883261 324.442643,65.1885613 C323.922617,64.4945163 323.320341,63.9242209 322.63449,63.4783297 C321.949302,63.0337481 321.187171,62.7528563 320.351414,62.6363091 Z M206.113069,62.639452 C205.37548,62.9648674 204.775858,63.4415322 204.316855,64.0694465 C203.857189,64.6980155 203.536815,65.412358 203.357061,66.2144383 C203.176644,67.0165186 203.136183,67.867051 203.237004,68.7666905 C203.336499,69.6669846 203.577277,70.5509098 203.958673,71.4197755 L214.544264,66.7539601 C214.128375,65.8883681 213.619625,65.1164068 213.018013,64.4374213 C212.4164,63.7590906 211.749121,63.2234974 211.015513,62.829987 C210.282567,62.4358218 209.498548,62.2105846 208.664117,62.1529657 C207.829687,62.0953469 206.979338,62.2577272 206.113069,62.639452 Z M230.408985,62.1529003 C229.574555,62.0952814 228.723542,62.2576618 227.857937,62.6393865 C227.119685,62.9648019 226.520726,63.4414668 226.06106,64.069381 C225.601393,64.6979501 225.281683,65.4122926 225.101266,66.2143728 C224.921512,67.0164531 224.881051,67.8669856 224.981209,68.766625 C225.081367,69.6669192 225.322144,70.5508443 225.703541,71.4197101 L225.703541,71.4197101 L236.288468,66.7538946 C235.873243,65.8883027 235.364493,65.1163413 234.762217,64.4373558 C234.160605,63.7590251 233.493326,63.2234319 232.760381,62.8299215 C232.026772,62.4357563 231.243416,62.2105191 230.408985,62.1529003 Z M252.147618,62.1529003 C251.313188,62.0952814 250.462175,62.2576618 249.59657,62.6393865 C248.858318,62.9648019 248.259359,63.4414668 247.799693,64.069381 C247.340026,64.6979501 247.020316,65.4122926 246.839899,66.2143728 C246.660145,67.0164531 246.61902,67.8669856 246.719842,68.766625 C246.82,69.6669192 247.060777,70.5508443 247.441511,71.4197101 L247.441511,71.4197101 L258.027101,66.7538946 C257.611876,65.8883027 257.103126,65.1163413 256.50085,64.4373558 C255.899238,63.7590251 255.231959,63.2234319 254.49835,62.8299215 C253.765405,62.4357563 252.982048,62.2105191 252.147618,62.1529003 Z M275.543438,61.4686767 C274.789267,61.4686767 274.13658,61.6153428 273.586705,61.9073655 C273.03683,62.2006977 272.585124,62.583732 272.228932,63.0564682 C271.87274,63.5298593 271.608747,64.0595596 271.436953,64.6449145 C271.263832,65.2296147 271.177603,65.8156244 271.177603,66.4003245 C271.177603,67.0707981 271.288374,67.6908553 271.509253,68.2598412 C271.730131,68.8288271 272.037239,69.3185872 272.431238,69.7278118 C272.824575,70.1376912 273.288221,70.459178 273.821513,70.6935819 C274.354806,70.9279858 274.929223,71.0445329 275.543438,71.0445329 C276.168265,71.0556638 276.745336,70.9384619 277.273322,70.6935819 C277.801308,70.4487019 278.259647,70.1141198 278.647677,69.6878715 C279.035707,69.2629326 279.340162,68.7600774 279.561704,68.1799606 C279.781919,67.5998437 279.89269,66.9752033 279.89269,66.3047296 C279.89269,65.7193747 279.809114,65.1372936 279.641963,64.5571768 C279.474811,63.97706 279.216125,63.4584905 278.865903,63.0008137 C278.515681,62.5431369 278.065964,62.1738526 277.516089,61.8916513 C276.966214,61.60945 276.308885,61.4686767 275.543438,61.4686767 Z" id="Combined-Shape"></path>
            </g>
        </g>
    </g>
</svg>