<?xml version="1.0" encoding="UTF-8"?>
<svg width="150px" height="45px" viewBox="0 0 150 45" version="1.1" xmlns="http://www.w3.org/2000/svg" xmlns:xlink="http://www.w3.org/1999/xlink">
    <title>2D4E451E-13ED-4F80-86DD-F7576C8855BD</title>
    <defs>
        <linearGradient x1="60.9936616%" y1="4.6607438%" x2="26.7757257%" y2="71.4409091%" id="linearGradient-1">
            <stop stop-color="#00A0FF" offset="0%"></stop>
            <stop stop-color="#00A1FF" offset="0.657445%"></stop>
            <stop stop-color="#00BEFF" offset="26.01%"></stop>
            <stop stop-color="#00D2FF" offset="51.22%"></stop>
            <stop stop-color="#00DFFF" offset="76.04%"></stop>
            <stop stop-color="#00E3FF" offset="100%"></stop>
        </linearGradient>
        <linearGradient x1="108.24757%" y1="50.0170732%" x2="-130.123785%" y2="50.0170732%" id="linearGradient-2">
            <stop stop-color="#FFE000" offset="0%"></stop>
            <stop stop-color="#FFBD00" offset="40.87%"></stop>
            <stop stop-color="#FFA500" offset="77.54%"></stop>
            <stop stop-color="#FF9C00" offset="100%"></stop>
        </linearGradient>
        <linearGradient x1="86.3807453%" y1="30.9630416%" x2="-49.7391304%" y2="135.703852%" id="linearGradient-3">
            <stop stop-color="#FF3A44" offset="0%"></stop>
            <stop stop-color="#C31162" offset="100%"></stop>
        </linearGradient>
        <linearGradient x1="-18.4658385%" y1="-11.63124%" x2="42.3173913%" y2="35.1399219%" id="linearGradient-4">
            <stop stop-color="#32A071" offset="0%"></stop>
            <stop stop-color="#2DA771" offset="6.85%"></stop>
            <stop stop-color="#15CF74" offset="47.62%"></stop>
            <stop stop-color="#06E775" offset="80.09%"></stop>
            <stop stop-color="#00F076" offset="100%"></stop>
        </linearGradient>
    </defs>
    <g id="Website" stroke="none" stroke-width="1" fill="none" fill-rule="evenodd">
        <g id="Homepage" transform="translate(-335.000000, -2625.000000)" fill-rule="nonzero">
            <g id="download-(10)" transform="translate(335.000000, 2625.000000)">
                <path d="M150,40.5 C150,43.0384615 148.038462,45 145.730769,45 L4.26923077,45 C1.96153846,45 0,43.0384615 0,40.5 L0,4.5 C0,2.07692308 1.96153846,0 4.26923077,0 L145.615385,0 C148.038462,0 149.884615,2.07692308 149.884615,4.5 L150,40.5" id="Path" fill="#000000"></path>
                <g id="Group" transform="translate(46.000000, 6.923077)" fill="#FFFFFF" stroke="#FFFFFF" stroke-width="0.5">
                    <path d="M6.73076923,4.73076923 C6.73076923,5.65384615 6.5,6.34615385 5.92307692,6.92307692 C5.34615385,7.61538462 4.42307692,7.96153846 3.5,7.96153846 C2.57692308,7.96153846 1.76923077,7.61538462 1.07692308,6.92307692 C0.384615385,6.23076923 0.0384615385,5.42307692 0.0384615385,4.38461538 C0.0384615385,3.34615385 0.384615385,2.53846154 1.07692308,1.84615385 C1.76923077,1.15384615 2.57692308,0.807692308 3.5,0.807692308 C3.96153846,0.807692308 4.42307692,0.923076923 4.88461538,1.03846154 C5.34615385,1.26923077 5.69230769,1.5 5.92307692,1.73076923 L5.34615385,2.30769231 C4.88461538,1.73076923 4.30769231,1.5 3.5,1.5 C2.80769231,1.5 2.23076923,1.73076923 1.65384615,2.19230769 C1.19230769,2.65384615 0.846153846,3.34615385 0.846153846,4.15384615 C0.846153846,4.96153846 1.07692308,5.53846154 1.65384615,6.11538462 C2.11538462,6.57692308 2.80769231,6.80769231 3.5,6.80769231 C4.19230769,6.80769231 4.88461538,6.57692308 5.34615385,6.11538462 C5.69230769,5.76923077 5.80769231,5.30769231 5.92307692,4.73076923 L3.5,4.73076923 L3.5,4.26923077 L6.73076923,4.26923077 C6.61538462,4.38461538 6.73076923,4.61538462 6.73076923,4.73076923 Z" id="Path"></path>
                    <polygon id="Path" points="11.8076923 1.96153846 8.80769231 1.96153846 8.80769231 4.03846154 11.5769231 4.03846154 11.5769231 4.84615385 8.80769231 4.84615385 8.80769231 6.92307692 11.8076923 6.92307692 11.8076923 7.73076923 7.88461538 7.73076923 7.88461538 1.15384615 11.8076923 1.15384615"></polygon>
                    <polygon id="Path" points="15.3846154 7.84615385 14.5769231 7.84615385 14.5769231 1.96153846 12.7307692 1.96153846 12.7307692 1.15384615 17.3461538 1.15384615 17.3461538 1.96153846 15.5 1.96153846 15.5 7.84615385"></polygon>
                    <polygon id="Path" points="20.5769231 7.84615385 20.5769231 1.15384615 21.3846154 1.15384615 21.3846154 7.84615385"></polygon>
                    <polygon id="Path" points="25.3076923 7.84615385 24.3846154 7.84615385 24.3846154 1.96153846 22.5384615 1.96153846 22.5384615 1.15384615 27.1538462 1.15384615 27.1538462 1.96153846 25.3076923 1.96153846"></polygon>
                    <path d="M35.8076923,6.92307692 C35.1153846,7.61538462 34.3076923,7.96153846 33.3846154,7.96153846 C32.4615385,7.96153846 31.5384615,7.61538462 30.9615385,6.92307692 C30.2692308,6.23076923 29.9230769,5.42307692 29.9230769,4.5 C29.9230769,3.57692308 30.2692308,2.65384615 30.9615385,2.07692308 C31.6538462,1.38461538 32.4615385,1.03846154 33.3846154,1.03846154 C34.3076923,1.03846154 35.1153846,1.38461538 35.8076923,2.07692308 C36.5,2.76923077 36.8461538,3.57692308 36.8461538,4.5 C36.7307692,5.42307692 36.5,6.23076923 35.8076923,6.92307692 Z M31.5384615,6.34615385 C32,6.80769231 32.6923077,7.03846154 33.3846154,7.03846154 C34.0769231,7.03846154 34.6538462,6.80769231 35.2307692,6.34615385 C35.6923077,5.88461538 35.9230769,5.19230769 35.9230769,4.38461538 C35.9230769,3.57692308 35.6923077,3 35.2307692,2.42307692 C34.7692308,1.96153846 34.0769231,1.73076923 33.3846154,1.73076923 C32.6923077,1.73076923 32.1153846,1.96153846 31.5384615,2.42307692 C31.0769231,2.88461538 30.8461538,3.57692308 30.8461538,4.38461538 C30.8461538,5.19230769 31.0769231,5.88461538 31.5384615,6.34615385 Z" id="Shape"></path>
                    <polygon id="Path" points="38 7.84615385 38 1.15384615 39.0384615 1.15384615 42.2692308 6.34615385 42.2692308 6.34615385 42.2692308 5.07692308 42.2692308 1.15384615 43.0769231 1.15384615 43.0769231 7.84615385 42.1538462 7.84615385 38.8076923 2.30769231 38.8076923 2.30769231 38.8076923 3.57692308 38.8076923 7.73076923 38 7.73076923"></polygon>
                </g>
                <path d="M75.6923077,24.4615385 C73.0384615,24.4615385 70.9615385,26.4230769 70.9615385,29.1923077 C70.9615385,31.9615385 73.0384615,33.9230769 75.6923077,33.9230769 C78.3461538,33.9230769 80.4230769,31.9615385 80.4230769,29.1923077 C80.4230769,26.4230769 78.3461538,24.4615385 75.6923077,24.4615385 Z M75.6923077,32.0769231 C74.3076923,32.0769231 73.0384615,30.9230769 73.0384615,29.1923077 C73.0384615,27.4615385 74.3076923,26.3076923 75.6923077,26.3076923 C77.0769231,26.3076923 78.3461538,27.4615385 78.3461538,29.1923077 C78.3461538,30.8076923 77.1923077,32.0769231 75.6923077,32.0769231 Z M65.3076923,24.4615385 C62.6538462,24.4615385 60.5769231,26.4230769 60.5769231,29.1923077 C60.5769231,31.9615385 62.6538462,33.9230769 65.3076923,33.9230769 C67.9615385,33.9230769 70.0384615,31.9615385 70.0384615,29.1923077 C70.1538462,26.4230769 67.9615385,24.4615385 65.3076923,24.4615385 Z M65.3076923,32.0769231 C63.9230769,32.0769231 62.6538462,30.9230769 62.6538462,29.1923077 C62.6538462,27.4615385 63.9230769,26.3076923 65.3076923,26.3076923 C66.6923077,26.3076923 67.9615385,27.4615385 67.9615385,29.1923077 C68.0769231,30.8076923 66.8076923,32.0769231 65.3076923,32.0769231 Z M53.0769231,25.8461538 L53.0769231,27.8076923 L57.9230769,27.8076923 C57.8076923,28.9615385 57.4615385,29.7692308 56.8846154,30.3461538 C56.1923077,31.0384615 55.0384615,31.8461538 53.1923077,31.8461538 C50.1923077,31.8461538 47.8846154,29.4230769 47.8846154,26.5384615 C47.8846154,23.6538462 50.1923077,21.2307692 53.1923077,21.2307692 C54.8076923,21.2307692 55.9615385,21.8076923 56.7692308,22.6153846 L58.1538462,21.2307692 C57,20.0769231 55.3846154,19.1538462 53.0769231,19.1538462 C49.0384615,19.1538462 45.5769231,22.5 45.5769231,26.5384615 C45.5769231,30.5769231 48.9230769,33.9230769 53.0769231,33.9230769 C55.2692308,33.9230769 56.8846154,33.2307692 58.1538462,31.8461538 C59.4230769,30.5769231 59.8846154,28.6153846 59.8846154,27.1153846 C59.8846154,26.6538462 59.8846154,26.1923077 59.7692308,25.8461538 L53.0769231,25.8461538 Z M103.384615,27.4615385 C103.038462,26.4230769 101.769231,24.4615385 99.3461538,24.4615385 C96.9230769,24.4615385 94.8461538,26.4230769 94.8461538,29.1923077 C94.8461538,31.8461538 96.8076923,33.9230769 99.5769231,33.9230769 C101.769231,33.9230769 103.038462,32.6538462 103.5,31.8461538 L101.884615,30.8076923 C101.307692,31.6153846 100.615385,32.0769231 99.5769231,32.0769231 C98.5384615,32.0769231 97.7307692,31.6153846 97.2692308,30.6923077 L103.615385,28.0384615 L103.384615,27.4615385 Z M96.9230769,29.0769231 C96.9230769,27.2307692 98.3076923,26.3076923 99.3461538,26.3076923 C100.153846,26.3076923 100.846154,26.7692308 101.076923,27.3461538 L96.9230769,29.0769231 Z M91.8461538,33.5769231 L93.9230769,33.5769231 L93.9230769,19.7307692 L91.8461538,19.7307692 L91.8461538,33.5769231 Z M88.3846154,25.5 L88.3846154,25.5 C87.8076923,24.9230769 87,24.4615385 85.8461538,24.4615385 C83.5384615,24.4615385 81.3461538,26.5384615 81.3461538,29.1923077 C81.3461538,31.8461538 83.5384615,33.9230769 85.8461538,33.9230769 C87,33.9230769 87.9230769,33.4615385 88.3846154,32.8846154 L88.5,32.8846154 L88.5,33.4615385 C88.5,35.3076923 87.5769231,36.2307692 85.9615385,36.2307692 C84.6923077,36.2307692 83.8846154,35.3076923 83.5384615,34.5 L81.6923077,35.3076923 C82.1538462,36.5769231 83.5384615,38.0769231 85.8461538,38.0769231 C88.2692308,38.0769231 90.3461538,36.6923077 90.3461538,33.1153846 L90.3461538,24.5769231 L88.3846154,24.5769231 L88.3846154,25.5 Z M86.0769231,32.0769231 C84.6923077,32.0769231 83.4230769,30.9230769 83.4230769,29.1923077 C83.4230769,27.5769231 84.5769231,26.3076923 86.0769231,26.3076923 C87.4615385,26.3076923 88.6153846,27.5769231 88.6153846,29.1923077 C88.5,30.8076923 87.4615385,32.0769231 86.0769231,32.0769231 Z M113.076923,19.7307692 L108.115385,19.7307692 L108.115385,33.5769231 L110.192308,33.5769231 L110.192308,28.2692308 L113.076923,28.2692308 C115.384615,28.2692308 117.576923,26.6538462 117.576923,24 C117.576923,21.3461538 115.384615,19.7307692 113.076923,19.7307692 Z M113.192308,26.4230769 L110.192308,26.4230769 L110.192308,21.6923077 L113.192308,21.6923077 C114.692308,21.6923077 115.615385,22.9615385 115.615385,24.1153846 C115.615385,25.1538462 114.692308,26.4230769 113.192308,26.4230769 Z M126,24.4615385 C124.5,24.4615385 123,25.1538462 122.307692,26.5384615 L124.153846,27.3461538 C124.5,26.5384615 125.307692,26.3076923 126,26.3076923 C127.038462,26.3076923 128.192308,27 128.192308,28.0384615 L128.192308,28.1538462 C127.846154,27.9230769 127.038462,27.5769231 126,27.5769231 C124.038462,27.5769231 121.961538,28.6153846 121.961538,30.6923077 C121.961538,32.5384615 123.576923,33.6923077 125.423077,33.6923077 C126.807692,33.6923077 127.615385,33.1153846 128.076923,32.3076923 L128.192308,32.3076923 L128.192308,33.3461538 L130.153846,33.3461538 L130.153846,28.0384615 C130.153846,25.8461538 128.307692,24.4615385 126,24.4615385 Z M125.769231,32.0769231 C125.076923,32.0769231 124.153846,31.7307692 124.153846,30.9230769 C124.153846,29.8846154 125.307692,29.4230769 126.346154,29.4230769 C127.269231,29.4230769 127.730769,29.6538462 128.192308,29.8846154 C128.076923,31.1538462 126.923077,32.0769231 125.769231,32.0769231 Z M137.538462,24.6923077 L135.115385,30.6923077 L135,30.6923077 L132.576923,24.6923077 L130.384615,24.6923077 L134.076923,33.1153846 L132,37.8461538 L134.192308,37.8461538 L139.846154,24.6923077 L137.538462,24.6923077 Z M118.846154,33.5769231 L120.923077,33.5769231 L120.923077,19.7307692 L118.846154,19.7307692 L118.846154,33.5769231 Z" id="Shape" fill="#FFFFFF"></path>
                <g id="Group" transform="translate(10.384615, 8.076923)">
                    <path d="M1.15384615,0.576923077 C0.923076923,0.923076923 0.692307692,1.5 0.692307692,2.19230769 L0.692307692,26.7692308 C0.692307692,27.4615385 0.923076923,28.0384615 1.15384615,28.3846154 L1.26923077,28.5 L15,14.7692308 L15,14.6538462 L15,14.5384615 L1.15384615,0.576923077 L1.15384615,0.576923077 Z" id="Path" fill="url(#linearGradient-1)"></path>
                    <path d="M19.6153846,19.1538462 L15,14.5384615 L15,14.4230769 L15,14.3076923 L19.6153846,9.69230769 L19.7307692,9.80769231 L25.1538462,12.9230769 C26.6538462,13.8461538 26.6538462,15.2307692 25.1538462,16.1538462 L19.6153846,19.1538462 L19.6153846,19.1538462 Z" id="Path" fill="url(#linearGradient-2)"></path>
                    <path d="M19.7307692,19.1538462 L15,14.4230769 L1.15384615,28.2692308 C1.61538462,28.8461538 2.53846154,28.8461538 3.46153846,28.3846154 L19.7307692,19.1538462" id="Path" fill="url(#linearGradient-3)"></path>
                    <path d="M19.7307692,9.69230769 L3.46153846,0.461538462 C2.53846154,0 1.73076923,0 1.15384615,0.576923077 L15,14.4230769 L19.7307692,9.69230769 Z" id="Path" fill="url(#linearGradient-4)"></path>
                    <g transform="translate(0.000000, 18.461538)" fill="#000000" id="Path">
                        <path d="M19.6153846,0.576923077 L3.46153846,9.69230769 C2.53846154,10.1538462 1.73076923,10.1538462 1.26923077,9.69230769 L1.26923077,9.69230769 L1.15384615,9.80769231 L1.15384615,9.80769231 L1.26923077,9.92307692 L1.26923077,9.92307692 C1.73076923,10.3846154 2.53846154,10.3846154 3.46153846,9.92307692 L19.6153846,0.576923077 L19.6153846,0.576923077 Z" opacity="0.2"></path>
                        <path d="M1.15384615,9.69230769 C0.807692308,9.34615385 0.692307692,8.76923077 0.692307692,8.07692308 L0.692307692,8.19230769 C0.692307692,8.88461538 0.923076923,9.46153846 1.15384615,9.80769231 L1.15384615,9.69230769 L1.15384615,9.69230769 Z" opacity="0.12"></path>
                    </g>
                    <path d="M25.1538462,15.9230769 L19.6153846,19.0384615 L19.7307692,19.1538462 L25.1538462,16.0384615 C25.9615385,15.5769231 26.3076923,15 26.3076923,14.4230769 L26.3076923,14.4230769 C26.3076923,15 25.8461538,15.4615385 25.1538462,15.9230769 Z" id="Path" fill="#000000" opacity="0.12"></path>
                    <path d="M3.46153846,0.692307692 L25.1538462,13.0384615 C25.8461538,13.3846154 26.3076923,13.9615385 26.3076923,14.4230769 L26.3076923,14.4230769 C26.3076923,13.8461538 25.9615385,13.2692308 25.1538462,12.8076923 L3.46153846,0.461538462 C1.96153846,-0.461538462 0.692307692,0.346153846 0.692307692,2.07692308 L0.692307692,2.30769231 C0.692307692,0.576923077 1.96153846,-0.230769231 3.46153846,0.692307692 Z" id="Path" fill="#FFFFFF" opacity="0.25"></path>
                </g>
            </g>
        </g>
    </g>
</svg>