<?xml version="1.0" encoding="UTF-8"?>
<svg width="169px" height="30px" viewBox="0 0 169 30" version="1.1" xmlns="http://www.w3.org/2000/svg" xmlns:xlink="http://www.w3.org/1999/xlink">
    <title>92C8AD01-D092-45AC-A359-B8E2B7C074D1</title>
    <defs>
        <polygon id="path-1" points="0.147265296 0.101668327 21.2683095 0.101668327 21.2683095 19.5583123 0.147265296 19.5583123"></polygon>
        <polygon id="path-3" points="0.119907135 0.101668327 20.1468211 0.101668327 20.1468211 29.8788496 0.119907135 29.8788496"></polygon>
        <polygon id="path-5" points="0.0636923949 0.101668327 22.073888 0.101668327 22.073888 19.7598814 0.0636923949 19.7598814"></polygon>
        <polygon id="path-7" points="0.11702123 0.101668327 19.5881367 0.101668327 19.5881367 19.5582451 0.11702123 19.5582451"></polygon>
        <polygon id="path-9" points="0.152272642 0.101668327 19.6233881 0.101668327 19.6233881 19.5582451 0.152272642 19.5582451"></polygon>
    </defs>
    <g id="Website" stroke="none" stroke-width="1" fill="none" fill-rule="evenodd">
        <g id="Homepage" transform="translate(-165.000000, -15.000000)">
            <g id="Header">
                <g id="Logo" transform="translate(165.000000, 15.000000)">
                    <path d="M33.623791,1.1426743 L27.6210326,19.1693426 C26.8990328,19.3004432 26.183089,19.3112002 25.4718553,19.2029582 C24.7612945,19.0933715 24.1025454,18.8829382 23.4956081,18.5716584 C22.8886707,18.2603785 22.3584416,17.8583367 21.9049208,17.3668775 C21.4507271,16.8754183 21.1257263,16.3241235 20.9285726,15.7116484 L16.7957464,3.22414841 L11.4645217,19.1693426 C10.7431949,19.3004432 10.0265781,19.3112002 9.31601734,19.2029582 C8.60545654,19.0933715 7.94939898,18.8829382 7.34784466,18.5716584 C6.74629035,18.2603785 6.21875278,17.8583367 5.76523197,17.3668775 C5.31103827,16.8754183 4.98065441,16.3241235 4.77273463,15.7116484 L8.53372646e-14,1.2737749 C0.69912185,1.12048805 1.40429962,1.10435259 2.1155333,1.22469622 C2.8260941,1.34503984 3.4875347,1.56824701 4.10052796,1.89700697 C4.71284835,2.22375 5.24846047,2.63991036 5.7080372,3.14212649 C6.16694106,3.64501494 6.49530627,4.19630976 6.6917871,4.79735558 L10.5130701,16.2851295 L10.4478007,17.956494 L16.0246264,1.24083167 C16.7459533,1.11040339 17.4645887,1.10166335 18.1812054,1.21662849 C18.8978221,1.33092131 19.5639729,1.54404382 20.1823492,1.85532371 C20.8000526,2.16660359 21.3383562,2.56595618 21.797933,3.05203685 C22.2568368,3.53811753 22.585202,4.08739542 22.7823557,4.69919821 L26.68573,16.2851295 L26.6036387,17.956494 L32.2134355,1.1426743 L33.623791,1.1426743 Z" id="Fill-1" fill="#E94E1B"></path>
                    <g id="Group-5" transform="translate(33.643843, 0.000000)">
                        <mask id="mask-2" fill="white">
                            <use xlink:href="#path-1"></use>
                        </mask>
                        <g id="Clip-4"></g>
                        <path d="M8.06304833,2.81168576 C7.31480628,3.1458242 6.70652316,3.63526643 6.24089052,4.28001245 C5.77458499,4.92543078 5.44958417,5.65892181 5.26723381,6.48250249 C5.08421058,7.30608317 5.04316492,8.17941484 5.14544261,9.10316982 C5.24637455,10.0275971 5.49062982,10.9352166 5.87753556,11.827373 L16.6160203,7.03648655 C16.1941248,6.14769173 15.6780262,5.35503735 15.0677244,4.6578511 C14.4574227,3.96133715 13.7805059,3.41138695 13.0363011,3.00732819 C12.2927692,2.60259711 11.4974255,2.37132221 10.6509431,2.31215886 C9.8044606,2.25299552 8.94182902,2.41972859 8.06304833,2.81168576 L8.06304833,2.81168576 Z M6.50936946,13.3225921 C6.83638892,14.0265015 7.28183518,14.6826768 7.84839976,15.2917903 C8.41361858,15.9009039 9.05554567,16.392363 9.77350814,16.7661678 C10.4907977,17.1399726 11.2619177,17.3584736 12.086868,17.4209985 C12.9111455,17.4841957 13.7576279,17.3214965 14.6263154,16.9335732 C15.7446413,16.4353909 16.768091,15.8437575 17.6959919,15.1606897 C18.6238928,14.477622 19.3869382,13.6258043 19.9844553,12.6045642 L20.9964661,13.1403959 C20.7300058,13.6426121 20.3828,14.1387774 19.9548486,14.6282196 C19.5275701,15.1183342 19.0491527,15.5829009 18.5209423,16.0219198 C17.9927318,16.4609387 17.4302045,16.8643252 16.8347061,17.2320792 C16.237862,17.5998332 15.6410178,17.9171638 15.042155,18.1847435 C13.5443251,18.8523481 12.081485,19.2779208 10.6543075,19.460117 C9.22645707,19.6423132 7.89819284,19.5710483 6.66951479,19.2456499 C5.44016386,18.9209238 4.33798716,18.3447535 3.36365757,17.5171389 C2.38932799,16.6895244 1.60340467,15.6071041 1.00588764,14.2705503 C0.417118032,12.9534935 0.131144224,11.6572784 0.147966213,10.3812326 C0.164788201,9.10653137 0.45008913,7.8956997 1.003869,6.75142679 C1.55832174,5.60648157 2.36510432,4.5583491 3.42488961,3.60702938 C4.4846749,2.65570966 5.76314604,1.8455752 7.26097591,1.17729831 C8.10947702,0.798787351 8.98489331,0.519106076 9.88587903,0.338254482 C10.7868647,0.158075199 11.6777573,0.0807594622 12.5578837,0.106307271 C13.4373373,0.133199701 14.2945858,0.262283367 15.1289565,0.493558267 C15.9633271,0.725505478 16.7411759,1.06098855 17.4638485,1.49799054 C18.1858483,1.93566484 18.8398872,2.48158118 19.4259653,3.13506723 C20.0113705,3.78989791 20.4965166,4.5455752 20.8793851,5.40344373 C20.9110104,5.47269173 20.9453273,5.55673058 20.9823357,5.65421564 C21.019344,5.75102839 21.0576982,5.85053038 21.0980709,5.9520493 C21.1377708,6.05424054 21.1741063,6.14836404 21.2070774,6.23576444 C21.2400485,6.32316484 21.259562,6.38837898 21.2683095,6.43275149 L5.2578135,13.5760533 L6.50936946,13.3225921 Z" id="Fill-3" fill="#E94E1B" mask="url(#mask-2)"></path>
                    </g>
                    <g id="Group-8" transform="translate(102.277557, 0.000000)">
                        <mask id="mask-4" fill="white">
                            <use xlink:href="#path-3"></use>
                        </mask>
                        <g id="Clip-7"></g>
                        <path d="M9.86253011,11.4420717 C10.4963826,11.453501 11.0817878,11.3331574 11.6174,11.0817131 C12.1530121,10.8302689 12.6179719,10.4867181 13.0116064,10.0490438 C13.4052409,9.61271414 13.7140926,9.09637948 13.9388344,8.50071215 C14.1622304,7.90504482 14.2746013,7.26366036 14.2746013,6.57521414 C14.2746013,5.97416833 14.1898185,5.37648406 14.0202528,4.78081673 C13.8506872,4.1851494 13.5882642,3.65267928 13.2329838,3.18273406 C12.8777034,2.71278884 12.421491,2.33360558 11.8636739,2.04383964 C11.3058567,1.75407371 10.6390331,1.60952689 9.86253011,1.60952689 C9.09746606,1.60952689 8.43535259,1.7601245 7.87753544,2.0599751 C7.3197183,2.36117032 6.86148732,2.75447211 6.50015101,3.23988048 C6.13881469,3.72596116 5.87100863,4.26986056 5.69673283,4.87090637 C5.52111127,5.47127988 5.43363692,6.07299801 5.43363692,6.67337151 C5.43363692,7.36181773 5.54600781,7.99849602 5.7700767,8.58273406 C5.99414559,9.16697211 6.30568882,9.66986056 6.70537927,10.0900548 C7.10439684,10.5109213 7.57473965,10.8410259 8.1157348,11.0817131 C8.65672996,11.3224004 9.23944365,11.4420717 9.86253011,11.4420717 L9.86253011,11.4420717 Z M18.0306149,2.9534761 C18.555461,3.50006474 18.9544786,4.08699203 19.2276677,4.71493028 C19.5015296,5.34354084 19.6381242,5.99568227 19.6381242,6.67337151 C19.6381242,7.66771912 19.3999248,8.54710159 18.9248719,9.31219124 C18.449146,10.0766086 17.79578,10.7267331 16.9647737,11.2618924 C16.1330946,11.7977241 15.1520362,12.2071614 14.0202528,12.4908765 C12.8891423,12.7752639 11.6719032,12.9278785 10.371227,12.9500647 C9.8134099,12.972251 9.30202144,13.0293974 8.83706168,13.1221763 C8.37277479,13.2149552 7.97577586,13.3406773 7.64808352,13.4993426 C7.3197183,13.6573357 7.06604271,13.8435657 6.88571099,14.0560159 C6.70537927,14.2691384 6.61454053,14.4957072 6.61454053,14.7363944 C6.61454053,14.9327092 6.66971665,15.1216285 6.77872314,15.3018078 C6.88840251,15.4819871 7.06873423,15.6406524 7.3197183,15.7771315 C7.57204813,15.9136106 7.89974047,16.0305926 8.30481395,16.1294223 C8.70921456,16.2275797 9.20647255,16.2988446 9.79726079,16.3425448 C10.4089083,16.386245 11.0898624,16.4326345 11.8394502,16.4817131 C12.5876923,16.5307918 13.3453546,16.6235707 14.1104187,16.7600498 C14.8761556,16.8972012 15.622379,17.0962052 16.3497618,17.3584064 C17.0764717,17.6206076 17.7217632,17.9863446 18.2849634,18.4562898 C18.8481636,18.9262351 19.2989929,19.5185408 19.6381242,20.2345518 C19.9772555,20.9498904 20.1468211,21.8265837 20.1468211,22.8646315 C20.1468211,23.7278785 19.9523589,24.5776793 19.5641074,25.4133616 C19.1758559,26.2490438 18.5500779,26.9973257 17.6861006,27.6582072 C16.8221233,28.319761 15.7017788,28.8549203 14.3237215,29.2643576 C12.9463371,29.6744671 11.2728856,29.8788496 9.30471296,29.8788496 C8.82360409,29.8788496 8.28530045,29.8405279 7.68912917,29.7645568 C7.09295789,29.6879133 6.4806375,29.5534512 5.852168,29.3625149 C5.22302563,29.1715787 4.60263068,28.9208068 3.99031029,28.6088546 C3.37798991,28.2975747 2.82017276,27.9069622 2.31753174,27.4370169 C1.81489072,26.967744 1.3909766,26.4151046 1.04646227,25.7817878 C0.701947944,25.1477988 0.485953609,24.4109462 0.398479268,23.5698855 C0.311004927,22.7173954 0.362816652,21.9556673 0.554587323,21.2833566 C0.745685115,20.6110458 1.01416405,20.0382371 1.3580055,19.562241 C1.70251983,19.0875896 2.08471541,18.7211803 2.50593801,18.4643576 C2.92716061,18.2082072 3.32348666,18.0744173 3.69558905,18.062988 C3.45469817,18.8388347 3.31272059,19.6200598 3.26898342,20.405991 C3.22524625,21.1932669 3.26898342,21.9523058 3.40019493,22.6844522 C3.53140644,23.4165986 3.75547533,24.1023556 4.07307448,24.7410508 C4.38932787,25.3804183 4.79709287,25.9350747 5.29435086,26.4043476 C5.79228172,26.8742928 6.37432253,27.2454084 7.04181904,27.5190388 C7.7079698,27.791997 8.46226777,27.9284761 9.30471296,27.9284761 C10.2891357,27.9284761 11.1416741,27.761743 11.8636739,27.4289492 C12.5850008,27.0954831 13.1778076,26.6779781 13.6434403,26.1750896 C14.1077272,25.6728735 14.4522415,25.1235956 14.6763104,24.5286006 C14.9003793,23.9329333 15.0127502,23.3782769 15.0127502,22.8646315 C15.0127502,22.1546713 14.9064352,21.5536255 14.6931324,21.0621663 C14.4798296,20.5707072 14.1898185,20.1605976 13.823772,19.83251 C13.4570527,19.5050946 13.0338114,19.2455827 12.5527025,19.0546464 C12.0709208,18.8637102 11.5628967,18.7050448 11.0266117,18.5793227 C10.4909996,18.4536006 9.94462141,18.3473755 9.38680427,18.2599751 C8.82966,18.1725747 8.293375,18.0744173 7.77996791,17.9648307 C7.14476961,17.8337301 6.61184901,17.636743 6.18053322,17.3752141 C5.74854455,17.1130129 5.40672174,16.823247 5.15506479,16.5065886 C4.90340784,16.1899303 4.73720659,15.8564641 4.65511529,15.5061902 C4.57302398,15.1565886 4.56427655,14.8237948 4.63089162,14.5064641 C4.71769309,14.015005 4.89533329,13.6136355 5.16313935,13.3023556 C5.43094541,12.9910757 5.76738518,12.7530777 6.17245867,12.5897062 C5.2862763,12.3927191 4.47141917,12.119761 3.72788727,11.7701594 C2.98435537,11.4205578 2.3451198,10.9996912 1.8088348,10.5082321 C1.27322268,10.0161006 0.858055999,9.45337649 0.562661878,8.82005976 C0.267267756,8.18674303 0.119907135,7.48148904 0.119907135,6.70631474 C0.119907135,5.82088147 0.354742098,4.97982072 0.825084902,4.18246016 C1.29542771,3.3850996 1.95619542,2.68320717 2.80940669,2.07611056 C3.66261795,1.46968625 4.69010502,0.989656375 5.89321366,0.634003984 C7.09632229,0.279023904 8.42996955,0.101533865 9.89550121,0.101533865 C11.0326676,0.101533865 12.0742852,0.205742032 13.0196809,0.413486056 C13.9657496,0.620557769 14.8324184,0.910323705 15.6196875,1.28143924 L20.1468211,1.28143924 L20.1468211,2.62538845 L16.8497113,2.62538845 L18.0306149,2.9534761 Z" id="Fill-6" fill="#E94E1B" mask="url(#mask-4)"></path>
                    </g>
                    <g id="Group-11" transform="translate(124.372678, 0.000000)">
                        <mask id="mask-6" fill="white">
                            <use xlink:href="#path-5"></use>
                        </mask>
                        <g id="Clip-10"></g>
                        <path d="M13.8924281,16.386245 C14.6662396,16.0547958 15.3074938,15.5794721 15.8155179,14.9596016 C16.3242148,14.3397311 16.6882427,13.6311155 16.9089472,12.8344273 C17.1289788,12.0370667 17.1996311,11.1845767 17.1182127,10.2762849 C17.03814,9.36799303 16.7938848,8.45432271 16.3854469,7.5352739 C16.0355495,6.74665339 15.5833745,6.00576693 15.0302675,5.31194223 C14.4771605,4.61946215 13.8446537,4.05741036 13.1327471,3.62511454 C12.4208406,3.19416335 11.6382817,2.93465139 10.7864162,2.84590637 C9.93320489,2.75783367 9.03760221,2.9225498 8.09758948,3.33938247 C7.14815644,3.760249 6.42010077,4.3223008 5.91274959,5.02486554 C5.40539841,5.72810259 5.07434168,6.49655378 4.91823362,7.33089143 C4.76212556,8.16455677 4.75405101,9.02914841 4.89400996,9.92332171 C5.03329602,10.817495 5.27956994,11.6592281 5.6294673,12.4478486 C6.03790519,13.3662251 6.55198516,14.1541733 7.17305298,14.8110209 C7.79344793,15.4685408 8.47440203,15.970757 9.21456953,16.3176693 C9.95473704,16.665254 10.7245112,16.8494671 11.5238921,16.8716534 C12.323273,16.8931673 13.1125608,16.7318127 13.8924281,16.386245 M7.22957487,1.30295319 C8.76845039,0.620557769 10.2703175,0.23061753 11.7338306,0.131115538 C13.1966707,0.0322858566 14.5464671,0.180866534 15.781201,0.57752988 C17.015935,0.974865538 18.1073456,1.58734064 19.0561058,2.41562749 C20.0041931,3.24458665 20.7376318,4.24296813 21.2564219,5.41144422 C21.8552847,6.75942729 22.1251094,8.07446713 22.065896,9.35521912 C22.0066826,10.6366434 21.6810089,11.8420966 21.088202,12.9715787 C20.4953952,14.1017331 19.6643889,15.127007 18.5965291,16.048745 C17.5279963,16.9704831 16.2798048,17.7476743 14.8506086,18.3816633 C13.4113193,19.0196863 11.982796,19.4385359 10.5630201,19.6368675 C9.14459006,19.8358715 7.81228856,19.7935159 6.56678851,19.5091285 C5.32196135,19.2240687 4.20296266,18.6835309 3.20911957,17.8868426 C2.21527648,17.0901544 1.41656845,16.0124402 0.813668379,14.6543725 C0.294878247,13.4865687 0.0452399349,12.2643078 0.0647534418,10.988262 C0.0842669487,9.71288845 0.3655306,8.47381972 0.907871515,7.27105578 C1.45021243,6.06829183 2.24959333,4.94553287 3.30601422,3.9034512 C4.36243511,2.86136952 5.67051295,1.99476096 7.22957487,1.30295319" id="Fill-9" fill="#E94E1B" mask="url(#mask-6)"></path>
                    </g>
                    <g id="Group-23" transform="translate(57.382286, 0.000000)">
                        <mask id="mask-8" fill="white">
                            <use xlink:href="#path-7"></use>
                        </mask>
                        <g id="Clip-22"></g>
                        <path d="M3.58706106,6.48243526 C3.77008429,5.65885458 4.09441224,4.92536355 4.56071776,4.27994522 C5.02702329,3.6351992 5.63463352,3.14575697 6.38354846,2.81161853 C7.26165627,2.41966135 8.12496073,2.25292829 8.9714432,2.31209163 C9.81792567,2.37125498 10.6125964,2.60252988 11.3568012,3.00726096 C12.1003331,3.41131972 12.7772499,3.96126992 13.3875517,4.65778386 C13.9985263,5.35497012 14.5146249,6.1476245 14.9358475,7.03641932 L4.19803569,11.8273058 C3.81112995,10.9351494 3.56687467,10.0275299 3.46526986,9.10310259 C3.36366505,8.17934761 3.4047107,7.30601594 3.58706106,6.48243526 M16.0164921,15.1606225 C15.0879183,15.8436902 14.0644685,16.4353237 12.9468156,16.933506 C12.0781281,17.3214293 11.2309727,17.4841285 10.4066953,17.4209313 C9.58241783,17.3584064 8.81129787,17.1399054 8.09333539,16.7661006 C7.37537291,16.3922958 6.73344582,15.9008367 6.168227,15.2917231 C5.6023353,14.6826096 5.15621616,14.0264343 4.82986958,13.3225249 L3.57764074,13.5759861 L19.5881367,6.43268426 C19.5800621,6.38831175 19.5598758,6.32309761 19.5269047,6.23569721 C19.4939336,6.14829681 19.4575981,6.05417331 19.4178982,5.95198207 C19.3781983,5.85046315 19.3398442,5.75096116 19.3028358,5.65414841 C19.2651545,5.55666335 19.2308377,5.47329681 19.1998852,5.40337649 C18.8163439,4.54550797 18.3318706,3.78983068 17.7457925,3.135 C17.1597144,2.48151394 16.5063484,1.93559761 15.7836757,1.49792331 C15.061676,1.06092131 14.2831543,0.725438247 13.4494566,0.493491036 C12.615086,0.262216135 11.7578374,0.13313247 10.877711,0.10624004 C9.99758451,0.0806922311 9.10736487,0.158007968 8.20637915,0.338187251 C7.30472056,0.519038845 6.42997715,0.79872012 5.58080316,1.17723108 C4.08364616,1.84550797 2.80450214,2.65564243 1.74538974,3.60696215 C1.13710662,4.15220618 0.62235377,4.73375498 0.180944787,5.34354084 C0.90496318,6.90666335 1.31070955,8.63584661 1.31070955,10.4557918 C1.31070955,12.3281773 0.881412396,14.10375 0.11702123,15.702505 C0.571887804,16.3990189 1.0886593,17.011494 1.68348482,17.5170717 C2.65848728,18.3446863 3.7599911,18.9208566 4.98934204,19.2455827 C6.21869297,19.5709811 7.5469572,19.642246 8.97413472,19.4600498 C10.4019851,19.2778536 11.8641524,18.8522809 13.3619822,18.1846763 C13.960845,17.9170966 14.5583621,17.5997659 15.1545334,17.232012 C15.7507046,16.864258 16.3125591,16.4608715 16.8414424,16.0218526 C17.36898,15.5828337 17.8473973,15.1182669 18.2753487,14.6281524 C18.7026272,14.1387102 19.0498331,13.6425448 19.3169662,13.1403287 L18.3049554,12.604497 C17.7067655,13.6257371 16.944393,14.4775548 16.0164921,15.1606225" id="Fill-21" fill="#00CCCC" mask="url(#mask-8)"></path>
                    </g>
                    <g id="Group-26" transform="translate(79.399652, 0.000000)">
                        <mask id="mask-10" fill="white">
                            <use xlink:href="#path-9"></use>
                        </mask>
                        <g id="Clip-25"></g>
                        <path d="M3.62231247,6.48243526 C3.80533571,5.65885458 4.12966365,4.92536355 4.59596918,4.27994522 C5.0622747,3.6351992 5.66988493,3.14575697 6.41879987,2.81161853 C7.29690768,2.41966135 8.16021214,2.25292829 9.00669461,2.31209163 C9.85317708,2.37125498 10.6478478,2.60252988 11.3913797,3.00726096 C12.1355845,3.41131972 12.8125013,3.96126992 13.4228031,4.65778386 C14.0337777,5.35497012 14.5498763,6.1476245 14.9710989,7.03641932 L4.23261422,11.8273058 C3.84638136,10.9351494 3.60212608,10.0275299 3.50052127,9.10310259 C3.39824358,8.17934761 3.43996211,7.30601594 3.62231247,6.48243526 M16.0510706,15.1606225 C15.1231697,15.8436902 14.0997199,16.4353237 12.982067,16.933506 C12.1133795,17.3214293 11.2662241,17.4841285 10.4419467,17.4209313 C9.61766924,17.3584064 8.84654928,17.1399054 8.1285868,16.7661006 C7.41062432,16.3922958 6.76869724,15.9008367 6.20347842,15.2917231 C5.63758672,14.6826096 5.19146758,14.0264343 4.86512099,13.3225249 L3.61289216,13.5759861 L19.6233881,6.43268426 C19.6153136,6.38831175 19.5951272,6.32309761 19.5621561,6.23569721 C19.529185,6.14829681 19.4928495,6.05417331 19.4531496,5.95198207 C19.4134497,5.85046315 19.3750956,5.75096116 19.3374143,5.65414841 C19.3004059,5.55666335 19.2660891,5.47329681 19.2351366,5.40337649 C18.8515953,4.54550797 18.367122,3.78983068 17.7810439,3.135 C17.1949658,2.48151394 16.5415998,1.93559761 15.8189272,1.49792331 C15.0969274,1.06092131 14.3184058,0.725438247 13.4840351,0.493491036 C12.6503374,0.262216135 11.7930888,0.13313247 10.9129624,0.10624004 C10.0328359,0.0806922311 9.14261628,0.158007968 8.24163057,0.338187251 C7.33997197,0.519038845 6.46455568,0.79872012 5.61605457,1.17723108 C4.11889758,1.84550797 2.83975356,2.65564243 1.78064115,3.60696215 C1.17235804,4.15220618 0.657605182,4.73375498 0.216196199,5.34354084 C0.940214592,6.90666335 1.34596096,8.63584661 1.34596096,10.4557918 C1.34596096,12.3281773 0.916663808,14.10375 0.152272642,15.702505 C0.607139216,16.3990189 1.12323783,17.011494 1.71873623,17.5170717 C2.69373869,18.3446863 3.79524251,18.9208566 5.02459345,19.2455827 C6.2532715,19.5709811 7.58220861,19.642246 9.00938613,19.4600498 C10.4365637,19.2778536 11.8994038,18.8522809 13.3972337,18.1846763 C13.9960965,17.9170966 14.5936135,17.5997659 15.1897848,17.232012 C15.7859561,16.864258 16.3478105,16.4608715 16.8766938,16.0218526 C17.4042314,15.5828337 17.8826487,15.1182669 18.3099272,14.6281524 C18.7378786,14.1387102 19.0850845,13.6425448 19.3515448,13.1403287 L18.3402068,12.604497 C17.7420169,13.6257371 16.9789715,14.4775548 16.0510706,15.1606225" id="Fill-24" fill="#00CCCC" mask="url(#mask-10)"></path>
                    </g>
                    <path d="M163.345009,13.0154806 C163.095371,13.8034288 162.705101,14.4979258 162.174199,15.0989716 C161.643297,15.6993451 160.985221,16.1511379 160.19997,16.4536778 C159.407991,16.7703362 158.612647,16.9027814 157.815285,16.8516858 C157.01725,16.7999178 156.254205,16.5867953 155.527495,16.2129905 C154.800112,15.8391858 154.138671,15.3120941 153.5425,14.6323879 C152.946329,13.9533541 152.461855,13.1465812 152.087734,12.2134138 C151.766771,11.4126917 151.552795,10.5628909 151.445807,9.66401145 C151.338819,8.76513197 151.378519,7.90188496 151.56558,7.07427042 C151.751967,6.24598357 152.111285,5.49030627 152.644879,4.80656624 C153.177126,4.12215388 153.925368,3.58766683 154.890278,3.20176046 C155.845094,2.81988795 156.746079,2.68878735 157.595253,2.80845867 C158.443082,2.92812998 159.21622,3.21655129 159.911305,3.6730503 C160.607062,4.13089392 161.218037,4.71647659 161.745575,5.429126 C162.272439,6.14244771 162.696353,6.89946962 163.017317,7.70086404 C163.391438,8.63335906 163.602049,9.55576942 163.649151,10.4667505 C163.695579,11.3777316 163.594648,12.2268601 163.345009,13.0154806 M167.963654,5.75721365 C167.488601,4.57058516 166.792171,3.54598357 165.875036,2.68273655 C164.957901,1.82016185 163.889369,1.16734811 162.670111,0.72563994 C161.450853,0.283931773 160.107786,0.0856000996 158.642254,0.12997261 C157.17605,0.17501743 155.661398,0.510500498 154.098298,1.1357495 C152.51434,1.76906624 151.17531,2.58726843 150.081208,3.58968376 C149.641817,3.99239791 149.245491,4.40990289 148.888192,4.84152639 C149.595389,6.46986305 149.960762,8.26426046 149.891456,10.1393352 C149.812056,12.2860234 149.175512,14.2861479 148.121782,16.0200374 C148.514071,16.6083093 148.962209,17.122627 149.468214,17.559629 C150.431778,18.392622 151.53059,18.9741708 152.763978,19.3042754 C153.998039,19.63438 155.327649,19.7258142 156.752808,19.5799228 C158.17864,19.4333591 159.621967,19.067622 161.083461,18.4827117 C162.534862,17.9025075 163.811315,17.1710334 164.912819,16.289634 C166.014322,15.4075623 166.882337,14.413887 167.516862,13.3065911 C168.150715,12.1999676 168.520799,11.0072883 168.627114,9.72855329 C168.733429,8.45049054 168.512724,7.12671066 167.963654,5.75721365" id="Fill-27" fill="#00CCCC"></path>
                </g>
            </g>
        </g>
    </g>
</svg>