<?xml version="1.0" encoding="UTF-8"?>
<svg width="69px" height="69px" viewBox="0 0 69 69" version="1.1" xmlns="http://www.w3.org/2000/svg" xmlns:xlink="http://www.w3.org/1999/xlink">
    <title>B2B58B82-A73A-4FE9-A24D-7741187599B5</title>
    <g id="Website" stroke="none" stroke-width="1" fill="none" fill-rule="evenodd">
        <g id="About-us" transform="translate(-308.000000, -981.000000)" fill="#000000" fill-rule="nonzero">
            <g id="www" transform="translate(308.000000, 981.000000)">
                <path d="M58.8897017,10.1102933 C45.4106506,-3.36902052 23.5915544,-3.37117501 10.1103488,10.1102933 C-3.36910632,23.5896072 -3.37112616,45.4084234 10.1103488,58.8897571 C23.5893999,72.369071 45.4084961,72.3710908 58.8897017,58.8897571 C72.3691568,45.4104433 72.371042,23.5916271 58.8897017,10.1102933 Z M57.4480761,53.9729356 C55.8365149,52.5318494 54.1126506,51.2565244 52.2956045,50.1574638 C53.4966001,46.0088536 54.2081216,41.4436184 54.3763068,36.698079 L64.5171046,36.698079 C64.0586014,43.094633 61.6008627,49.0950297 57.4480761,53.9729356 Z M4.48281127,36.698079 L14.6236091,36.698079 C14.7917942,41.4436184 15.5033158,46.0088536 16.7043114,50.1574638 C14.8872652,51.2565244 13.163401,52.5318494 11.5518397,53.9729356 C7.39905313,49.0950297 4.94144911,43.094633 4.48281127,36.698079 Z M11.5519744,15.0271149 C13.1635356,16.4682011 14.8873999,17.7435261 16.704446,18.8425867 C15.5034504,22.9911969 14.7919289,27.5564321 14.6237437,32.3019715 L4.48281127,32.3019715 C4.94144911,25.9055521 7.39905313,19.9051555 11.5519744,15.0271149 Z M32.3020377,19.2969153 C28.7172295,19.0405307 25.2607484,18.1575927 22.056343,16.701021 C23.91998,11.9020233 27.3555895,6.14616156 32.3020377,4.71975277 L32.3020377,19.2969153 Z M32.3020377,23.7012369 L32.3020377,32.3021061 L19.021604,32.3021061 C19.1737651,28.2877477 19.7425514,24.4329564 20.6885088,20.9059173 C24.3300071,22.4978181 28.246338,23.4484879 32.3020377,23.7012369 Z M32.3020377,36.698079 L32.3020377,45.2989483 C28.246338,45.5516972 24.3300071,46.5023671 20.6885088,48.0942678 C19.7425514,44.5672287 19.1737651,40.7124374 19.021604,36.698079 L32.3020377,36.698079 Z M32.3020377,49.7032699 L32.3020377,64.2802977 C27.3558588,62.8538889 23.9202493,57.0987005 22.056343,52.2991642 C25.2607484,50.8425925 28.7172295,49.9596545 32.3020377,49.7032699 Z M36.6980128,49.7032699 C40.282821,49.9596545 43.7393021,50.8425925 46.9437075,52.2991642 C45.0799358,57.0982965 41.644461,62.8538889 36.6980128,64.2802977 L36.6980128,49.7032699 Z M36.6980128,45.2989483 L36.6980128,36.698079 L49.9784465,36.698079 C49.8262854,40.7124374 49.2574991,44.5672287 48.3115417,48.0942678 C44.6700434,46.5023671 40.7537125,45.5516972 36.6980128,45.2989483 Z M36.6980128,32.3021061 L36.6980128,23.7012369 C40.7537125,23.4484879 44.6700434,22.4978181 48.3115417,20.9059173 C49.2574991,24.4329564 49.8262854,28.2877477 49.9784465,32.3021061 L36.6980128,32.3021061 Z M36.6980128,19.2969153 L36.6980128,4.71988743 C41.644461,6.14629621 45.0800705,11.9021579 46.9437075,16.7011556 C43.7393021,18.1575927 40.282821,19.0405307 36.6980128,19.2969153 Z M46.5709801,6.91437284 C49.3846142,8.14647331 52.0095954,9.81714769 54.3627065,11.8900389 C53.2426391,12.8776045 52.0607647,13.7730655 50.8266438,14.5738635 C49.7306797,11.86028 48.3306628,9.22318101 46.5709801,6.91437284 Z M18.1732721,14.5738635 C16.9391512,13.7730655 15.7574114,12.8776045 14.6372093,11.8900389 C16.9903204,9.81714769 19.6153016,8.14647331 22.4289357,6.91437284 C20.669253,9.22345032 19.2692361,11.8605493 18.1732721,14.5738635 Z M18.1734067,54.4263217 C19.2692361,57.1397705 20.6695223,59.7770041 22.4290704,62.0858123 C19.6154363,60.8537118 16.9904551,59.1830375 14.637344,57.1101462 C15.7574114,56.1225807 16.9392858,55.2271197 18.1734067,54.4263217 L18.1734067,54.4263217 Z M50.8266438,54.4263217 C52.0607647,55.2271197 53.2426391,56.1225807 54.3627065,57.1100116 C52.0095954,59.1829028 49.3846142,60.8535772 46.5709801,62.0856777 C48.3305282,59.7771388 49.7306797,57.1399052 50.8266438,54.4263217 Z M54.3764414,32.3021061 C54.2082563,27.5565668 53.4967347,22.9911969 52.2957391,18.8427213 C54.1127852,17.7436608 55.8365149,16.4683358 57.4482108,15.0272495 C61.6009974,19.9051555 64.0586014,25.9055521 64.5172392,32.3021061 L54.3764414,32.3021061 Z" id="Shape"></path>
            </g>
        </g>
    </g>
</svg>