<?xml version="1.0" encoding="UTF-8"?>
<svg width="108px" height="71px" viewBox="0 0 108 71" version="1.1" xmlns="http://www.w3.org/2000/svg" xmlns:xlink="http://www.w3.org/1999/xlink">
    <title>619F77B2-BBC2-41B4-B11F-6DA2C82263CE</title>
    <g id="Website" stroke="none" stroke-width="1" fill="none" fill-rule="evenodd">
        <g id="Homepage" transform="translate(-241.000000, -1327.000000)" fill="#E94E1B" fill-rule="nonzero">
            <g id="Group-16" transform="translate(165.000000, 1327.000000)">
                <g id="transportation" transform="translate(130.000000, 35.500000) scale(-1, 1) translate(-130.000000, -35.500000) translate(76.000000, 0.000000)">
                    <path d="M2.1125825,59.8880363 L8.03053394,59.8880363 C8.72236303,65.8573031 13.778465,70.3600654 19.7866818,70.3600654 C25.7961352,70.3600654 30.8510005,65.8573031 31.5434478,59.8880363 L69.8122902,59.8880363 C70.5059739,65.8573031 75.560221,70.3600654 81.5684378,70.3600654 C87.5778912,70.3600654 92.6321384,65.8573031 93.3258223,59.8880363 L105.812131,59.8880363 C106.901499,59.8880363 107.784369,59.0051661 107.784369,57.9157981 L107.784369,2.05199344 C107.784369,0.962625367 106.901499,0.079136835 105.812131,0.079136835 L37.3624782,0.079136835 C36.2743467,0.079136835 35.3908582,0.962625367 35.3908582,2.05199344 L35.3908582,13.1175486 L18.6818573,13.1175486 C18.0370159,13.1194034 17.4329791,13.4353325 17.0644983,13.9664149 L6.27468541,29.4110811 L2.05384809,35.3290325 L0.515007644,37.5188971 C0.284398001,37.8484278 0.160128447,38.2404025 0.158052191,38.6428875 L0.158052191,57.8570637 C0.143435513,58.3862912 0.341895818,58.9000625 0.709140272,59.2821451 C1.07638457,59.6648457 1.5827367,59.8830902 2.1125825,59.8880363 L2.1125825,59.8880363 Z M19.7471134,65.8053695 C15.3902596,65.8053695 11.8569235,62.2726518 11.8569235,57.9157981 C11.8569235,53.5577079 15.3902596,50.02499 19.7471134,50.02499 C24.1052035,50.02499 27.6379214,53.5577079 27.6379214,57.9157981 C27.6379214,62.2893448 24.1212783,65.8505024 19.7471134,65.9042906 L19.7471134,65.8053695 Z M81.5288694,65.8053695 C77.1713974,65.8053695 73.6380614,62.2726518 73.6380614,57.9157981 C73.6380614,53.5577079 77.1713974,50.02499 81.5288694,50.02499 C85.887578,50.02499 89.4196775,53.5577079 89.4196775,57.9157981 C89.4202957,62.2893448 85.9030344,65.8505024 81.5288694,65.9042906 L81.5288694,65.8053695 Z M103.799706,4.02423167 L103.799706,39.3736666 L50.2438529,39.3736666 C49.1544848,39.3736666 48.2709963,40.256537 48.2709963,41.345905 C48.2709963,42.4352729 49.1544848,43.3187615 50.2438529,43.3187615 L103.799706,43.3187615 L103.799706,55.9429415 L93.2868721,55.9429415 C92.5931882,49.9742931 87.5383228,45.472149 81.5288694,45.472149 C75.5206526,45.472149 70.4657873,49.9742931 69.7727217,55.9429415 L39.3353348,55.9429415 L39.3353348,12.9994616 L53.5768737,12.9994616 C54.6662418,12.9994616 55.5497303,12.115973 55.5497303,11.0266051 C55.5497303,9.93723706 54.6662418,9.05374853 53.5768737,9.05374853 L39.3353348,9.05374853 L39.3353348,4.02423167 L103.799706,4.02423167 Z M19.7081632,17.0632618 L35.4885426,17.0632618 L35.4885426,55.9429415 L31.5434478,55.9429415 C30.8510005,49.9742931 25.7961352,45.472149 19.7866818,45.472149 C13.778465,45.472149 8.72236303,49.9742931 8.03053394,55.9429415 L4.08482089,55.9429415 L4.08482089,39.2741274 L4.67649234,38.4258794 L28.7427457,38.4258794 C29.8321138,38.4258794 30.7149841,37.5436273 30.7149841,36.4542594 L30.7149841,21.8572228 C30.7149841,20.7678549 29.8321138,19.8843662 28.7427457,19.8843662 L17.6957383,19.8843662 L19.7081632,17.0632618 Z M14.9346046,23.8690296 L26.7698892,23.8690296 L26.7698892,34.520353 L7.41846006,34.520353 L14.9346046,23.8690296 Z" id="Shape"></path>
                </g>
            </g>
        </g>
    </g>
</svg>