<?xml version="1.0" encoding="UTF-8"?>
<svg width="100px" height="89px" viewBox="0 0 100 89" version="1.1" xmlns="http://www.w3.org/2000/svg" xmlns:xlink="http://www.w3.org/1999/xlink">
    <title>1EBF5896-A309-4964-93B6-7EDB39AFD27D</title>
    <g id="Website" stroke="none" stroke-width="1" fill="none" fill-rule="evenodd">
        <g id="Homepage" transform="translate(-450.000000, -1576.000000)" fill="#E94E1B" fill-rule="nonzero">
            <g id="Group-12" transform="translate(370.000000, 1576.000000)">
                <g id="heart-(1)" transform="translate(80.000000, 0.000000)">
                    <path d="M50,88.9678955 C48.5763551,88.9678955 47.203827,88.4521484 46.1341857,87.5152588 C42.0944215,83.9828492 38.1996154,80.6632996 34.7633361,77.7351379 L34.7457887,77.7198791 C24.671173,69.1345215 15.9713746,61.7202758 9.91821289,54.4166564 C3.15170293,46.2516785 0,38.5101318 0,30.052948 C0,21.83609 2.81753535,14.2555236 7.93304453,8.70666504 C13.1095887,3.09219355 20.2125549,0 27.935791,0 C33.708191,0 38.9945984,1.82495117 43.647766,5.42373652 C45.9960938,7.24029531 48.1246949,9.46350098 50,12.0567322 C51.8760682,9.46350098 54.0039062,7.24029531 56.3529969,5.42373652 C61.0061645,1.82495117 66.2925721,0 72.0649719,0 C79.7874451,0 86.8911742,3.09219355 92.0677186,8.70666504 C97.1832275,14.2555236 100,21.83609 100,30.052948 C100,38.5101318 96.8490602,46.2516785 90.08255,54.4158936 C84.0293885,61.7202758 75.3303527,69.1337586 65.2572633,77.7183533 C61.8148805,80.6510926 57.9139709,83.9759826 53.8650512,87.5167848 C52.796173,88.4521484 51.422882,88.9678955 50,88.9678955 L50,88.9678955 Z M27.935791,5.85784922 C21.8681336,5.85784922 16.2940979,8.27941895 12.2390746,12.677002 C8.1237793,17.1409607 5.85708613,23.311615 5.85708613,30.052948 C5.85708613,37.1658324 8.50067148,43.5272217 14.427948,50.679016 C20.1568604,57.5920105 28.6781311,64.8536682 38.5444641,73.2620238 L38.5627746,73.2772828 C42.0120238,76.2168885 45.9220887,79.549408 49.9916076,83.1077576 C54.0855408,79.5425414 58.001709,76.2046814 61.4578246,73.260498 C71.3233947,64.8521424 79.8439025,57.5920105 85.5728148,50.679016 C91.4993285,43.5272217 94.1429139,37.1658324 94.1429139,30.052948 C94.1429139,23.311615 91.8762207,17.1409607 87.7609254,12.677002 C83.706665,8.27941895 78.1318664,5.85784922 72.0649719,5.85784922 C67.6200867,5.85784922 63.5391234,7.27081289 59.9357605,10.057068 C56.7245484,12.5411988 54.4876098,15.6814574 53.176117,17.878723 C52.5016785,19.0086365 51.3145447,19.683075 50,19.683075 C48.6854553,19.683075 47.4983215,19.0086365 46.823883,17.878723 C45.5131531,15.6814574 43.2762146,12.5411988 40.0642395,10.057068 C36.4608766,7.27081289 32.3799133,5.85784922 27.935791,5.85784922 Z" id="Shape"></path>
                </g>
            </g>
        </g>
    </g>
</svg>