<?xml version="1.0" encoding="UTF-8"?>
<svg width="150px" height="127px" viewBox="0 0 150 127" version="1.1" xmlns="http://www.w3.org/2000/svg" xmlns:xlink="http://www.w3.org/1999/xlink">
    <title>89CE20BB-95CF-4AA0-B839-4CADA7E16D21</title>
    <g id="Website" stroke="none" stroke-width="1" fill="none" fill-rule="evenodd">
        <g id="Homepage" transform="translate(-645.000000, -1271.000000)" fill="#E94E1B" fill-rule="nonzero">
            <g id="Group-15" transform="translate(590.000000, 1271.000000)">
                <g id="donation" transform="translate(55.000000, 0.000000)">
                    <path d="M143.779904,77.672488 L134.994019,77.672488 C127.042998,70.1342127 114.583797,70.1342127 106.632775,77.672488 L88.277512,77.672488 C84.5398279,77.6771738 81.3501084,80.3761361 80.7267943,84.0614833 L64.0471292,78.5004785 C61.6794247,77.7114562 59.0767754,78.108634 57.052178,79.5679441 C55.0275807,81.0272543 53.8276695,83.3707947 53.8276695,85.8665072 L53.8276695,85.9921053 C53.8155377,88.6580025 55.1734296,91.1433149 57.423445,92.5732057 L90.645933,113.713876 C95.0345095,116.500083 100.384564,117.334482 105.413158,116.016986 L134.458134,108.373206 L143.779904,108.373206 C144.836909,108.373206 145.69378,107.516334 145.69378,106.45933 L145.69378,79.5863636 C145.69378,78.5293593 144.836909,77.672488 143.779904,77.672488 Z M141.866029,104.545455 L134.210526,104.545455 C134.046126,104.545481 133.882415,104.566709 133.723445,104.608612 L104.437799,112.31555 C100.440619,113.361334 96.1885798,112.698115 92.6997608,110.484689 L59.4784689,89.3440191 C58.3353077,88.6141004 57.646944,87.3483964 57.6554235,85.9921053 L57.6554235,85.8665072 C57.6580977,83.6978865 59.4103596,81.9378249 61.5789474,81.9255981 C62.0063803,81.926152 62.4309139,81.9957901 62.8361244,82.1318182 L81.2021531,88.2562201 C82.3849084,91.1200281 85.1790777,92.9869016 88.277512,92.9834928 L107.416268,92.9834928 C108.473272,92.9834928 109.330144,92.1266215 109.330144,91.0696172 C109.330144,90.0126129 108.473272,89.1557416 107.416268,89.1557416 L88.277512,89.1557416 C86.5273969,89.1583651 84.999096,87.9719535 84.5677033,86.2758373 L84.5677033,86.2710526 C84.2777468,85.1262069 84.5321109,83.9116166 85.2570706,82.9793184 C85.9820304,82.0470203 87.0965186,81.5012668 88.277512,81.5002392 L107.416268,81.5002392 C107.923866,81.5002577 108.410682,81.29863 108.769617,80.9397129 L108.963397,80.745933 C115.511997,74.2115367 126.114319,74.2115367 132.662919,80.745933 L132.856699,80.9397129 C133.215751,81.2987472 133.702762,81.5003847 134.210526,81.5002392 L141.866029,81.5002392 L141.866029,104.545455 Z" id="Shape" transform="translate(99.760684, 94.323305) rotate(-13.000000) translate(-99.760684, -94.323305) "></path>
                    <path d="M43.4303828,67.0000583 C43.4607656,67.0081922 43.4913876,67.0156085 43.522488,67.0223071 C44.7821703,67.2931146 46.0670398,67.4294445 47.3555024,67.4290056 C47.4437799,67.4290056 47.5320574,67.4263741 47.6200957,67.4251779 C48.9451844,70.0583199 51.834256,71.5175627 54.7399522,71.0213501 L57.0045455,70.6361827 C58.3300501,71.5665922 59.9694298,71.9357235 61.5657895,71.6632162 L66.1442584,70.884508 C66.5354595,71.5906066 67.0236127,72.2384444 67.5944976,72.8091492 L81.4222488,86.6369004 C81.7811729,86.995843 82.2679896,87.1974964 82.7755981,87.1974964 C83.2832065,87.1974964 83.7700232,86.995843 84.1289474,86.6369004 L97.9566986,72.8091492 C100.132514,70.6333334 100.982267,67.4620127 100.185863,64.489793 C99.3894595,61.5175733 97.0678916,59.1960055 94.0956719,58.3996016 C91.1234523,57.6031978 87.9521316,58.4529506 85.7763158,60.6287664 L82.7751196,63.6294841 L81.9657895,62.820154 C84.7840762,60.3625392 85.5071092,56.2722922 83.7021531,52.9974267 C83.7514746,52.8829148 83.7894552,52.7638449 83.8155502,52.6419243 L84.6105263,48.949819 C85.2995468,45.710846 84.431871,42.3361183 82.2660287,39.8311587 L75.1791866,31.673264 C73.1366844,29.3160393 70.1518913,27.9889289 67.0334928,28.0514937 L38.1100478,28.6017329 L14.2509569,16.7081922 C13.657679,16.412455 12.9536121,16.4447826 12.3899311,16.7936421 C11.8262502,17.1425016 11.4832536,17.7582088 11.4832536,18.4211109 L11.4832536,47.1292449 C11.4832536,47.8812888 11.9237557,48.5636099 12.6090909,48.873264 L27.4990431,55.6002975 L30.3744019,59.127331 C33.6210715,63.0990274 38.1184377,65.8525858 43.1320574,66.9383358 C43.2315789,66.9596276 43.3308612,66.980441 43.4303828,67.0000583 Z M52.042823,66.8220678 C52.842235,66.6110036 53.626411,66.3459615 54.3899522,66.0287664 C54.4191881,66.412933 54.484223,66.7935316 54.5842105,67.1656085 L54.0995215,67.2481444 C53.3843757,67.3704074 52.649433,67.2182413 52.0416268,66.8220678 L52.042823,66.8220678 Z M60.9253589,67.8900104 C60.0090241,68.0460402 59.0879184,67.6406859 58.5839713,66.8596276 C58.184186,66.2382152 58.0912625,65.467849 58.3318182,64.769197 C58.4567245,64.3792236 58.6921724,64.0339056 59.0095694,63.7751779 L60.8452153,62.8593884 L65.7174641,63.453886 C65.2919577,64.4898157 65.0726301,65.5988054 65.0717703,66.7187186 C65.0717703,66.8737425 65.076555,67.0282879 65.084689,67.1821157 L60.9253589,67.8900104 Z M81.4229665,67.6895319 C81.7818906,68.0484746 82.2687073,68.250128 82.7763158,68.250128 C83.2839242,68.250128 83.7707409,68.0484746 84.1296651,67.6895319 L88.4837321,63.335465 C90.3524496,61.4667475 93.3822394,61.4667475 95.2509569,63.335465 C97.1196744,65.2041825 97.1196744,68.2339723 95.2509569,70.1026898 L82.7751196,82.5766133 L70.3011962,70.1029291 C68.6499902,68.4532316 68.4315438,65.8523039 69.7844498,63.9502975 L75.8160287,64.6861827 C76.6529155,64.7882696 77.5006724,64.7575888 78.3279904,64.5952736 L81.4229665,67.6895319 Z M33.3423445,56.7086707 L30.1822967,52.8330726 C29.995119,52.6032825 29.757017,52.4202216 29.4868421,52.2983836 L15.3110048,45.8938382 L15.3110048,21.5136946 L36.822488,32.2373788 C37.0998303,32.3721331 37.4045831,32.4409113 37.7129187,32.4383358 L67.1052632,31.8787664 C67.1483254,31.8787664 67.1909091,31.877331 67.2337321,31.877331 C69.1740333,31.8751325 71.0194463,32.7165521 72.2901914,34.1828334 L79.3779904,42.3407281 C80.7561554,43.9347816 81.3081957,46.0822934 80.8696172,48.1433597 L80.5043062,49.8407281 C79.8549072,49.4959716 79.1608072,49.2430007 78.441866,49.0890535 L74.9545455,48.3380965 L75.3574163,46.4672831 C75.5799156,45.4339293 74.9225882,44.4158592 73.8892344,44.1933598 C72.8558806,43.9708604 71.8378105,44.6281877 71.615311,45.6615415 L71.2124402,47.5325941 L68.4720096,46.9424028 L66.3143541,41.4763741 C66.0632852,40.8403473 65.4919718,40.3865779 64.8156221,40.2859965 C64.1392724,40.1854151 63.4606399,40.4533024 63.0353589,40.9887477 C62.610078,41.5241931 62.5027589,42.2458497 62.7538278,42.8818764 L63.9739234,45.9742209 L59.9547847,45.1089099 C59.2823351,44.9545408 58.5788477,45.1740537 58.1135167,45.6834507 C57.6481857,46.1928477 57.4930456,46.9132726 57.7074618,47.5690499 C57.9218781,48.2248273 58.4726584,48.7144408 59.1490431,48.8505367 L77.6363636,52.8311587 C79.7740425,53.2904236 81.1719215,55.3504222 80.809002,57.5065494 C80.4460826,59.6626767 78.4508576,61.1515477 76.280622,60.8857042 L60.7375598,58.9892927 C60.3650635,58.9440142 59.9874721,59.0091506 59.6516746,59.1766133 L58.1787081,59.911063 C58.1741627,59.9127377 58.169378,59.9136946 58.1648325,59.9153693 C57.7619093,60.0610331 57.377591,60.2537544 57.0198565,60.4895319 L53.8232057,62.0840296 C50.9228943,63.5259943 47.6234566,63.95592 44.4504785,63.3053214 C44.3961722,63.2900104 44.3411483,63.2768525 44.2854067,63.2663262 C44.1684211,63.2440774 44.0514354,63.220154 43.9368421,63.1945559 C39.7730496,62.2931732 36.0378531,60.0067674 33.3411483,56.7086707 L33.3423445,56.7086707 Z" id="Shape" transform="translate(55.981394, 51.852337) rotate(-27.000000) translate(-55.981394, -51.852337) "></path>
                </g>
            </g>
        </g>
    </g>
</svg>