<?xml version="1.0" encoding="UTF-8"?>
<svg width="111px" height="100px" viewBox="0 0 111 100" version="1.1" xmlns="http://www.w3.org/2000/svg" xmlns:xlink="http://www.w3.org/1999/xlink">
    <title>8D3D8BDA-5984-4D3F-A247-058666A1C8E6</title>
    <g id="Website" stroke="none" stroke-width="1" fill="none" fill-rule="evenodd">
        <g id="Homepage" transform="translate(-1090.000000, -1298.000000)" fill="#E94E1B" fill-rule="nonzero">
            <g id="Group-14" transform="translate(1014.000000, 1298.000000)">
                <g id="fresh" transform="translate(76.000000, 0.000000)">
                    <path d="M44.9850523,65.2825112 C44.6661684,65.2825112 44.3477828,65.1609367 44.1041355,64.9177877 L30.0727454,50.8863976 C29.5859492,50.4000997 29.5859492,49.6113602 30.0727454,49.1250623 C30.5595416,48.6382661 31.3477828,48.6382661 31.8340807,49.1250623 L45.8654709,63.1564524 C46.3522671,63.6427504 46.3522671,64.4314898 45.8654709,64.9177877 C45.6223219,65.1609367 45.3039362,65.2825112 44.9850523,65.2825112 Z" id="Path"></path>
                    <path d="M64.8734429,65.9800698 C64.554559,65.9800698 64.2361734,65.8584953 63.9925262,65.6153463 C63.5057299,65.1290483 63.5057299,64.3403089 63.9925262,63.854011 L78.7214748,49.1250623 C79.2082711,48.6382661 79.9965122,48.6382661 80.4828102,49.1250623 C80.9696064,49.6113602 80.9696064,50.4000997 80.4828102,50.8863976 L65.7538615,65.6153463 C65.5107125,65.8584953 65.1923269,65.9800698 64.8734429,65.9800698 Z" id="Path"></path>
                    <path d="M55.2775286,46.2680618 C54.589437,46.2680618 54.0318884,45.7105132 54.0318884,45.0224215 L54.0318884,23.6452417 C54.0318884,22.95715 54.589437,22.3996014 55.2775286,22.3996014 C55.9656203,22.3996014 56.5231689,22.95715 56.5231689,23.6452417 L56.5231689,45.0224215 C56.5231689,45.7105132 55.9656203,46.2680618 55.2775286,46.2680618 L55.2775286,46.2680618 Z" id="Path"></path>
                    <path d="M55.2775286,99.4464375 C46.918286,99.4464375 40.1170902,92.6457399 40.1170902,84.285999 C40.1170902,75.9262581 46.9177877,69.1255605 55.2775286,69.1255605 C63.6372696,69.1255605 70.4384654,75.9262581 70.4384654,84.285999 C70.4384654,92.6457399 63.6377678,99.4464375 55.2775286,99.4464375 L55.2775286,99.4464375 Z M55.2775286,71.6163428 C48.2914798,71.6163428 42.6083707,77.2999502 42.6083707,84.2855007 C42.6083707,91.2710513 48.2914798,96.9546587 55.2775286,96.9546587 C62.2635775,96.9546587 67.9471849,91.2710513 67.9471849,84.2855007 C67.9471849,77.2999502 62.2635775,71.6163428 55.2775286,71.6163428 L55.2775286,71.6163428 Z" id="Shape"></path>
                    <path d="M40.815147,40.143996 C31.7962133,31.124564 15.7404086,32.9431988 15.0617838,33.0259093 C14.4917788,33.0946687 14.04285,33.5435974 13.9735924,34.1136024 C13.8918784,34.7927255 12.0722471,50.8480319 21.0916791,59.8674639 C27.4215247,66.1978077 37.2172397,67.1888391 42.73144,67.1888391 C45.0732436,67.1888391 46.6432486,67.0099651 46.8455406,66.9855506 C47.4155456,66.9167912 47.8644743,66.4678625 47.9337319,65.8978575 C48.0149477,65.2187344 49.8350772,49.1629297 40.815147,40.143996 Z M45.5430992,64.595416 C41.9790732,64.8276034 29.7962133,65.0488291 22.8530144,58.1056303 C15.9093174,51.1619332 16.1325361,38.978575 16.363727,35.4155456 C19.9267564,35.1833582 32.1106129,34.9621325 39.0538117,41.9053313 C45.9970105,48.8490284 45.77429,61.0323866 45.5430992,64.595416 Z" id="Shape"></path>
                    <path d="M96.5824614,34.1131041 C96.5132038,33.5430992 96.064275,33.0941704 95.4942701,33.0254111 C94.8161435,32.9427005 78.7603388,31.1230693 69.7404086,40.1434978 C60.7199801,49.1629297 62.5401096,65.2182362 62.6218236,65.8973592 C62.6910812,66.4673642 63.14001,66.916293 63.7100149,66.9850523 C63.9123069,67.0094669 65.4813154,67.1883408 67.8246139,67.1883408 C73.3378176,67.1883408 83.1345291,66.1968112 89.4643747,59.8669656 C98.4838067,50.8480319 96.6641754,34.7922272 96.5824614,34.1131041 Z M65.0119581,64.595416 C64.7807673,61.0323866 64.5580468,48.8490284 71.5017439,41.9053313 C78.445441,34.9616343 90.6283009,35.1843548 94.1918286,35.4155456 C94.4230194,38.9790732 94.6457399,51.1619332 87.7025411,58.1056303 C80.758844,65.0493274 68.5769806,64.8281016 65.0119581,64.595416 Z" id="Shape"></path>
                    <path d="M54.5082212,46.8893871 C54.7339312,47.0662681 55.0059791,47.1549576 55.2775286,47.1549576 C55.5490782,47.1549576 55.8211261,47.0662681 56.0468361,46.8893871 C56.5844544,46.466866 69.2242152,36.4005979 69.2242152,23.6452417 C69.2242152,10.8898854 56.5844544,0.823617339 56.0468361,0.401096163 C55.595416,0.0468360737 54.9596413,0.0468360737 54.5082212,0.401096163 C53.9706029,0.823617339 41.3313403,10.8898854 41.3313403,23.6452417 C41.3313403,36.4005979 53.9706029,46.4673642 54.5082212,46.8893871 Z M55.2775286,3.01195815 C57.9616343,5.36920777 66.7329347,13.8266069 66.7329347,23.6452417 C66.7329347,33.4643747 57.9616343,41.9217738 55.2775286,44.2790234 C52.5939213,41.9217738 43.8226208,33.4643747 43.8226208,23.6452417 C43.8226208,13.8266069 52.5944195,5.36920777 55.2775286,3.01195815 Z" id="Shape"></path>
                    <path d="M61.2650722,79.4265072 L53.8669656,86.8241156 L50.0767314,83.0338814 C49.5899352,82.5470852 48.8016941,82.5470852 48.3153961,83.0338814 C47.8285999,83.5201794 47.8285999,84.3089188 48.3153961,84.7952167 L52.9865471,89.4663677 C53.2202292,89.7000498 53.5366218,89.8310912 53.8674639,89.8310912 C54.1983059,89.8310912 54.5146986,89.7000498 54.7483807,89.4663677 L63.0269058,81.1878426 C63.513702,80.7015446 63.513702,79.9128052 63.0269058,79.4265072 C62.5401096,78.939711 61.7518685,78.939711 61.2650722,79.4265072 Z" id="Path"></path>
                    <path d="M54.3099153,51.2994519 L54.3099153,61.7339312 C54.3099153,62.4220229 54.8674639,62.9795715 55.5555556,62.9795715 C56.2436472,62.9795715 56.8011958,62.4220229 56.8011958,61.7339312 L56.8011958,51.2994519 C56.8011958,50.6113602 56.2436472,50.0538117 55.5555556,50.0538117 C54.8674639,50.0538117 54.3099153,50.6118585 54.3099153,51.2994519 Z" id="Path"></path>
                    <path d="M109.696064,82.5142003 L77.5814649,82.5142003 C76.8933732,82.5142003 76.3358246,83.0717489 76.3358246,83.7598406 C76.3358246,84.4479322 76.8933732,85.0054808 77.5814649,85.0054808 L109.696064,85.0054808 C110.384155,85.0054808 110.941704,84.4479322 110.941704,83.7598406 C110.941704,83.0717489 110.384155,82.5142003 109.696064,82.5142003 L109.696064,82.5142003 Z" id="Path"></path>
                    <path d="M33.5296462,82.5142003 L1.41504733,82.5142003 C0.726955655,82.5142003 0.169407075,83.0717489 0.169407075,83.7598406 C0.169407075,84.4479322 0.726955655,85.0054808 1.41504733,85.0054808 L33.5296462,85.0054808 C34.2177379,85.0054808 34.7752865,84.4479322 34.7752865,83.7598406 C34.7752865,83.0717489 34.2177379,82.5142003 33.5296462,82.5142003 Z" id="Path"></path>
                    <path d="M35.7204783,74.1026408 L1.89586447,59.9367215 C1.26158445,59.6716492 0.531639263,59.9696064 0.266068759,60.6043847 C0.000498256104,61.2386647 0.298953662,61.9686099 0.933731938,62.2346786 L34.7583458,76.4005979 C34.9152965,76.4663677 35.0787245,76.4972596 35.2391629,76.4972596 C35.7264574,76.4972596 36.1883408,76.2097658 36.3886398,75.7324365 C36.653712,75.0981565 36.3552566,74.3682113 35.7204783,74.1026408 Z" id="Path"></path>
                    <path d="M110.167912,62.735426 C110.804684,62.4748381 111.109616,61.7473842 110.84853,61.1106129 C110.58844,60.4743398 109.860488,60.1699053 109.223717,60.429995 L75.4653712,74.2580967 C74.8285999,74.5186846 74.5236672,75.2461385 74.7847534,75.8829098 C74.9820628,76.3647235 75.447434,76.6567015 75.937718,76.6567015 C76.0946687,76.6567015 76.2551071,76.6268062 76.4090683,76.5635277 L110.167912,62.735426 Z" id="Path"></path>
                </g>
            </g>
        </g>
    </g>
</svg>