<?xml version="1.0" encoding="UTF-8"?>
<svg width="100px" height="94px" viewBox="0 0 100 94" version="1.1" xmlns="http://www.w3.org/2000/svg" xmlns:xlink="http://www.w3.org/1999/xlink">
    <title>53CD1591-628F-464E-B51B-DDA6EBD90908</title>
    <g id="Website" stroke="none" stroke-width="1" fill="none" fill-rule="evenodd">
        <g id="Homepage" transform="translate(-890.000000, -1571.000000)" fill="#E94E1B" fill-rule="nonzero">
            <g id="Group-13" transform="translate(810.000000, 1571.000000)">
                <g id="shopping" transform="translate(80.000000, 0.000000)">
                    <path d="M100,48.3333333 L100,8.33333333 C100,3.73096042 96.2690396,0 91.6666667,0 L71.6666667,0 C67.0642938,0 63.3333333,3.73096042 63.3333333,8.33333333 L63.3333333,20 L10,20 C7.24199533,20.008237 5.008237,22.2419953 5,25 L5,76.6666667 L1.66666667,76.6666667 C0.746192084,76.6666667 0,77.4128588 0,78.3333333 L0,85 C0,89.6023729 3.73096042,93.3333333 8.33333333,93.3333333 L91.6666667,93.3333333 C96.2690396,93.3333333 100,89.6023729 100,85 L100,78.3333333 C100,77.4128588 99.2538079,76.6666667 98.3333333,76.6666667 L95,76.6666667 L95,55.9666667 C98.0313905,54.6370657 99.9922509,51.6434855 100,48.3333333 Z M66.6666667,8.33333333 C66.6749037,5.57532867 68.908662,3.34157034 71.6666667,3.33333333 L91.6666667,3.33333333 C94.4246713,3.34157034 96.6584297,5.57532867 96.6666667,8.33333333 L96.6666667,10 L66.6666667,10 L66.6666667,8.33333333 Z M66.6666667,13.3333333 L96.6666667,13.3333333 L96.6666667,43.3333333 L66.6666667,43.3333333 L66.6666667,13.3333333 Z M71.6666667,56.6666667 L85,56.6666667 L85,70 L15,70 L15,30 L63.3333333,30 L63.3333333,48.3333333 C63.3333333,52.9357062 67.0642938,56.6666667 71.6666667,56.6666667 Z M8.33333333,25 C8.33333333,24.0795254 9.07952542,23.3333333 10,23.3333333 L63.3333333,23.3333333 L63.3333333,26.6666667 L13.3333333,26.6666667 C12.4128588,26.6666667 11.6666667,27.4128588 11.6666667,28.3333333 L11.6666667,71.6666667 C11.6666667,72.5871412 12.4128588,73.3333333 13.3333333,73.3333333 L86.6666667,73.3333333 C87.5871412,73.3333333 88.3333333,72.5871412 88.3333333,71.6666667 L88.3333333,56.6666667 L91.6666667,56.6666667 L91.6666667,76.6666667 L8.33333333,76.6666667 L8.33333333,25 Z M56.6666667,80 L56.6666667,81.6666667 C56.6666667,82.5871412 55.9204746,83.3333333 55,83.3333333 L45,83.3333333 C44.0795254,83.3333333 43.3333333,82.5871412 43.3333333,81.6666667 L43.3333333,80 L56.6666667,80 Z M96.6666667,80 L96.6666667,85 C96.6584297,87.7580047 94.4246713,89.991763 91.6666667,90 L8.33333333,90 C5.57532867,89.991763 3.34157034,87.7580047 3.33333333,85 L3.33333333,80 L40,80 L40,81.6666667 C40.008237,84.4246713 42.2419953,86.6584297 45,86.6666667 L55,86.6666667 C57.7580047,86.6584297 59.991763,84.4246713 60,81.6666667 L60,80 L96.6666667,80 Z M91.6666667,53.3333333 L71.6666667,53.3333333 C68.908662,53.3250963 66.6749037,51.091338 66.6666667,48.3333333 L66.6666667,46.6666667 L96.6666667,46.6666667 L96.6666667,48.3333333 C96.6584297,51.091338 94.4246713,53.3250963 91.6666667,53.3333333 L91.6666667,53.3333333 Z" id="Shape"></path>
                    <circle id="Oval" cx="78.3333333" cy="36.6666667" r="3.33333333"></circle>
                    <circle id="Oval" cx="86.6666667" cy="36.6666667" r="3.33333333"></circle>
                    <path d="M89.9133333,32.1933333 L93.2466667,22.1933333 C93.4158676,21.6853245 93.3306925,21.1269574 93.0177248,20.6925002 C92.7047571,20.2580429 92.202112,20.0004065 91.6666667,20 L76.8883333,20 L76.6533333,18.1266667 C76.549126,17.2927707 75.8403818,16.6669038 75,16.6666667 L71.6666667,16.6666667 C70.7461921,16.6666667 70,17.4128588 70,18.3333333 C70,19.2538079 70.7461921,20 71.6666667,20 L73.5283333,20 L73.76,21.8516667 L73.76,21.9 L75.0066667,31.8733333 C75.1111838,32.7097552 75.8237458,33.3364664 76.6666667,33.333345 L88.3333333,33.333345 C89.0503988,33.3327889 89.6867408,32.8736561 89.9133333,32.1933333 L89.9133333,32.1933333 Z M78.1383333,30 L77.305,23.3333333 L89.3533333,23.3333333 L87.1316667,30 L78.1383333,30 Z" id="Shape"></path>
                    <circle id="Oval" cx="35.2083333" cy="56.875" r="3.33333333"></circle>
                    <circle id="Oval" cx="43.5416667" cy="56.875" r="3.33333333"></circle>
                    <path d="M28.5416667,40.2083333 L30.4033333,40.2083333 L30.635,42.06 L30.635,42.1083333 L31.8816667,52.0816667 C31.9861838,52.9180885 32.6987458,53.5447998 33.5416667,53.5416784 L45.2083333,53.5416784 C45.9253988,53.5411222 46.5617408,53.0819894 46.7883333,52.4016667 L50.1216667,42.4016667 C50.2908676,41.8936579 50.2056925,41.3352908 49.8927248,40.9008335 C49.5797571,40.4663762 49.077112,40.2087398 48.5416667,40.2083333 L33.7633333,40.2083333 L33.5283333,38.335 C33.424126,37.5011041 32.7153818,36.8752372 31.875,36.875 L28.5416667,36.875 C27.6211921,36.875 26.875,37.6211921 26.875,38.5416667 C26.875,39.4621412 27.6211921,40.2083333 28.5416667,40.2083333 L28.5416667,40.2083333 Z M46.2283333,43.5416667 L44.0066667,50.2083333 L35.0066667,50.2083333 L34.1733333,43.5416667 L46.2283333,43.5416667 Z" id="Shape"></path>
                </g>
            </g>
        </g>
    </g>
</svg>