<?xml version="1.0" encoding="UTF-8"?>
<svg width="62px" height="67px" viewBox="0 0 62 67" version="1.1" xmlns="http://www.w3.org/2000/svg" xmlns:xlink="http://www.w3.org/1999/xlink">
    <title>3BCD976C-20C8-4876-BB53-190F1E2830D9</title>
    <g id="Website" stroke="none" stroke-width="1" fill="none" fill-rule="evenodd">
        <g id="Become-a-partner" transform="translate(-164.000000, -2086.000000)" fill="#00CCCC" fill-rule="nonzero" stroke="#00CCCC" stroke-width="2">
            <g id="add-user" transform="translate(165.000000, 2087.000000)">
                <path d="M37.4164811,50.3786192 L43.830735,50.3786192 L43.830735,56.7928731 C43.830735,57.3832888 44.3093615,57.8619154 44.8997773,57.8619154 C45.4901931,57.8619154 45.9688196,57.3832888 45.9688196,56.7928731 L45.9688196,50.3786192 L52.3830735,50.3786192 C52.9734893,50.3786192 53.4521158,49.8999926 53.4521158,49.3095768 C53.4521158,48.7191611 52.9734893,48.2405345 52.3830735,48.2405345 L45.9688196,48.2405345 L45.9688196,41.8262806 C45.9688196,41.2358649 45.4901931,40.7572383 44.8997773,40.7572383 C44.3093615,40.7572383 43.830735,41.2358649 43.830735,41.8262806 L43.830735,48.2405345 L37.4164811,48.2405345 C36.8260653,48.2405345 36.3474388,48.7191611 36.3474388,49.3095768 C36.3474388,49.8999926 36.8260653,50.3786192 37.4164811,50.3786192 Z" id="Path"></path>
                <path d="M0.557104677,53.4551893 C1.04699332,53.7224499 12.6926058,60 24.5879733,60 C27.5980394,59.9871978 30.599001,59.668319 33.5445434,59.0482851 C38.0464283,64.2972734 45.5586541,65.7778135 51.7155146,62.6294942 C57.8723751,59.4811748 61.0700267,52.5241236 59.4501641,45.801409 C57.8303016,39.0786944 51.8148943,34.3415633 44.8997773,34.3429844 C44.6135412,34.3429844 44.3294432,34.351804 44.047216,34.3678396 C40.6511359,29.2882851 35.8653007,25.8288641 30.4016927,24.3958129 C35.6913761,21.7066065 38.4463496,15.7404845 37.0631253,9.96993237 C35.6799009,4.19938023 30.5195212,0.130599985 24.5855023,0.131759551 C18.6514834,0.132919613 13.4926946,4.20371676 12.1117261,9.97480917 C10.7307576,15.7459016 13.4880631,21.7109462 18.7787973,24.3980846 C14.3476169,25.5606682 10.3393764,28.0606236 7.15175947,31.7172829 C2.53991091,37.007706 0,44.3943875 0,52.5167038 C0,52.9079006 0.213679644,53.267855 0.557104677,53.4551893 Z M44.8997773,36.481069 C51.9847665,36.481069 57.7282851,42.2245876 57.7282851,49.3095768 C57.7282851,56.3945661 51.9847665,62.1380846 44.8997773,62.1380846 C37.8147881,62.1380846 32.0712695,56.3945661 32.0712695,49.3095768 C32.079223,42.2278847 37.8180851,36.4890225 44.8997773,36.481069 Z M13.8975501,12.9621381 C13.8975501,7.0579804 18.6838156,2.27171492 24.5879733,2.27171492 C30.492131,2.27171492 35.2783964,7.0579804 35.2783964,12.9621381 C35.2783964,18.8662958 30.492131,23.6525612 24.5879733,23.6525612 C18.6865936,23.6458599 13.9042515,18.8635177 13.8975501,12.9621381 Z M8.76347439,33.1222717 C12.8848998,28.3944321 18.5048552,25.7906459 24.5879733,25.7906459 C31.3643653,25.7906459 37.5100223,29.0164811 41.668196,34.6953675 C36.9402819,35.7389993 33.0098269,39.0063121 31.1199148,43.4639539 C29.2300027,47.9215958 29.614368,53.0182685 32.1514477,57.142049 C29.6574427,57.6116248 27.1257824,57.8525798 24.5879733,57.8619154 C14.6742094,57.8619154 4.59781737,53.1069488 2.1436971,51.8693987 C2.27345212,44.5208018 4.6125167,37.8841871 8.76347439,33.1222717 Z" id="Shape"></path>
            </g>
        </g>
    </g>
</svg>