<?xml version="1.0" encoding="UTF-8"?>
<svg width="60px" height="69px" viewBox="0 0 60 69" version="1.1" xmlns="http://www.w3.org/2000/svg" xmlns:xlink="http://www.w3.org/1999/xlink">
    <title>D0F2187B-892D-4EFB-9F27-803FD0745B7A</title>
    <g id="Website" stroke="none" stroke-width="1" fill="none" fill-rule="evenodd">
        <g id="Become-a-partner" transform="translate(-165.000000, -2317.000000)" fill="#E94E1B" fill-rule="nonzero">
            <g id="like" transform="translate(165.000000, 2317.000000)">
                <path d="M58.468,42.2666667 C59.42,41.204 60,39.8013333 60,38.2666667 C60,34.9586667 57.308,32.2666667 54,32.2666667 L42.3546667,32.2666667 C43.508,28.7666667 44,24.1226667 44,22.132 L44,20.1333333 C44,15.7226667 40.4106667,12.1333333 36,12.1333333 L34,12.1333333 C33.0826667,12.1333333 32.2826667,12.7573333 32.06,13.648 L30.9706667,18.0066667 C29.444,24.1106667 24.5973333,30.8453333 19.5813333,32.0693333 C18.7026667,29.8453333 16.5333333,28.2666667 14,28.2666667 L2,28.2666667 C0.896,28.2666667 0,29.1626667 0,30.2666667 L0,66.2666667 C0,67.3706667 0.896,68.2666667 2,68.2666667 L14,68.2666667 C16.3853333,68.2666667 18.4493333,66.868 19.416,64.8466667 L26.288,67.1373333 C28.5346667,67.8866667 30.876,68.2666667 33.2453333,68.2666667 L50,68.2666667 C53.308,68.2666667 56,65.5746667 56,62.2666667 C56,61.4866667 55.8506667,60.74 55.5786667,60.056 C58.1226667,59.3613333 60,57.0293333 60,54.2666667 C60,52.732 59.42,51.3293333 58.468,50.2666667 C59.42,49.204 60,47.8013333 60,46.2666667 C60,44.732 59.42,43.3293333 58.468,42.2666667 Z M16,62.2666667 C16,63.3693333 15.1026667,64.2666667 14,64.2666667 L4,64.2666667 L4,32.2666667 L14,32.2666667 C15.1026667,32.2666667 16,33.164 16,34.2666667 L16,62.2666667 Z M50,44.2666667 L54,44.2666667 C55.1026667,44.2666667 56,45.164 56,46.2666667 C56,47.3693333 55.1026667,48.2666667 54,48.2666667 L50,48.2666667 C48.896,48.2666667 48,49.1626667 48,50.2666667 C48,51.3706667 48.896,52.2666667 50,52.2666667 L54,52.2666667 C55.1026667,52.2666667 56,53.164 56,54.2666667 C56,55.3693333 55.1026667,56.2666667 54,56.2666667 L50,56.2666667 C48.896,56.2666667 48,57.1626667 48,58.2666667 C48,59.3706667 48.896,60.2666667 50,60.2666667 C51.1026667,60.2666667 52,61.164 52,62.2666667 C52,63.3693333 51.1026667,64.2666667 50,64.2666667 L33.2453333,64.2666667 C31.3066667,64.2666667 29.3906667,63.956 27.552,63.3426667 L20,60.8253333 L20,36.0773333 C23.1373333,35.4813333 26.208,33.4946667 28.98,30.2426667 C31.6866667,27.0666667 33.8813333,22.856 34.8506667,18.9773333 L35.5613333,16.1333333 L36,16.1333333 C38.2053333,16.1333333 40,17.928 40,20.1333333 L40,22.132 C40,24.8173333 39.16,29.968 38.0853333,32.2666667 L34,32.2666667 C32.896,32.2666667 32,33.1626667 32,34.2666667 C32,35.3706667 32.896,36.2666667 34,36.2666667 L54,36.2666667 C55.1026667,36.2666667 56,37.164 56,38.2666667 C56,39.3693333 55.1026667,40.2666667 54,40.2666667 L50,40.2666667 C48.896,40.2666667 48,41.1626667 48,42.2666667 C48,43.3706667 48.896,44.2666667 50,44.2666667 Z" id="Shape"></path>
                <circle id="Oval" cx="10" cy="58.2666667" r="2"></circle>
                <path d="M38,0 C36.8954667,0 36,0.895466667 36,2 L36,6.13333333 C36,7.23786667 36.8954667,8.13333333 38,8.13333333 C39.1045333,8.13333333 40,7.23786667 40,6.13333333 L40,2 C40,0.895466667 39.1045333,0 38,0 Z" id="Path"></path>
                <path d="M29.5146667,8.81973333 L26.6862667,5.99133333 C25.9053333,5.21026667 24.6389333,5.21026667 23.8578667,5.99133333 C23.0768,6.7724 23.0768,8.03866667 23.8578667,8.81973333 L26.6862667,11.6481333 C27.4672,12.4290667 28.7337333,12.4292 29.5146667,11.6481333 C30.2957333,10.8670667 30.2957333,9.6008 29.5146667,8.81973333 Z" id="Path"></path>
                <path d="M52.1421333,5.99133333 C51.3612,5.21026667 50.0948,5.21026667 49.3137333,5.99133333 L46.4853333,8.8196 C45.7042667,9.60066667 45.7042667,10.8669333 46.4853333,11.648 C47.2662667,12.4290667 48.5326667,12.4292 49.3137333,11.6481333 L52.1421333,8.81973333 C52.9232,8.03866667 52.9232,6.7724 52.1421333,5.99133333 Z" id="Path"></path>
            </g>
        </g>
    </g>
</svg>