<?xml version="1.0" encoding="UTF-8"?>
<svg width="60px" height="45px" viewBox="0 0 60 45" version="1.1" xmlns="http://www.w3.org/2000/svg" xmlns:xlink="http://www.w3.org/1999/xlink">
    <title>F85518BA-8679-43F9-9501-2F976BC2511F</title>
    <g id="Website" stroke="none" stroke-width="1" fill="none" fill-rule="evenodd">
        <g id="Become-a-partner" transform="translate(-165.000000, -2212.000000)" fill="#747473" fill-rule="nonzero">
            <g id="list-(1)" transform="translate(165.000000, 2212.000000)">
                <path d="M56.187541,44.1570492 L16.642623,44.1570492 C15.0127869,44.1570492 13.6918033,42.8360656 13.6918033,41.2062295 C13.6918033,39.5763934 15.0127869,38.2554098 16.642623,38.2554098 L56.1865574,38.2554098 C57.8163934,38.2554098 59.137377,39.5763934 59.137377,41.2062295 C59.137377,42.8360656 57.817377,44.1570492 56.187541,44.1570492 Z" id="Path"></path>
                <path d="M56.187541,25.6347541 L16.642623,25.6347541 C15.0127869,25.6347541 13.6918033,24.3137705 13.6918033,22.6839344 C13.6918033,21.0540984 15.0127869,19.7331148 16.642623,19.7331148 L56.1865574,19.7331148 C57.8163934,19.7331148 59.1373776,21.0540984 59.1373776,22.6839344 C59.1383607,24.3137705 57.817377,25.6347541 56.187541,25.6347541 Z" id="Path"></path>
                <path d="M56.187541,7.11245902 L16.642623,7.11245902 C15.0127869,7.11245902 13.6918033,5.79147541 13.6918033,4.16163934 C13.6918033,2.53180328 15.0127869,1.21081967 16.642623,1.21081967 L56.1865574,1.21081967 C57.8163934,1.21081967 59.137377,2.53180328 59.137377,4.16163934 C59.137377,5.79147541 57.817377,7.11245902 56.187541,7.11245902 Z" id="Path"></path>
                <circle id="Oval" cx="3.96295082" cy="4.38983607" r="3.96295082"></circle>
                <circle id="Oval" cx="3.96295082" cy="22.6839344" r="3.96295082"></circle>
                <circle id="Oval" cx="3.96295082" cy="40.9780328" r="3.96295082"></circle>
            </g>
        </g>
    </g>
</svg>