<?xml version="1.0" encoding="UTF-8"?>
<svg width="100px" height="88px" viewBox="0 0 100 88" version="1.1" xmlns="http://www.w3.org/2000/svg" xmlns:xlink="http://www.w3.org/1999/xlink">
    <title>20259FF9-F318-4641-81F8-E3195B12ED15</title>
    <g id="Website" stroke="none" stroke-width="1" fill="none" fill-rule="evenodd">
        <g id="Homepage" transform="translate(-915.000000, -1888.000000)" fill="#D2EEED" fill-rule="nonzero">
            <g id="Group-17" transform="translate(895.000000, 1867.000000)">
                <path d="M120,49.8322022 C120,49.3997192 119.897834,48.9878306 119.673069,48.6171308 L104.797711,22.2562602 C104.368615,21.4942663 103.551287,21 102.67266,21 L37.3069064,21 C36.4282795,21 35.6109522,21.4736719 35.1818553,22.2562602 L20.3269309,48.6171308 C20.1225991,48.9878306 20,49.3997192 20,49.8322022 C20,55.7428037 23.5349407,60.8090335 28.5819371,63.0538264 L28.5819371,106.528668 C28.5819371,107.887901 29.685329,109 31.0339191,109 L44.5811197,109 C44.6015529,109 44.6219861,109 44.6424193,109 L63.6452799,109 C63.6657131,109 63.6861463,109 63.7065795,109 L108.945648,109 C110.294238,109 111.39763,107.887901 111.39763,106.528668 L111.39763,63.3627428 C111.39763,63.2597707 111.39763,63.1773929 111.377197,63.0950152 C116.444626,60.8502223 120,55.7633981 120,49.8322022 Z M38.7372293,25.9632577 L101.242338,25.9632577 L112.868819,46.5782822 L27.131181,46.5782822 L38.7372293,25.9632577 Z M91.1687781,51.500351 C90.3923171,55.948748 86.5304454,59.3262345 81.8921128,59.3262345 C77.2537801,59.3262345 73.3919085,55.948748 72.6154475,51.500351 L91.1687781,51.500351 Z M67.4049857,51.500351 C66.6285247,55.948748 62.766653,59.3262345 58.1283204,59.3262345 C53.4899877,59.3262345 49.6281161,55.948748 48.8312219,51.500351 L67.4049857,51.500351 Z M25.0674295,51.500351 L43.6411933,51.500351 C42.8647323,55.948748 38.9824275,59.3262345 34.3440948,59.3262345 C29.7057622,59.3468289 25.8438905,55.948748 25.0674295,51.500351 Z M61.1932979,104.057337 L47.0944013,104.057337 L47.0944013,77.3875497 C47.0944013,75.4516733 48.6473233,73.8659022 50.5884757,73.8659022 L57.7196567,73.8659022 C59.640376,73.8659022 61.2137311,75.4310789 61.2137311,77.3875497 L61.2137311,104.057337 L61.1932979,104.057337 Z M106.493666,104.057337 L66.097262,104.057337 L66.097262,77.3875497 C66.097262,72.7332085 62.3375562,68.9232389 57.6992235,68.9232389 L50.5680425,68.9232389 C45.950143,68.9232389 42.1700041,72.7126141 42.1700041,77.3875497 L42.1700041,104.077931 L33.4859011,104.077931 L33.4859011,64.2688977 C33.7719657,64.2894922 34.0580302,64.2894922 34.3440948,64.2894922 C39.2889252,64.2894922 43.6616265,61.7563773 46.2362076,57.9052188 C48.8107887,61.7563773 53.18349,64.2894922 58.1283204,64.2894922 C63.0731508,64.2894922 67.4254189,61.7563773 70.0204332,57.9052188 C72.5950143,61.7563773 76.9677156,64.2894922 81.8921128,64.2894922 C86.8369432,64.2894922 91.1892113,61.7563773 93.7637924,57.9052188 C96.3383735,61.7563773 100.711075,64.2894922 105.655905,64.2894922 C105.94197,64.2894922 106.207601,64.2688977 106.493666,64.2688977 L106.493666,104.057337 L106.493666,104.057337 Z M105.655905,59.3468289 C101.017573,59.3468289 97.1557009,55.9693424 96.3792399,51.5209455 L114.953004,51.5209455 C114.15611,55.948748 110.294238,59.3468289 105.655905,59.3468289 Z" id="Shape"></path>
            </g>
        </g>
    </g>
</svg>